P1
# CREATOR: GIMP PNM Filter Version 1.1
90 64
0000000000000000000000000000000000000000000000000000000000000000000000
0000000000000000000000000000000000000000000000000000000000000000000000
0000000000000000000000000000000000000000000000000000000000000000000000
0000000000000000000000000000000000000000000000000000000000000000000000
0000000000000000000000000000000000000000000000000000000000000000000000
0000000000000000000000000000000000000000000000000000000000000001111111
1000000000000000000000000000000000000000000000000000000000000000000000
1111111110011100000011100000000000000000000000000000000000000000000000
0000000000000000111111111111111100000000001100011111111000000000000000
0000000000000000000000000000000001111111111111111110000000000001011100
0000010000000000000000000000000000000000000000000001111111111111111111
0000000000000111000000000010000000000000000000000001111110000000111111
1111111111111111111000000111100011100000000000100000000000000000000000
0100000100000100000111111111111111111110000011111111110000000000001000
0000000000000000000000100001000001000011111111111111111111000001111111
1110000001111000100000000000000000000000001000001000100001111000000000
0001111100000111111111100000110011110000000000000000000000000001000001
0100000111000000000000000111000011111111111000011000000000000000000000
0000000000000010000010000011110000000000000000110000111111111100000100
0000000000000000000000000000000000100000000001111100000000000000001100
0011111111110000110000000000000000000000000000000000000100000000011111
0000011111100000010000111111111100001000000000000000000000000000000000
0000001000000011111100001111111100000100001111111111000010000000000000
0000000000000000000000000001000001111111000011111111100001000011111111
1100001100000000000000000000000000000000000000010000001111110000111111
1110000100000111111111000011100000000000000000000000000000000000001000
0000011111000011111111100001000001111111110000111000000000000000000000
0000000000000001000000000111110000111111111000011000001111111100000111
0000000000000000000000000000000000100000100000111100001111111110000110
0000001111001000001110011110000000000000000000000000001000011100000111
0000111111111000011100000000000010000001111100010000000000000000000000
0001000011111000011100001111111110000111100000000000010000000000000100
0000000000000000000000100000111110000011000011111111100001111110000000
0011100000000000010000000000000000000000001000011111110000110000111111
1100000111111110000011111100000000000100000000000000000000000100001111
1111000001000001111110000011111111111111111111110000000110000000000000
0000000000010000111111111000010000000000000000111111111111111111111111
1111110000000000000000000000000111111111111111111100000000000000011111
1111111111111111111111000000000000000000000000000000000001111111111111
0000000000000011111111111111111111111111110000000000000000000000000000
0000000111111111111100000000000011111111111111111111111111111100000000
0000000000000000000000000001111111111111000011111111111111111111111111
1111111111110000000000000000000000000000000000011111111111110000111111
1111111111011101101111111111111100001000000010000000000000000000000111
1111111111000011111101110110010011011111011100111001010011000100110011
0000000000000000011111111111110000111110001010110101010110101010101110
1110101010101010010000000000000000000111111111111100001111101110101001
0101011010101010111011101010101010100001000000000000000000111111111111
0000101011011010100100111010101011001110110100110001000101100000000000
0000000011111111111100001111111111111111111111111111111011111000000000
0000000000000000000000000000111111111111111111111111111111111111111111
1110011111100000000000000000000000000000000000001111111111111111111111
1111111111111111111111111111111000000000000000000000000000000000000001
1111111111111111111111111111111111111111111111111100000000000000000000
0000000000000000000111111111111111111111111111111111111111111111111111
0000000000000000000000000000000000000001111111111111111111111111111111
1111111111111111111100000000000000000000000000000000000000001111111111
1111111111111111111111111111111111111110000000000000000000000000000000
0000000000111111111111111111111111111111111111111111111111100000000000
0000000000000000000000000000000111111111111111111111111111111111111111
1111111100000000000000000000000000000000000000000000111111111111111111
1111111111111111111111111110000000000000000000000000000000000000000000
0011111111111111111111111111111111111111111111100000000000000000000000
0000000000000000000000011111111111111111111111111111111111111111110000
0000000000000000000000000000000000000000000011111111111111111111111111
1111111111111110000000000000000000000000000000000000000000000000011111
1111111111111111111111111111111111000000000000000000000000000000000000
0000000000000000111111111111111111111111111111111111100000000000000000
0000000000000000000000000000000000000111111111111111111111111111111111
1100000000000000000000000000000000000000000000000000000000111111111111
1111111111111111111110000000000000000000000000000000000000000000000000
0000000000111111111111111111111111111110000000000000000000000000000000
0000000000000000000000000000000111111111111111111111111111000000000000
0000000000000000000000000000000000000000000000000000011111111111111111
1111110000000000000000000000000000000000000000000000000000000000000000
0000001111111111111111100000000000000000000000000000000000000000000000
0000000000000000000000000000001111111110000000000000000000000000000000
0000000000000000000000000000000000000000000000000000000000000000000000
0000000000000000000000000000000000000000000000000000000000000000000000
0000000000000000000000000000000000000000000000000000000000000000000000
0000000000000000000000000000000000000000000000000000000000000000000000
0000000000000000000000000000000000000000000000000000000000000000000000
00000000000000000000