P1
# CREATOR: GIMP PNM Filter Version 1.1
30 30
0000000000000000000000000000000011111111111111111111111111100011111111
1111111111111111111000111111111111111111111111111000000000000000000000
0000000000000000000000000000000000000000000000000000000000000000000000
0000000001110000000111000000000000000001111111111111000000000000000001
1111111111110000000000000000001111111111100000000000000000000011111110
0000000000000000000000011111000000000000000000000000011111000000000000
0000000000000011100000000000000000000000000011100000000000000011111111
1111111111111111111000111111111111111111111111111000111111111111111111
1111111110001110000000000000000000001110001110000000000000000000001110
0011100000000000000000000011100011100000000000000000000011100011100000
0000000000000000111000111000000000000000000000111000111000000000000000
0000001110001111111111111111111111111110001111111111111111111111111110
001111111111111111111111111110000000000000000000000000000000