P1
# CREATOR: GIMP PNM Filter Version 1.1
25 16
0000000000000000000000000000000000000000000000000000001111111111111111
1110000010000000000000000000100001000000001110000000010001100000001000
1000000010010100000000000100000001001010000000000100000000100101000000
0001000000000100101000000000100000000010001100000000000000000001000010
0000000010000000001000010000000000000000000100000111111111111111111100
00000000000000000000000000000000000000000000000000