P1
# CREATOR: GIMP PNM Filter Version 1.1
24 32
0000000000000000000000000000000001111110000000000000001111111111110000
0000000111111111111110000000001111111001111111000000011111111000111111
1000001111111110000111111100001111111110000011111100001111111110010001
1111000111111111100110001111100111100011100111000111100111110001100110
0011111001111110001001000111111001111111000000001111111001111111100000
0111111110011111111100001111111110011111111100001111111110011111111000
0001111111100111111100000000111111100111111000100100011111100111110001
1001100011111001111000111001110001111001111111111001100011111001111111
1110010001111110001111111110000011111100001111111110000111111100000111
1111100011111110000000111111100111111100000000011111111111111000000000
00111111111111000000000000000111111000000000000000000000000000000000