P1
# CREATOR: GIMP PNM Filter Version 1.1
12 16
0000000000000001111110000011111111000111100111100111101011100110101101
1001110010111001111001111001111001111001110010111001101011011001111010
1110011110011110001111111100000111111000000000000000