P1
# CREATOR: GIMP PNM Filter Version 1.1
16 16
0000000000000000000100000000000000010000000000000001000000000000000100
0000100000000100000011000000010000001110000001111111111100000111111111
1100000100000011100000010000001100000001000000100000000100000000000000
0100000000000000010000000000000000000000000000