P1
# CREATOR: GIMP PNM Filter Version 1.1
64 64
0000000000000000000000000000000000000000000000000000000000000000000000
0000000000000000000000000000000000000000000000000000000000000000000000
0000000000000000000000000000000000000000000000000000000000000000000000
0000000000011111100000000000000000000000000000000000000000000000000000
0001111111111000000000000000000000000000000000000000000000000000001111
1111111100000000000000000000000000000000000000000000000000011110000001
1110000000000000000000000000000000000000000000000000011100000000111000
0000000000000000000000000000000000000000000000111000000000011100000000
0000000000000000000000000000000000000000111000000000011100000000000000
0000000000000000000000000000000001110000000000001110000000000000000000
0000000000000000000000000001110000000000001110000000000000000000000000
0000000000000000000011100000000000000111000000000000000000000000000000
0000000000000011100000000000000111000000000000000000000000000000000000
0000000111000000000000000011100000000000000000000000000000000000000000
0111000000000000000011100000000000000000000000000000000000000000111000
0000111100000001110000000000000000000000000000000000000000111000000111
1110000001110000000000000000000000000000000000000001110000001100111100
0000111000000000000000000000000000000000000001110000011011111110000011
1000000000000000000000000000000000000011100000011011111110000001110000
0000000000000000000000000000000011100000011011111110000001110000000000
0000000000000000000000000111000000011011111110000000111000000000000000
0000000000000000000111000000011011111110000000111000000000000000000000
0000000000001110000000011011111110000000011100000000000000000000000000
0000001110000000011011111110000000011100000000000000000000000000000001
1100000000011011111110000000001110000000000000000000000000000001110000
0000011011111110000000001110000000000000000000000000000011100000000001
1011111110000000000111000000000000000000000000000011100000000001101111
1110000000000111000000000000000000000000000111000000000001101111111000
0000000011100000000000000000000000000111000000000001101111111000000000
0011100000000000000000000000001110000000000001101111111000000000000111
0000000000000000000000001110000000000001101111111000000000000111000000
0000000000000000011100000000000001101111111000000000000011100000000000
0000000000011100000000000001101111111000000000000011100000000000000000
0000111000000000000001111111111000000000000001110000000000000000000011
1000000000000000111111110000000000000001110000000000000000000111000000
0000000000011111100000000000000000111000000000000000000111000000000000
0000001111000000000000000000111000000000000000001110000000000000000000
0000000000000000000000011100000000000000001110000000000000000000000000
0000000000000000011100000000000000011100000000000000000000000000000000
0000000000001110000000000000011100000000000000000000000000000000000000
0000001110000000000000111000000000000000000000111100000000000000000000
0111000000000000111000000000000000000011111111000000000000000000011100
0000000001110000000000000000000111000111100000000000000000001110000000
0001110000000000000000000110111111100000000000000000001110000000001110
0000000000000000001101111111110000000000000000000111000000001110000000
0000000000001101111111110000000000000000000111000000011110000000000000
0000001101111111110000000000000000000111100000011100000000000000000000
1111111111110000000000000000000011100000011100000000000000000000011111
1111100000000000000000000011100000011100000000000000000000011111111110
0000000000000000000011100000011100000000000000000000001111111100000000
0000000000000011100000011110000000000000000000000011110000000000000000
0000000111100000001110000000000000000000000000000000000000000000000000
0111000000001111000000000000000000000000000000000000000000000000111100
0000000111110000000000000000000000000000000000000000000011111000000000
0011111111111111111111111111111111111111111111111111110000000000000111
1111111111111111111111111111111111111111111111100000000000000001111111
1111111111111111111111111111111111111110000000000000000000000000000000
0000000000000000000000000000000000000000000000000000000000000000000000
000000000000000000000000000000000000