P1
# CREATOR: GIMP PNM Filter Version 1.1
128 64
0000111111111111111111111111111111111111111111111111111111111111111111
1111111111111111111111111111111111111111111111111111110000001111111111
1111111111111111111111111111111111111111111111111111111111111111111111
1111111111111111111111111111111111111111111100011110000000000000000000
0000000000000000000000000000000000000000000000000000000000000000000000
0000000000000000000000000000011110011000000000000000000000000000000111
1111111100000000000000001111111111000000000000011111111110000000000000
0000000000000000000110111000000000000000000000000000000111111111111110
0000000000111111111111110000000000011111111110000000000000000000000000
0000000111110000000000000000000000000000000111111111111111000000000111
1111111111111000000000011111111110000000000000000000000000000000001111
0000000000000000000000000000000111111111111111100000000111111111111111
1000000000111111111111000000000000000000000000000000001111000000000000
0000000000000000000111111100111111100000000111111100111111100000000011
1111111111000000000000000000000000000000001111000000000000000000000000
0000000111111100111111100000000111111100111111100000000011111111111100
0000000000000000000000000000001111000000000000000000000000000000011111
1100111111100000000111111100111111100000000011111111111100000000000000
0000000000000000001111000000000000000000000000000000011111110011111110
0000000111111100111111100000000111111111111110000000000000000000000000
0000001111000000000000000000000000000000011111110011111110000000011111
1100111111100000000111111111111110000000000000000000000000000000111100
0000000000000000000000000000011111110011111110000000011111110011111110
0000000111111111111110000000000000000000000000000000111100000000000000
0000000000000000011111110011111110000000011111110011111110000000011111
1001111110000000000000000000000000000000111100000000000000000000000000
0000011111111111111100000000011111110000000000000000011111100111111000
0000000000000000000000000000111100000000000000000000000000000001111111
1111111000000000011111110000000000000000011111100111111000000000000000
0000000000000000111100000000000000000000000000000001111111111111110000
0000011111110000000000000000011111100111111000000000000000000000000000
0000111100000000000000000000000000000001111111111111111000000001111111
0011111110000000111111100111111100000000000000000000000000000011110000
0000000000000000000000000001111111001111111000000001111111001111111000
0000111111111111111100000000000000000000000000000011110000000000000000
0000000000000001111111001111111000000001111111001111111000000011111111
1111111100000000000000000000000000000011110000000000000000000000000000
0001111111001111111000000001111111001111111000000011111111111111110000
0000000000000000000000000011110000000000000000000000000000000111111100
1111111000000001111111001111111000000011111111111111110000000000000000
0000000000000011110000000000000000000000000000000111111100111111100000
0001111111111111111000000011111110011111110000000000000000000000000000
0011110000000000000000000000000000000111111100111111100000000111111111
1111111000000011111110011111110000000000000000000000000000001111000000
0000000000000000000000000111111100111111100000000011111111111111000000
0011111110011111110000000000000000000000000000001111000000000000000000
0000000000000111111100111111100000000000111111111100000000001111111001
1111110000000000000000000000000000001111000000000000000000000000000000
0000000000000000000000000000000000000000000000000000000000000000000000
0000000000000000000000001111111111111111111111111111111111111111111111
1111111111111111111111111111111111111111111111111111111111111111111111
1111111111111111000000000000000000000000000000000000000000000000000000
0000000000000000000000000000000000000000000000000000000000000000000000
1111000111100000000100000000000010000000000000000000000100000001000000
0001110000000000000010000000000000000000000000000100010000111100010001
0000000100000000000010000000000000000000000100000001000000001000100000
0000000010000000000000000000000000000100010000111100010001001110010110
0011100111000011100101100011100101000101011000001000100111000111001011
0001110010110000001110000100010000111100011110010001011001010001001000
0100010110010100000101000101100100001000100000101000001100101000101100
1000010001000100010000111100010100010001010001010001001000011111010000
0100000101000101000100001111100111101000001000101111101000100001111000
0100010000111100010010010001010001010001001001010000010000010001010100
1101000100001000101000101000101000101000001000100001000000001010000011
1100010001001110011110001110000110001110010000001110010011010111100000
1000100111100111001000100111001000100000111001000100100011110000000000
0000000000000000000000000000000000000000000000000000000000000000000000
0000000000000000000000000000000000000000000011111111111111111111111111
1111111111111111111111111111111111111111111111111111111111111111111111
1111111111111111111111111111111111110000000000000000000000000000000000
0000000100000000000000000000000000000000000000001000000000000000000000
0000000000000000000011110000000000000000000000111111111110000000010000
0000000000000000000000000000000000001000000111111111111111111111111111
0000000011110000000000000000000000100000000001000000010000000000000000
1111100000000000000000001000000100000000000000000000000001000000001111
1111111111111111111111100000000000100000010000000000000000111111000000
0000000000001000000100111011100110011100111001000000001111000000000000
0000000000100000000000100000010000000000000000111111100000000000000000
1000000101000001001001010010010001000000001111000000000000000000000010
0000000000100000010000000000000000011111110000000000000000100000010011
0001001001011110010001000000001111000000000000000000000010000000000011
1111110000000000000000001111111000000000000000100000010000100100111101
0100010001000000001111000111111111100000000010000000000010000001000000
0000000000000111111000000000000000100000010111000100100101001001000100
0000001111000100000000100011100010000000000010000001000000000000000000
0011111000000000000000100000010000000000000000000000000100000000111111
1100000000111111111110000000000010000001000000000000000000001111100000
0000000000100000011111111111111111111111111100000000111100010000000010
0011100010000000000100000001000000000000000000001111100000000000000010
0000000000000000001000000000000000000000111100011111111110000100001111
1111111000000001000000011100000000001111100000000000000010000000000000
0000110110000000000000000000111100000000000000000100000000000000000000
0001000000011110000000001111110000000000000010000000000000001100000110
0000000000000000111100000000000000000100000000000000000000000100000001
1111000000001111111000000000000010000000000000110000000001100000000000
0000111100000000000000000100000000000000000000000100000001111110000001
1111111100000000000010000000000011000000000000011000000000000011110000
0000000001111111110000000000000000000100000001111111111111111111111000
0000000010000000001100011100000110000110000000000011110000000000000000
0000000000000000000000000100000000111111111111111111111100000000001000
0000110000001001101001000001100000000011110000000000000111111111000000
0000000000000100000000011111111111111111111110000000001000001100000000
1000000010000000011111111111110000000000000000010000000000000000000000
0100000000001111111111111001111111000000001000000011000000100110010000
0001100000000011110000000000000000010000000000000000000000010000000000
0111111111111000111111100000001000000000110001110000111100011000000000
0011110000000000000000111000000000000000000000010000000000000000011111
1100011111110000001000000000001100000000000001100000000000001111111111
1111111111111111111111111111111111110000000000000000001111111000111111
1000001000000000000011000000000110000000000000011101100000000000000011
1000000000000000000000010000000000000000000111111100011111110000100000
0000000000110000011000000000000000011001111000000000000000000000000000
0000000000010000000000000000000011111110001111111000100000000000000000
1101100000000000000001111000111111111111111111111111111111111111111111
1111111111111111111111111111111111111111111111111111111111111111111111
1111111111110000001111111111111111111111111111111111111111111111111111
1111111111111111111111111111111111111111111111111111111111111111111100
00