<?xml version="1.0" encoding="UTF-8" standalone="no"?>
<!-- Created with Inkscape (http://www.inkscape.org/) -->

<svg
   xmlns:osb="http://www.openswatchbook.org/uri/2009/osb"
   xmlns:dc="http://purl.org/dc/elements/1.1/"
   xmlns:cc="http://creativecommons.org/ns#"
   xmlns:rdf="http://www.w3.org/1999/02/22-rdf-syntax-ns#"
   xmlns:svg="http://www.w3.org/2000/svg"
   xmlns="http://www.w3.org/2000/svg"
   xmlns:xlink="http://www.w3.org/1999/xlink"
   xmlns:sodipodi="http://sodipodi.sourceforge.net/DTD/sodipodi-0.dtd"
   xmlns:inkscape="http://www.inkscape.org/namespaces/inkscape"
   width="500"
   height="400"
   id="svg3225"
   version="1.1"
   inkscape:version="0.48.2 r9819"
   sodipodi:docname="logo_xpcc.svg"
   inkscape:export-filename="logo_xpcc.png"
   inkscape:export-xdpi="90"
   inkscape:export-ydpi="90"
   style="display:inline">
  <defs
     id="defs3227">
    <linearGradient
       id="linearGradient3851">
      <stop
         style="stop-color:#000000;stop-opacity:1;"
         offset="0"
         id="stop3853" />
      <stop
         style="stop-color:#000000;stop-opacity:0;"
         offset="1"
         id="stop3855" />
    </linearGradient>
    <linearGradient
       inkscape:collect="always"
       id="linearGradient5283">
      <stop
         style="stop-color:#000000;stop-opacity:1;"
         offset="0"
         id="stop5285" />
      <stop
         style="stop-color:#000000;stop-opacity:0;"
         offset="1"
         id="stop5287" />
    </linearGradient>
    <linearGradient
       id="linearGradient3843"
       osb:paint="solid">
      <stop
         style="stop-color:#000000;stop-opacity:1;"
         offset="0"
         id="stop3845" />
    </linearGradient>
    <linearGradient
       inkscape:collect="always"
       xlink:href="#linearGradient5283"
       id="linearGradient5291"
       x1="42.348045"
       y1="788.89722"
       x2="449.40555"
       y2="788.89722"
       gradientUnits="userSpaceOnUse" />
    <radialGradient
       inkscape:collect="always"
       xlink:href="#linearGradient3851"
       id="radialGradient3857"
       cx="237.5"
       cy="200.35715"
       fx="237.5"
       fy="200.35715"
       r="201.07143"
       gradientUnits="userSpaceOnUse" />
  </defs>
  <sodipodi:namedview
     id="base"
     pagecolor="#ffffff"
     bordercolor="#666666"
     borderopacity="1.0"
     inkscape:pageopacity="0.0"
     inkscape:pageshadow="2"
     inkscape:zoom="1.4"
     inkscape:cx="255.91883"
     inkscape:cy="174.15633"
     inkscape:document-units="px"
     inkscape:current-layer="layer1"
     showgrid="false"
     inkscape:window-width="1280"
     inkscape:window-height="1000"
     inkscape:window-x="0"
     inkscape:window-y="24"
     inkscape:window-maximized="1" />
  <metadata
     id="metadata3230">
    <rdf:RDF>
      <cc:Work
         rdf:about="">
        <dc:format>image/svg+xml</dc:format>
        <dc:type
           rdf:resource="http://purl.org/dc/dcmitype/StillImage" />
        <dc:title />
      </cc:Work>
    </rdf:RDF>
  </metadata>
  <g
     inkscape:groupmode="layer"
     id="layer2"
     inkscape:label="ball"
     style="display:inline"
     sodipodi:insensitive="true">
    <path
       sodipodi:type="arc"
       style="fill:#000000;fill-opacity:1;fill-rule:nonzero;stroke:none;display:inline"
       id="path3166-9"
       sodipodi:cx="100.24984"
       sodipodi:cy="152.62418"
       sodipodi:rx="233.91629"
       sodipodi:ry="233.05945"
       d="m 334.16613,152.62418 a 233.91629,233.05945 0 1 1 -467.83258,0 233.91629,233.05945 0 1 1 467.83258,0 z"
       transform="matrix(0.77048874,0,0,0.75335793,167.04434,87.876513)" />
  </g>
  <g
     inkscape:groupmode="layer"
     id="layer5"
     inkscape:label="schrift"
     style="display:inline"
     sodipodi:insensitive="true">
    <text
       xml:space="preserve"
       style="font-size:28px;font-style:normal;font-variant:normal;font-weight:bold;font-stretch:normal;line-height:125%;letter-spacing:0px;word-spacing:0px;fill:#1e0000;fill-opacity:1;stroke:none;font-family:Ubuntu;-inkscape-font-specification:Ubuntu Bold"
       x="171.64975"
       y="55.175819"
       id="text4232"
       sodipodi:linespacing="125%"><tspan
         sodipodi:role="line"
         id="tspan4234"
         x="171.64975"
         y="55.175819">optimized</tspan></text>
    <text
       xml:space="preserve"
       style="font-size:28px;font-style:normal;font-variant:normal;font-weight:bold;font-stretch:normal;line-height:125%;letter-spacing:0px;word-spacing:0px;fill:#1e0000;fill-opacity:1;stroke:none;font-family:Ubuntu;-inkscape-font-specification:Ubuntu Bold"
       x="215.61101"
       y="89.637505"
       id="text4236"
       sodipodi:linespacing="125%"><tspan
         sodipodi:role="line"
         id="tspan4238"
         x="215.61101"
         y="89.637505">unit testing</tspan></text>
    <text
       xml:space="preserve"
       style="font-size:28px;font-style:normal;font-variant:normal;font-weight:bold;font-stretch:normal;line-height:125%;letter-spacing:0px;word-spacing:0px;fill:#1e0000;fill-opacity:1;stroke:none;font-family:Ubuntu;-inkscape-font-specification:Ubuntu Bold"
       x="76.300278"
       y="271.14697"
       id="text4240"
       sodipodi:linespacing="125%"><tspan
         sodipodi:role="line"
         id="tspan4242"
         x="76.300278"
         y="271.14697">transparent</tspan></text>
    <text
       xml:space="preserve"
       style="font-size:28px;font-style:normal;font-variant:normal;font-weight:bold;font-stretch:normal;line-height:125%;letter-spacing:0px;word-spacing:0px;fill:#1e0000;fill-opacity:1;stroke:none;font-family:Ubuntu;-inkscape-font-specification:Ubuntu Bold"
       x="70.73101"
       y="170.73883"
       id="text4244"
       sodipodi:linespacing="125%"><tspan
         sodipodi:role="line"
         id="tspan4246"
         x="70.73101"
         y="170.73883">usability</tspan></text>
    <text
       xml:space="preserve"
       style="font-size:28px;font-style:normal;font-variant:normal;font-weight:bold;font-stretch:normal;line-height:125%;letter-spacing:0px;word-spacing:0px;fill:#1e0000;fill-opacity:1;stroke:none;font-family:Ubuntu;-inkscape-font-specification:Ubuntu Bold"
       x="119.48682"
       y="96.101234"
       id="text4248"
       sodipodi:linespacing="125%"><tspan
         sodipodi:role="line"
         id="tspan4250"
         x="119.48682"
         y="96.101234">TIPC</tspan></text>
    <text
       xml:space="preserve"
       style="font-size:28px;font-style:normal;font-variant:normal;font-weight:bold;font-stretch:normal;line-height:125%;letter-spacing:0px;word-spacing:0px;fill:#1e0000;fill-opacity:1;stroke:none;font-family:Ubuntu;-inkscape-font-specification:Ubuntu Bold"
       x="295.60684"
       y="290.30396"
       id="text4252"
       sodipodi:linespacing="125%"><tspan
         sodipodi:role="line"
         id="tspan4254"
         x="295.60684"
         y="290.30396">events</tspan></text>
    <text
       xml:space="preserve"
       style="font-size:28px;font-style:normal;font-variant:normal;font-weight:bold;font-stretch:normal;line-height:125%;letter-spacing:0px;word-spacing:0px;fill:#1e0000;fill-opacity:1;stroke:none;font-family:Ubuntu;-inkscape-font-specification:Ubuntu Bold"
       x="96.599403"
       y="312.06079"
       id="text4256"
       sodipodi:linespacing="125%"><tspan
         sodipodi:role="line"
         id="tspan4258"
         x="96.599403"
         y="312.06079"
         style="font-size:40px;fill:#1e0000;fill-opacity:1">communication</tspan></text>
    <text
       xml:space="preserve"
       style="font-size:28px;font-style:normal;font-variant:normal;font-weight:bold;font-stretch:normal;line-height:125%;letter-spacing:0px;word-spacing:0px;fill:#1e0000;fill-opacity:1;stroke:none;font-family:Ubuntu;-inkscape-font-specification:Ubuntu Bold"
       x="64.745735"
       y="234.79277"
       id="text4260"
       sodipodi:linespacing="125%"><tspan
         sodipodi:role="line"
         id="tspan4262"
         x="64.745735"
         y="234.79277"
         style="font-size:40px;fill:#1e0000;fill-opacity:1">microcontroller</tspan></text>
    <text
       xml:space="preserve"
       style="font-size:20px;font-style:normal;font-variant:normal;font-weight:bold;font-stretch:normal;text-align:start;line-height:125%;letter-spacing:0px;word-spacing:0px;writing-mode:lr-tb;text-anchor:start;fill:#1e0000;fill-opacity:1;stroke:none;font-family:Ubuntu;-inkscape-font-specification:Ubuntu Bold"
       x="327.33487"
       y="214.70963"
       id="text4264"
       sodipodi:linespacing="125%"><tspan
         sodipodi:role="line"
         id="tspan4266"
         x="327.33487"
         y="214.70963">atmega</tspan></text>
    <text
       xml:space="preserve"
       style="font-size:28px;font-style:normal;font-variant:normal;font-weight:bold;font-stretch:normal;line-height:125%;letter-spacing:0px;word-spacing:0px;fill:#1e0000;fill-opacity:1;stroke:none;font-family:Ubuntu;-inkscape-font-specification:Ubuntu Bold"
       x="367.2894"
       y="233.94662"
       id="text4268"
       sodipodi:linespacing="125%"><tspan
         sodipodi:role="line"
         id="tspan4270"
         x="367.2894"
         y="233.94662">x86</tspan></text>
    <text
       xml:space="preserve"
       style="font-size:36px;font-style:normal;font-variant:normal;font-weight:bold;font-stretch:normal;text-align:start;line-height:125%;letter-spacing:0px;word-spacing:0px;writing-mode:lr-tb;text-anchor:start;fill:#1e0000;fill-opacity:1;stroke:none;font-family:Ubuntu;-inkscape-font-specification:Ubuntu Bold"
       x="265.42743"
       y="336.76935"
       id="text4272"
       sodipodi:linespacing="125%"><tspan
         sodipodi:role="line"
         id="tspan4274"
         x="265.42743"
         y="336.76935"
         style="font-size:36px;font-style:normal;font-variant:normal;font-weight:bold;font-stretch:normal;text-align:start;line-height:125%;writing-mode:lr-tb;text-anchor:start;fill:#1e0000;fill-opacity:1;font-family:Ubuntu;-inkscape-font-specification:Ubuntu Bold">robot</tspan></text>
    <text
       xml:space="preserve"
       style="font-size:32px;font-style:normal;font-variant:normal;font-weight:bold;font-stretch:normal;text-align:start;line-height:125%;letter-spacing:0px;word-spacing:0px;writing-mode:lr-tb;text-anchor:start;fill:#1e0000;fill-opacity:1;stroke:none;font-family:Ubuntu;-inkscape-font-specification:Ubuntu Bold"
       x="187.85921"
       y="369.62717"
       id="text4276"
       sodipodi:linespacing="125%"><tspan
         sodipodi:role="line"
         id="tspan4278"
         x="187.85921"
         y="369.62717">aachen</tspan></text>
    <text
       xml:space="preserve"
       style="font-size:28px;font-style:normal;font-variant:normal;font-weight:bold;font-stretch:normal;line-height:125%;letter-spacing:0px;word-spacing:0px;fill:#1e0000;fill-opacity:1;stroke:none;font-family:Ubuntu;-inkscape-font-specification:Ubuntu Bold"
       x="186.48027"
       y="200.10123"
       id="text4280"
       sodipodi:linespacing="125%"><tspan
         sodipodi:role="line"
         id="tspan4282"
         x="186.48027"
         y="200.10123"
         style="font-size:40px;fill:#1e0000;fill-opacity:1">eurobot</tspan></text>
    <text
       xml:space="preserve"
       style="font-size:28px;font-style:normal;font-variant:normal;font-weight:bold;font-stretch:normal;line-height:125%;letter-spacing:0px;word-spacing:0px;fill:#1e0000;fill-opacity:1;stroke:none;font-family:Ubuntu;-inkscape-font-specification:Ubuntu Bold"
       x="149.29129"
       y="352.18094"
       id="text4284"
       sodipodi:linespacing="125%"><tspan
         sodipodi:role="line"
         id="tspan4286"
         x="149.29129"
         y="352.18094">roboterclub</tspan></text>
    <text
       xml:space="preserve"
       style="font-size:28px;font-style:normal;font-variant:normal;font-weight:bold;font-stretch:normal;line-height:125%;letter-spacing:0px;word-spacing:0px;fill:#1e0000;fill-opacity:1;stroke:none;font-family:Ubuntu;-inkscape-font-specification:Ubuntu Bold"
       x="64.349304"
       y="211.05818"
       id="text4288"
       sodipodi:linespacing="125%"><tspan
         sodipodi:role="line"
         id="tspan4290"
         x="64.349304"
         y="211.05818">alogrithms</tspan></text>
    <text
       xml:space="preserve"
       style="font-size:28px;font-style:normal;font-variant:normal;font-weight:bold;font-stretch:normal;line-height:125%;letter-spacing:0px;word-spacing:0px;fill:#1e0000;fill-opacity:1;stroke:none;font-family:Ubuntu;-inkscape-font-specification:Ubuntu Bold"
       x="239.98145"
       y="273.79547"
       id="text4292"
       sodipodi:linespacing="125%"><tspan
         sodipodi:role="line"
         id="tspan4294"
         x="239.98145"
         y="273.79547">actions</tspan></text>
    <text
       xml:space="preserve"
       style="font-size:28px;font-style:normal;font-variant:normal;font-weight:bold;font-stretch:normal;line-height:125%;letter-spacing:0px;word-spacing:0px;fill:#1e0000;fill-opacity:1;stroke:none;font-family:Ubuntu;-inkscape-font-specification:Ubuntu Bold"
       x="72.643158"
       y="254.20215"
       id="text4296"
       sodipodi:linespacing="125%"><tspan
         sodipodi:role="line"
         id="tspan4298"
         x="72.643158"
         y="254.20215">artifical</tspan></text>
    <text
       xml:space="preserve"
       style="font-size:28px;font-style:normal;font-variant:normal;font-weight:bold;font-stretch:normal;line-height:125%;letter-spacing:0px;word-spacing:0px;fill:#1e0000;fill-opacity:1;stroke:none;font-family:Ubuntu;-inkscape-font-specification:Ubuntu Bold"
       x="154.75198"
       y="79.653481"
       id="text4300"
       sodipodi:linespacing="125%"><tspan
         sodipodi:role="line"
         id="tspan4302"
         x="154.75198"
         y="79.653481"
         style="font-size:40px;fill:#1e0000;fill-opacity:1">behaviour</tspan></text>
    <text
       xml:space="preserve"
       style="font-size:28px;font-style:normal;font-variant:normal;font-weight:bold;font-stretch:normal;line-height:125%;letter-spacing:0px;word-spacing:0px;fill:#1e0000;fill-opacity:1;stroke:none;font-family:Ubuntu;-inkscape-font-specification:Ubuntu Bold"
       x="84.796654"
       y="289.336"
       id="text4304"
       sodipodi:linespacing="125%"><tspan
         sodipodi:role="line"
         id="tspan4306"
         x="84.796654"
         y="289.336">cross platform</tspan></text>
    <text
       xml:space="preserve"
       style="font-size:28px;font-style:normal;font-variant:normal;font-weight:bold;font-stretch:normal;line-height:125%;letter-spacing:0px;word-spacing:0px;fill:#1e0000;fill-opacity:1;stroke:none;font-family:Ubuntu;-inkscape-font-specification:Ubuntu Bold"
       x="183.53621"
       y="255.47031"
       id="text4308"
       sodipodi:linespacing="125%"><tspan
         sodipodi:role="line"
         id="tspan4310"
         x="183.53621"
         y="255.47031"
         style="font-size:40px;fill:#1e0000;fill-opacity:1">components</tspan></text>
    <text
       xml:space="preserve"
       style="font-size:28px;font-style:normal;font-variant:normal;font-weight:bold;font-stretch:normal;line-height:125%;letter-spacing:0px;word-spacing:0px;fill:#1e0000;fill-opacity:1;stroke:none;font-family:Ubuntu;-inkscape-font-specification:Ubuntu Bold"
       x="119.69416"
       y="330.9267"
       id="text4312"
       sodipodi:linespacing="125%"><tspan
         sodipodi:role="line"
         id="tspan4314"
         x="119.69416"
         y="330.9267">autonmous</tspan></text>
    <flowRoot
       xml:space="preserve"
       id="flowRoot4316"
       style="font-size:28px;font-style:normal;font-variant:normal;font-weight:normal;font-stretch:normal;line-height:125%;letter-spacing:0px;word-spacing:0px;fill:#1e0000;fill-opacity:1;stroke:none;font-family:Ubuntu;-inkscape-font-specification:Ubuntu"><flowRegion
         id="flowRegion4318"><rect
           id="rect4320"
           width="777.14288"
           height="1161.4286"
           x="50"
           y="-315.71429"
           style="fill:#1e0000;fill-opacity:1" /></flowRegion><flowPara
         id="flowPara4322" /></flowRoot>    <text
       xml:space="preserve"
       style="font-size:28px;font-style:normal;font-variant:normal;font-weight:bold;font-stretch:normal;text-align:start;line-height:125%;letter-spacing:0px;word-spacing:0px;writing-mode:lr-tb;text-anchor:start;fill:#1e0000;fill-opacity:1;stroke:none;font-family:Ubuntu;-inkscape-font-specification:Ubuntu Bold"
       x="283.57144"
       y="171.85715"
       id="text4324"
       sodipodi:linespacing="125%"><tspan
         sodipodi:role="line"
         id="tspan4326"
         x="283.57144"
         y="171.85715"
         style="font-size:28px;font-style:normal;font-variant:normal;font-weight:bold;font-stretch:normal;text-align:start;line-height:125%;writing-mode:lr-tb;text-anchor:start;fill:#1e0000;fill-opacity:1;font-family:Ubuntu;-inkscape-font-specification:Ubuntu Bold">simplicity</tspan></text>
    <text
       xml:space="preserve"
       style="font-size:28px;font-style:normal;font-variant:normal;font-weight:bold;font-stretch:normal;text-align:start;line-height:125%;letter-spacing:0px;word-spacing:0px;writing-mode:lr-tb;text-anchor:start;fill:#1e0000;fill-opacity:1;stroke:none;font-family:Ubuntu;-inkscape-font-specification:Ubuntu Bold"
       x="100.71429"
       y="112.71428"
       id="text4328"
       sodipodi:linespacing="125%"><tspan
         sodipodi:role="line"
         id="tspan4330"
         x="100.71429"
         y="112.71428">flexibility</tspan></text>
    <text
       xml:space="preserve"
       style="font-size:28px;font-style:normal;font-variant:normal;font-weight:bold;font-stretch:normal;text-align:start;line-height:125%;letter-spacing:0px;word-spacing:0px;writing-mode:lr-tb;text-anchor:start;fill:#1e0000;fill-opacity:1;stroke:none;font-family:Ubuntu;-inkscape-font-specification:Ubuntu Bold"
       x="90.714272"
       y="130.57143"
       id="text4332"
       sodipodi:linespacing="125%"><tspan
         sodipodi:role="line"
         id="tspan4334"
         x="90.714272"
         y="130.57143">procedure calls</tspan></text>
    <text
       xml:space="preserve"
       style="font-size:20px;font-style:normal;font-variant:normal;font-weight:bold;font-stretch:normal;text-align:start;line-height:125%;letter-spacing:0px;word-spacing:0px;writing-mode:lr-tb;text-anchor:start;fill:#1e0000;fill-opacity:1;stroke:none;font-family:Ubuntu;-inkscape-font-specification:Ubuntu Bold"
       x="64.142853"
       y="190.71429"
       id="text4336"
       sodipodi:linespacing="125%"><tspan
         sodipodi:role="line"
         id="tspan4338"
         x="64.142853"
         y="190.71429">debugging</tspan></text>
    <text
       xml:space="preserve"
       style="font-size:28px;font-style:normal;font-variant:normal;font-weight:bold;font-stretch:normal;text-align:start;line-height:125%;letter-spacing:0px;word-spacing:0px;writing-mode:lr-tb;text-anchor:start;fill:#1e0000;fill-opacity:1;stroke:none;font-family:Ubuntu;-inkscape-font-specification:Ubuntu Bold"
       x="80.714256"
       y="149.28572"
       id="text4340"
       sodipodi:linespacing="125%"><tspan
         sodipodi:role="line"
         id="tspan4342"
         x="80.714256"
         y="149.28572">stl container</tspan></text>
    <text
       xml:space="preserve"
       style="font-size:28px;font-style:normal;font-variant:normal;font-weight:bold;font-stretch:normal;text-align:start;line-height:125%;letter-spacing:0px;word-spacing:0px;writing-mode:lr-tb;text-anchor:start;fill:#1e0000;fill-opacity:1;stroke:none;font-family:Ubuntu;-inkscape-font-specification:Ubuntu Bold"
       x="355.85712"
       y="273.57141"
       id="text4344"
       sodipodi:linespacing="125%"><tspan
         sodipodi:role="line"
         id="tspan4346"
         x="355.85712"
         y="273.57141">C++</tspan></text>
    <text
       xml:space="preserve"
       style="font-size:28px;font-style:normal;font-variant:normal;font-weight:normal;font-stretch:normal;line-height:125%;letter-spacing:0px;word-spacing:0px;fill:#1e0000;fill-opacity:1;stroke:none;font-family:Ubuntu;-inkscape-font-specification:Ubuntu"
       x="184.85713"
       y="173.57143"
       id="text4348"
       sodipodi:linespacing="125%"><tspan
         sodipodi:role="line"
         id="tspan4350"
         x="184.85713"
         y="173.57143"
         style="font-size:28px;font-style:normal;font-variant:normal;font-weight:bold;font-stretch:normal;text-align:start;line-height:125%;writing-mode:lr-tb;text-anchor:start;fill:#1e0000;fill-opacity:1;font-family:Ubuntu;-inkscape-font-specification:Ubuntu Bold">atmega</tspan></text>
    <text
       xml:space="preserve"
       style="font-size:28px;font-style:normal;font-variant:normal;font-weight:bold;font-stretch:normal;line-height:125%;letter-spacing:0px;word-spacing:0px;fill:#1e0000;fill-opacity:1;stroke:none;font-family:Ubuntu;-inkscape-font-specification:Sans Bold"
       x="234.28572"
       y="107.14286"
       id="text4352"
       sodipodi:linespacing="125%"><tspan
         sodipodi:role="line"
         id="tspan4354"
         x="234.28572"
         y="107.14286">hardware</tspan></text>
    <text
       xml:space="preserve"
       style="font-size:28px;font-style:normal;font-variant:normal;font-weight:bold;font-stretch:normal;line-height:125%;letter-spacing:0px;word-spacing:0px;fill:#1e0000;fill-opacity:1;stroke:none;font-family:Ubuntu;-inkscape-font-specification:Sans Bold"
       x="255"
       y="153"
       id="text4356"
       sodipodi:linespacing="125%"><tspan
         sodipodi:role="line"
         id="tspan4358"
         x="255"
         y="153">framework</tspan></text>
    <text
       xml:space="preserve"
       style="font-size:28px;font-style:normal;font-variant:normal;font-weight:bold;font-stretch:normal;line-height:125%;letter-spacing:0px;word-spacing:0px;fill:#1e0000;fill-opacity:1;stroke:none;font-family:Ubuntu;-inkscape-font-specification:Sans Bold"
       x="342.57147"
       y="201.42857"
       id="text4360"
       sodipodi:linespacing="125%"><tspan
         sodipodi:role="line"
         id="tspan4362"
         x="342.57147"
         y="201.42857"
         style="font-size:40px;font-style:normal;font-variant:normal;font-weight:bold;font-stretch:normal;text-align:start;line-height:125%;writing-mode:lr-tb;text-anchor:start;fill:#1e0000;fill-opacity:1;font-family:Ubuntu;-inkscape-font-specification:Ubuntu Bold">RCA</tspan></text>
    <text
       xml:space="preserve"
       style="font-size:40px;font-style:normal;font-variant:normal;font-weight:bold;font-stretch:normal;text-align:start;line-height:125%;letter-spacing:0px;word-spacing:0px;writing-mode:lr-tb;text-anchor:start;fill:#1e0000;fill-opacity:1;stroke:none;font-family:Ubuntu;-inkscape-font-specification:Ubuntu Bold"
       x="300"
       y="134.28571"
       id="text4364"
       sodipodi:linespacing="125%"><tspan
         sodipodi:role="line"
         id="tspan4366"
         x="300"
         y="134.28571"
         style="font-size:40px;font-style:normal;font-variant:normal;font-weight:bold;font-stretch:normal;text-align:start;line-height:125%;writing-mode:lr-tb;text-anchor:start;fill:#1e0000;fill-opacity:1;font-family:Ubuntu;-inkscape-font-specification:Ubuntu Bold">CAN</tspan></text>
  </g>
  <g
     inkscape:label="logo"
     inkscape:groupmode="layer"
     id="layer1"
     transform="translate(0,-652.36218)"
     style="display:inline">
    <path
       sodipodi:type="inkscape:offset"
       inkscape:radius="9.3150578"
       inkscape:original="M 323.875 689.25 C 315.13494 689.25012 307.17536 690.84262 299.96875 694.0625 C 292.91538 697.12928 286.93788 701.51428 282.03125 707.1875 C 277.12456 712.7076 273.29123 719.30218 270.53125 726.96875 C 267.92457 734.63549 266.62499 743.05007 266.625 752.25 C 266.62499 761.45005 267.8279 769.89588 270.28125 777.5625 C 272.73457 785.07586 276.43706 791.60502 281.34375 797.125 C 286.40372 802.64501 292.5433 806.93334 299.75 810 C 307.10995 813.06667 315.58994 814.59375 325.25 814.59375 C 328.31659 814.59375 331.46742 814.36625 334.6875 813.90625 C 338.06075 813.59958 341.21158 813.14458 344.125 812.53125 C 347.03824 812.07125 349.63741 811.51958 351.9375 810.90625 C 354.2374 810.13959 356.02323 809.39167 357.25 808.625 L 354.25 790.65625 C 351.64324 791.88294 348.03741 793.05169 343.4375 794.125 C 338.83742 795.19835 333.7045 795.71877 328.03125 795.71875 C 320.97785 795.71877 315.00036 794.74335 310.09375 792.75 C 305.18703 790.60335 301.1262 787.61461 297.90625 783.78125 C 294.83954 779.94795 292.5333 775.33545 291 769.96875 C 289.61997 764.60213 288.93747 758.69005 288.9375 752.25 C 288.93747 737.83674 292.05705 726.88842 298.34375 719.375 C 304.7837 711.86177 314.00869 708.09385 325.96875 708.09375 C 330.72201 708.09385 335.14117 708.54885 339.28125 709.46875 C 343.57449 710.38885 347.34241 711.62302 350.5625 713.15625 L 355.40625 695 C 350.49949 693.00679 345.36658 691.54512 340 690.625 C 334.63325 689.70512 329.24159 689.25012 323.875 689.25 z M 412.40625 698.125 C 403.66619 698.12512 395.67536 699.74887 388.46875 702.96875 C 381.41538 706.03553 375.43788 710.38928 370.53125 716.0625 C 365.62456 721.5826 361.79123 728.17718 359.03125 735.84375 C 356.42457 743.51049 355.12499 751.95632 355.125 761.15625 C 355.12499 770.3563 356.35915 778.80213 358.8125 786.46875 C 361.26582 793.98211 364.93706 800.48002 369.84375 806 C 374.90372 811.52001 381.0433 815.80834 388.25 818.875 C 395.60995 821.94167 404.12119 823.5 413.78125 823.5 C 416.84784 823.5 419.99867 823.24125 423.21875 822.78125 C 426.592 822.47458 429.71158 822.01958 432.625 821.40625 C 435.53824 820.94625 438.16866 820.42583 440.46875 819.8125 C 442.76865 819.04584 444.52323 818.26667 445.75 817.5 L 442.75 799.5625 C 440.14324 800.78919 436.53741 801.92669 431.9375 803 C 427.33742 804.07335 422.2045 804.62502 416.53125 804.625 C 409.47785 804.62502 403.50036 803.61835 398.59375 801.625 C 393.68703 799.47835 389.6262 796.48961 386.40625 792.65625 C 383.33954 788.82295 381.0333 784.2417 379.5 778.875 C 378.11997 773.50838 377.43747 767.5963 377.4375 761.15625 C 377.43747 746.74299 380.5883 735.76342 386.875 728.25 C 393.31495 720.73677 402.50869 717.0001 414.46875 717 C 419.22201 717.0001 423.67242 717.4551 427.8125 718.375 C 432.10574 719.2951 435.87366 720.52927 439.09375 722.0625 L 443.90625 703.875 C 438.99949 701.88179 433.86658 700.42012 428.5 699.5 C 423.13325 698.58012 417.77284 698.12512 412.40625 698.125 z M 44.21875 714.71875 L 83.78125 771.53125 C 76.421212 781.34464 68.982053 791.70713 61.46875 802.59375 C 54.108735 813.3271 47.741658 823.88584 42.375 834.3125 L 64.46875 834.3125 C 66.155389 831.0925 68.234137 827.42126 70.6875 823.28125 C 73.140799 819.14127 75.739963 814.91835 78.5 810.625 C 81.413291 806.17836 84.402038 801.82462 87.46875 797.53125 C 90.535365 793.08462 93.524112 788.92713 96.4375 785.09375 C 99.350773 788.92713 102.33952 792.98796 105.40625 797.28125 C 108.47285 801.57462 111.46159 805.95961 114.375 810.40625 C 117.28825 814.6996 119.98409 818.92252 122.4375 823.0625 C 124.89075 827.20251 126.93825 830.93917 128.625 834.3125 L 152.09375 834.3125 C 146.72698 823.73251 140.1324 812.94627 132.3125 801.90625 C 124.64575 790.71296 117.14117 780.12297 109.78125 770.15625 L 148.40625 714.71875 L 125.65625 714.71875 L 96.90625 756.59375 L 68.375 714.71875 L 44.21875 714.71875 z M 202.90625 723.875 C 192.93953 723.87512 184.13537 724.65429 176.46875 726.1875 C 168.95539 727.56762 162.65373 728.8672 157.59375 730.09375 L 157.59375 888.5625 L 179 888.5625 L 179 840.71875 C 181.60662 842.40542 185.50537 844.16 190.71875 846 C 196.08536 847.84 202.22494 848.75 209.125 848.75 C 217.71159 848.75 225.31283 847.22292 231.90625 844.15625 C 238.65282 841.08959 244.30614 836.80126 248.90625 831.28125 C 253.50614 825.76127 256.94988 819.16669 259.25 811.5 C 261.70321 803.83338 262.93738 795.48422 262.9375 786.4375 C 262.93738 776.77757 261.47571 768.10424 258.5625 760.4375 C 255.80238 752.61759 251.83822 746.02302 246.625 740.65625 C 241.41156 735.28969 235.1099 731.16345 227.75 728.25 C 220.38992 725.33679 212.10618 723.87512 202.90625 723.875 z M 202.6875 742.96875 C 214.18743 742.96885 223.38117 746.70552 230.28125 754.21875 C 237.18115 761.73217 240.6249 772.48424 240.625 786.4375 C 240.6249 792.57089 240.00782 798.32088 238.78125 803.6875 C 237.55448 808.90087 235.5724 813.48212 232.8125 817.46875 C 230.05241 821.30211 226.44658 824.38752 222 826.6875 C 217.70659 828.83418 212.50826 829.90627 206.375 829.90625 C 200.54827 829.90627 195.15661 828.8996 190.25 826.90625 C 185.34329 824.91294 181.60662 822.86544 179 820.71875 L 179 745.25 C 181.14662 744.63677 183.97329 744.11635 187.5 743.65625 C 191.17995 743.19635 196.24744 742.96885 202.6875 742.96875 z "
       xlink:href="#text3155"
       style="font-size:20.259655px;font-style:normal;font-variant:normal;font-weight:bold;font-stretch:normal;line-height:125%;letter-spacing:0px;word-spacing:0px;fill:#000000;fill-opacity:1;stroke:none;font-family:Ubuntu;-inkscape-font-specification:Ubuntu Bold"
       id="path3949"
       inkscape:href="#text3155"
       d="m 326.15625,679.9375 c -9.83666,1.4e-4 -19.17653,1.82164 -27.65625,5.59375 -0.03,0.0134 -0.0637,0.0178 -0.0937,0.0312 -8.19364,3.57805 -15.32589,8.79391 -21.09375,15.4375 -0.0244,0.0281 -0.0382,0.0656 -0.0625,0.0937 -5.71737,6.45538 -10.11779,14.10502 -13.21875,22.71875 a 9.3159893,9.3159893 0 0 0 -0.0625,0.15625 c -1.83943,5.41011 -3.00284,11.1243 -3.6875,17.0625 -1.72589,-2.42392 -3.56652,-4.75589 -5.625,-6.875 -6.15174,-6.33241 -13.61876,-11.20764 -22.09375,-14.5625 -8.59258,-3.40105 -18.09475,-5.03112 -28.28125,-5.03125 -10.40256,1.3e-4 -19.76572,0.80092 -28.15625,2.46875 -0.04,0.008 -0.0851,0.0233 -0.125,0.0312 -7.56415,1.39137 -13.9451,2.69041 -19.21875,3.96875 a 9.3159893,9.3159893 0 0 0 -1.25,0.40625 l 1,-1.40625 a 9.3159893,9.3159893 0 0 0 -7.65625,-14.625 l -22.78125,0 a 9.3159893,9.3159893 0 0 0 -7.6875,4.03125 L 97.375,740.09375 76.53125,709.46875 a 9.3159893,9.3159893 0 0 0 -7.6875,-4.0625 l -24.15625,0 a 9.3159893,9.3159893 0 0 0 -7.65625,14.625 l 35.8125,51.4375 c -6.1494,8.32887 -12.321376,16.80049 -18.5625,25.84375 a 9.3159893,9.3159893 0 0 0 -0.03125,0 c -7.554352,11.01676 -14.119919,21.93297 -19.6875,32.75 a 9.3159893,9.3159893 0 0 0 8.28125,13.5625 l 22.09375,0 a 9.3159893,9.3159893 0 0 0 8.25,-5 c 1.599215,-3.0531 3.556621,-6.57606 5.9375,-10.59375 2.366807,-3.99402 4.929343,-8.11777 7.625,-12.3125 0.01592,-0.0243 0.04658,-0.0382 0.0625,-0.0625 2.825232,-4.30998 5.736254,-8.54328 8.71875,-12.71875 a 9.3159893,9.3159893 0 0 0 0.0625,-0.125 c 0.47316,-0.68609 0.906497,-1.23564 1.375,-1.90625 0.446105,0.61914 0.862713,1.15157 1.3125,1.78125 2.98683,4.18168 5.92981,8.46044 8.78125,12.8125 a 9.3159893,9.3159893 0 0 0 0.0625,0.125 c 2.80154,4.12872 5.38827,8.20224 7.75,12.1875 2.37656,4.0106 4.32676,7.55994 5.875,10.65625 a 9.3159893,9.3159893 0 0 0 8.34375,5.15625 l 20.5625,0 0,44.9375 a 9.3159893,9.3159893 0 0 0 9.3125,9.3125 l 21.375,0 a 9.3159893,9.3159893 0 0 0 9.3125,-9.3125 l 0,-33.59375 c 6.37183,2.10368 13.31815,3.09375 20.8125,3.09375 9.65506,0 18.64371,-1.74344 26.625,-5.4375 0.0298,-0.0136 0.064,-0.0177 0.0937,-0.0312 7.89272,-3.60302 14.77336,-8.77192 20.25,-15.34375 5.43775,-6.52544 9.44828,-14.26242 12.0625,-22.90625 0.0164,-0.0543 0.0462,-0.10185 0.0625,-0.15625 1.58683,-4.99478 2.62194,-10.24303 3.28125,-15.65625 1.18976,1.64687 2.4304,3.26156 3.78125,4.78125 a 9.3159893,9.3159893 0 0 0 0.0937,0.0937 c 5.97233,6.51532 13.2933,11.61087 21.625,15.15625 a 9.3159893,9.3159893 0 0 0 0.0625,0.0312 c 8.70003,3.62504 18.48325,5.3125 29.125,5.3125 3.37311,0 6.78537,-0.27573 10.25,-0.75 l 0,0.0312 c 0.13181,-0.012 0.24364,-0.0501 0.375,-0.0625 0.0321,-0.003 0.0617,0.003 0.0937,0 3.3375,-0.3183 6.51561,-0.78397 9.5625,-1.40625 0.14906,-0.0304 0.32038,-0.0313 0.46875,-0.0625 l 0,-0.0312 c 3.00328,-0.48978 5.80898,-1.05118 8.3125,-1.71875 A 9.3159893,9.3159893 0 0 0 357.125,819.75 c 2.65175,-0.88395 4.94928,-1.74185 7.3125,-3.21875 a 9.3159893,9.3159893 0 0 0 2.96875,-3 c 5.73761,5.89575 12.57443,10.60018 20.34375,13.90625 a 9.3159893,9.3159893 0 0 0 0.0625,0.0312 c 8.6793,3.6164 18.46316,5.34375 29.125,5.34375 3.43411,0 6.8584,-0.31004 10.28125,-0.78125 l 0,0.0312 c 0.13238,-0.012 0.24314,-0.05 0.375,-0.0625 0.0322,-0.003 0.0616,0.003 0.0937,0 3.33897,-0.31881 6.49791,-0.78631 9.53125,-1.40625 0.14888,-0.0304 0.32053,-0.0313 0.46875,-0.0625 l 0,-0.0312 c 2.94185,-0.47562 5.74857,-0.99549 8.34375,-1.6875 a 9.3159893,9.3159893 0 0 0 0.53125,-0.15625 c 2.74781,-0.91597 5.07479,-1.87107 7.28125,-3.25 a 9.3159893,9.3159893 0 0 0 4.25,-9.4375 l -3,-17.9375 A 9.3159893,9.3159893 0 0 0 441.9375,791.125 c -1.61968,0.76219 -4.73808,1.82535 -8.96875,2.8125 -3.79464,0.88541 -8.21189,1.37502 -13.28125,1.375 -6.11987,2e-5 -10.87472,-0.88779 -14.34375,-2.28125 -3.61209,-1.60108 -6.33341,-3.65766 -8.5625,-6.28125 -2.17863,-2.74715 -3.89918,-6.09584 -5.125,-10.34375 -0.01,-0.0342 -0.0215,-0.0595 -0.0312,-0.0937 -1.1148,-4.42952 -1.71878,-9.47566 -1.71875,-15.15625 -3e-5,-13.04013 2.8866,-21.64171 7.28125,-26.90625 0.005,-0.006 -0.005,-0.025 0,-0.0312 4.56993,-5.27683 10.4823,-7.90617 20.4375,-7.90625 4.15893,9e-5 7.91735,0.40187 11.3125,1.15625 a 9.3159893,9.3159893 0 0 0 0.0937,0 c 3.7163,0.79645 6.7934,1.84518 9.21875,3 a 9.3159893,9.3159893 0 0 0 13,-6.03125 l 4.8125,-18.1875 a 9.3159893,9.3159893 0 0 0 -5.5,-11 c -5.5342,-2.24809 -11.33277,-3.90689 -17.34375,-4.9375 -5.88061,-1.00796 -11.76329,-1.49987 -17.65625,-1.5 -9.85878,1.4e-4 -19.19682,1.86167 -27.65625,5.625 -0.03,0.0133 -0.0638,0.0179 -0.0937,0.0312 -8.17266,3.56871 -15.315,8.75045 -21.09375,15.40625 -0.0244,0.0281 -0.0381,0.0656 -0.0625,0.0937 -2.01215,2.27188 -3.81189,4.72166 -5.5,7.28125 a 9.3159893,9.3159893 0 0 0 0.65625,-1.6875 l 4.84375,-18.15625 a 9.3159893,9.3159893 0 0 0 -5.5,-11.03125 c -5.5342,-2.24809 -11.33277,-3.90689 -17.34375,-4.9375 -5.88061,-1.00796 -11.76329,-1.49987 -17.65625,-1.5 z m 2.0625,37.46875 c 4.15893,9e-5 7.91735,0.40187 11.3125,1.15625 a 9.3159893,9.3159893 0 0 0 0.0937,0 c 3.70724,0.79451 6.74103,1.83513 9.1875,3 A 9.3159893,9.3159893 0 0 0 360.03125,719 c -2.60957,4.23578 -4.83033,8.78915 -6.59375,13.6875 a 9.3159893,9.3159893 0 0 0 -0.0625,0.15625 c -2.97409,8.74736 -4.40626,18.23534 -4.40625,28.3125 -10e-6,7.51391 0.76405,14.68872 2.3125,21.46875 -1.77706,0.73737 -4.11259,1.59606 -7.71875,2.4375 -3.75568,0.87632 -8.17768,1.34377 -13.28125,1.34375 -6.1469,2e-5 -10.90543,-0.86941 -14.34375,-2.25 -3.61209,-1.60108 -6.33341,-3.65766 -8.5625,-6.28125 -2.16406,-2.72951 -3.89647,-6.11739 -5.125,-10.375 -0.01,-0.034 -0.0215,-0.0596 -0.0312,-0.0937 -1.1148,-4.42952 -1.71878,-9.47566 -1.71875,-15.15625 -3e-5,-13.04013 2.87849,-21.60085 7.28125,-26.875 0.005,-0.006 -0.005,-0.025 0,-0.0312 4.57818,-5.28661 10.49842,-7.93742 20.4375,-7.9375 z m -178.5625,12.5 a 9.3159893,9.3159893 0 0 0 0,0.1875 l 0,80.5 c -2.89942,-4.62058 -5.87573,-9.25717 -9.1875,-13.9375 -0.0307,-0.0448 -0.0631,-0.0802 -0.0937,-0.125 -6.36593,-9.2917 -12.58022,-17.93037 -18.75,-26.40625 l 28.03125,-40.21875 z m 54.375,22.375 c 9.48213,8e-5 15.60693,2.64992 20.75,8.25 4.94968,5.3898 7.90616,13.48563 7.90625,25.90625 -9e-5,5.50869 -0.56924,10.56823 -1.625,15.1875 -0.97933,4.12812 -2.44544,7.49455 -4.4375,10.40625 -0.0285,0.0417 -0.065,0.0835 -0.0937,0.125 -1.85618,2.53892 -4.17942,4.54498 -7.3125,6.1875 -0.0436,0.0228 -0.0811,0.0398 -0.125,0.0625 -2.68839,1.31789 -6.39522,2.18752 -11.375,2.1875 -4.75382,2e-5 -8.86575,-0.79797 -12.59375,-2.3125 -2.1682,-0.88081 -3.99066,-1.75521 -5.46875,-2.5625 l 0,-62.71875 c 0.16787,-0.0229 0.20285,-0.0711 0.375,-0.0937 0.0134,-0.002 0.049,0.002 0.0625,0 3.01935,-0.37417 7.74445,-0.6249 13.9375,-0.625 z" />
    <path
       sodipodi:type="inkscape:offset"
       inkscape:radius="0"
       inkscape:original="M 323.875 689.25 C 315.13494 689.25012 307.17536 690.84262 299.96875 694.0625 C 292.91538 697.12928 286.93788 701.51428 282.03125 707.1875 C 277.12456 712.7076 273.29123 719.30218 270.53125 726.96875 C 267.92457 734.63549 266.62499 743.05007 266.625 752.25 C 266.62499 761.45005 267.8279 769.89588 270.28125 777.5625 C 272.73457 785.07586 276.43706 791.60502 281.34375 797.125 C 286.40372 802.64501 292.5433 806.93334 299.75 810 C 307.10995 813.06667 315.58994 814.59375 325.25 814.59375 C 328.31659 814.59375 331.46742 814.36625 334.6875 813.90625 C 338.06075 813.59958 341.21158 813.14458 344.125 812.53125 C 347.03824 812.07125 349.63741 811.51958 351.9375 810.90625 C 354.2374 810.13959 356.02323 809.39167 357.25 808.625 L 354.25 790.65625 C 351.64324 791.88294 348.03741 793.05169 343.4375 794.125 C 338.83742 795.19835 333.7045 795.71877 328.03125 795.71875 C 320.97785 795.71877 315.00036 794.74335 310.09375 792.75 C 305.18703 790.60335 301.1262 787.61461 297.90625 783.78125 C 294.83954 779.94795 292.5333 775.33545 291 769.96875 C 289.61997 764.60213 288.93747 758.69005 288.9375 752.25 C 288.93747 737.83674 292.05705 726.88842 298.34375 719.375 C 304.7837 711.86177 314.00869 708.09385 325.96875 708.09375 C 330.72201 708.09385 335.14117 708.54885 339.28125 709.46875 C 343.57449 710.38885 347.34241 711.62302 350.5625 713.15625 L 355.40625 695 C 350.49949 693.00679 345.36658 691.54512 340 690.625 C 334.63325 689.70512 329.24159 689.25012 323.875 689.25 z M 412.40625 698.125 C 403.66619 698.12512 395.67536 699.74887 388.46875 702.96875 C 381.41538 706.03553 375.43788 710.38928 370.53125 716.0625 C 365.62456 721.5826 361.79123 728.17718 359.03125 735.84375 C 356.42457 743.51049 355.12499 751.95632 355.125 761.15625 C 355.12499 770.3563 356.35915 778.80213 358.8125 786.46875 C 361.26582 793.98211 364.93706 800.48002 369.84375 806 C 374.90372 811.52001 381.0433 815.80834 388.25 818.875 C 395.60995 821.94167 404.12119 823.5 413.78125 823.5 C 416.84784 823.5 419.99867 823.24125 423.21875 822.78125 C 426.592 822.47458 429.71158 822.01958 432.625 821.40625 C 435.53824 820.94625 438.16866 820.42583 440.46875 819.8125 C 442.76865 819.04584 444.52323 818.26667 445.75 817.5 L 442.75 799.5625 C 440.14324 800.78919 436.53741 801.92669 431.9375 803 C 427.33742 804.07335 422.2045 804.62502 416.53125 804.625 C 409.47785 804.62502 403.50036 803.61835 398.59375 801.625 C 393.68703 799.47835 389.6262 796.48961 386.40625 792.65625 C 383.33954 788.82295 381.0333 784.2417 379.5 778.875 C 378.11997 773.50838 377.43747 767.5963 377.4375 761.15625 C 377.43747 746.74299 380.5883 735.76342 386.875 728.25 C 393.31495 720.73677 402.50869 717.0001 414.46875 717 C 419.22201 717.0001 423.67242 717.4551 427.8125 718.375 C 432.10574 719.2951 435.87366 720.52927 439.09375 722.0625 L 443.90625 703.875 C 438.99949 701.88179 433.86658 700.42012 428.5 699.5 C 423.13325 698.58012 417.77284 698.12512 412.40625 698.125 z M 44.21875 714.71875 L 83.78125 771.53125 C 76.421212 781.34464 68.982053 791.70713 61.46875 802.59375 C 54.108735 813.3271 47.741658 823.88584 42.375 834.3125 L 64.46875 834.3125 C 66.155389 831.0925 68.234137 827.42126 70.6875 823.28125 C 73.140799 819.14127 75.739963 814.91835 78.5 810.625 C 81.413291 806.17836 84.402038 801.82462 87.46875 797.53125 C 90.535365 793.08462 93.524112 788.92713 96.4375 785.09375 C 99.350773 788.92713 102.33952 792.98796 105.40625 797.28125 C 108.47285 801.57462 111.46159 805.95961 114.375 810.40625 C 117.28825 814.6996 119.98409 818.92252 122.4375 823.0625 C 124.89075 827.20251 126.93825 830.93917 128.625 834.3125 L 152.09375 834.3125 C 146.72698 823.73251 140.1324 812.94627 132.3125 801.90625 C 124.64575 790.71296 117.14117 780.12297 109.78125 770.15625 L 148.40625 714.71875 L 125.65625 714.71875 L 96.90625 756.59375 L 68.375 714.71875 L 44.21875 714.71875 z M 202.90625 723.875 C 192.93953 723.87512 184.13537 724.65429 176.46875 726.1875 C 168.95539 727.56762 162.65373 728.8672 157.59375 730.09375 L 157.59375 888.5625 L 179 888.5625 L 179 840.71875 C 181.60662 842.40542 185.50537 844.16 190.71875 846 C 196.08536 847.84 202.22494 848.75 209.125 848.75 C 217.71159 848.75 225.31283 847.22292 231.90625 844.15625 C 238.65282 841.08959 244.30614 836.80126 248.90625 831.28125 C 253.50614 825.76127 256.94988 819.16669 259.25 811.5 C 261.70321 803.83338 262.93738 795.48422 262.9375 786.4375 C 262.93738 776.77757 261.47571 768.10424 258.5625 760.4375 C 255.80238 752.61759 251.83822 746.02302 246.625 740.65625 C 241.41156 735.28969 235.1099 731.16345 227.75 728.25 C 220.38992 725.33679 212.10618 723.87512 202.90625 723.875 z M 202.6875 742.96875 C 214.18743 742.96885 223.38117 746.70552 230.28125 754.21875 C 237.18115 761.73217 240.6249 772.48424 240.625 786.4375 C 240.6249 792.57089 240.00782 798.32088 238.78125 803.6875 C 237.55448 808.90087 235.5724 813.48212 232.8125 817.46875 C 230.05241 821.30211 226.44658 824.38752 222 826.6875 C 217.70659 828.83418 212.50826 829.90627 206.375 829.90625 C 200.54827 829.90627 195.15661 828.8996 190.25 826.90625 C 185.34329 824.91294 181.60662 822.86544 179 820.71875 L 179 745.25 C 181.14662 744.63677 183.97329 744.11635 187.5 743.65625 C 191.17995 743.19635 196.24744 742.96885 202.6875 742.96875 z "
       xlink:href="#text3155"
       style="font-size:20.259655px;font-style:normal;font-variant:normal;font-weight:bold;font-stretch:normal;line-height:125%;letter-spacing:0px;word-spacing:0px;fill:#bcbcbc;fill-opacity:1;stroke:none;font-family:Ubuntu;-inkscape-font-specification:Ubuntu Bold"
       id="path4021"
       inkscape:href="#text3155"
       d="m 326.15625,689.25 c -8.74006,1.2e-4 -16.73089,1.59262 -23.9375,4.8125 -7.05337,3.06678 -13.03087,7.45178 -17.9375,13.125 -4.90669,5.5201 -8.74002,12.11468 -11.5,19.78125 -2.60668,7.66674 -3.90626,16.08132 -3.90625,25.28125 -10e-6,9.20005 1.23415,17.64588 3.6875,25.3125 2.45332,7.51336 6.12456,14.04252 11.03125,19.5625 5.05997,5.52001 11.19955,9.80834 18.40625,12.875 7.35995,3.06667 15.87119,4.59375 25.53125,4.59375 3.06659,0 6.18617,-0.2275 9.40625,-0.6875 3.37325,-0.30667 6.52408,-0.76167 9.4375,-1.375 2.91324,-0.46 5.5124,-1.01167 7.8125,-1.625 2.2999,-0.76666 4.08573,-1.51458 5.3125,-2.28125 l -3,-17.96875 c -2.60676,1.22669 -6.21259,2.39544 -10.8125,3.46875 -4.60008,1.07335 -9.733,1.59377 -15.40625,1.59375 -7.0534,2e-5 -13.03089,-0.9754 -17.9375,-2.96875 -4.90672,-2.14665 -8.96755,-5.13539 -12.1875,-8.96875 -3.06671,-3.8333 -5.37295,-8.4458 -6.90625,-13.8125 -1.38004,-5.36662 -2.06253,-11.2787 -2.0625,-17.71875 -3e-5,-14.41326 3.1508,-25.36158 9.4375,-32.875 6.43995,-7.51323 15.63369,-11.28115 27.59375,-11.28125 4.75326,10e-5 9.20367,0.4551 13.34375,1.375 4.29324,0.9201 8.02991,2.15427 11.25,3.6875 L 357.65625,695 c -4.90676,-1.99321 -10.03967,-3.45488 -15.40625,-4.375 -5.36675,-0.91988 -10.72716,-1.37488 -16.09375,-1.375 z m 89.40625,8.875 c -8.74006,1.2e-4 -16.73089,1.62387 -23.9375,4.84375 -7.05337,3.06678 -13.03087,7.42053 -17.9375,13.09375 -4.90669,5.5201 -8.74002,12.11468 -11.5,19.78125 -2.60668,7.66674 -3.90626,16.11257 -3.90625,25.3125 -10e-6,9.20005 1.23415,17.64588 3.6875,25.3125 2.45332,7.51336 6.12456,14.01127 11.03125,19.53125 5.05997,5.52001 11.19955,9.80834 18.40625,12.875 7.35995,3.06667 15.87119,4.625 25.53125,4.625 3.06659,0 6.21742,-0.25875 9.4375,-0.71875 3.37325,-0.30667 6.49283,-0.76167 9.40625,-1.375 2.91324,-0.46 5.54365,-0.98042 7.84375,-1.59375 2.2999,-0.76666 4.05448,-1.54583 5.28125,-2.3125 l -3,-17.9375 c -2.60676,1.22669 -6.21259,2.36419 -10.8125,3.4375 -4.60008,1.07335 -9.733,1.62502 -15.40625,1.625 -7.0534,2e-5 -13.03089,-1.00665 -17.9375,-3 -4.90672,-2.14665 -8.96755,-5.13539 -12.1875,-8.96875 -3.06671,-3.8333 -5.37295,-8.41455 -6.90625,-13.78125 -1.38004,-5.36662 -2.06253,-11.2787 -2.0625,-17.71875 -3e-5,-14.41326 3.1508,-25.39283 9.4375,-32.90625 6.43995,-7.51323 15.63369,-11.2499 27.59375,-11.25 4.75326,10e-5 9.20367,0.4551 13.34375,1.375 4.29324,0.9201 8.06116,2.15427 11.28125,3.6875 l 4.8125,-18.1875 c -4.90676,-1.99321 -10.03967,-3.45488 -15.40625,-4.375 -5.36675,-0.91988 -10.72716,-1.37488 -16.09375,-1.375 z m -370.875,16.59375 39.5625,56.8125 c -7.360038,9.81339 -14.799197,20.17588 -22.3125,31.0625 -7.360016,10.73335 -13.727093,21.29209 -19.09375,31.71875 l 22.09375,0 c 1.686639,-3.22 3.734137,-6.89124 6.1875,-11.03125 2.453298,-4.13998 5.083713,-8.3629 7.84375,-12.65625 2.91329,-4.44664 5.902037,-8.80038 8.96875,-13.09375 3.066614,-4.44663 6.055361,-8.60412 8.96875,-12.4375 2.913272,3.83338 5.90202,7.89421 8.96875,12.1875 3.0666,4.29337 6.05534,8.67836 8.96875,13.125 2.91325,4.29335 5.57783,8.51627 8.03125,12.65625 2.45325,4.14001 4.53199,7.87667 6.21875,11.25 l 23.46875,0 c -5.36678,-10.57999 -11.96135,-21.36623 -19.78125,-32.40625 -7.66675,-11.19329 -15.17133,-21.78328 -22.53125,-31.75 l 38.625,-55.4375 -22.78125,0 -28.75,41.875 -28.5,-41.875 -24.15625,0 z m 159.59375,9.15625 c -9.96672,1.2e-4 -18.80213,0.77929 -26.46875,2.3125 -7.51336,1.38012 -13.78377,2.6797 -18.84375,3.90625 l 0,158.46875 21.375,0 0,-47.84375 c 2.60662,1.68667 6.53662,3.44125 11.75,5.28125 5.36661,1.84 11.47494,2.75 18.375,2.75 8.58659,0 16.18783,-1.52708 22.78125,-4.59375 6.74657,-3.06666 12.43114,-7.35499 17.03125,-12.875 4.59989,-5.51998 8.04363,-12.11456 10.34375,-19.78125 2.45321,-7.66662 3.68738,-16.01578 3.6875,-25.0625 -1.2e-4,-9.65993 -1.46179,-18.33326 -4.375,-26 -2.76012,-7.81991 -6.75553,-14.41448 -11.96875,-19.78125 -5.21344,-5.36656 -11.48385,-9.4928 -18.84375,-12.40625 -7.36008,-2.91321 -15.64382,-4.37488 -24.84375,-4.375 z m -0.25,19.09375 c 11.49992,10e-5 20.72492,3.73677 27.625,11.25 6.8999,7.51342 10.34365,18.26549 10.34375,32.21875 -1e-4,6.13339 -0.61718,11.88338 -1.84375,17.25 -1.22677,5.21337 -3.20885,9.79462 -5.96875,13.78125 -2.76009,3.83336 -6.36592,6.91877 -10.8125,9.21875 -4.29341,2.14668 -9.52299,3.21877 -15.65625,3.21875 -5.82673,2e-5 -11.18714,-1.00665 -16.09375,-3 -4.90671,-1.99331 -8.67463,-4.04081 -11.28125,-6.1875 l 0,-75.46875 c 2.14662,-0.61323 5.00454,-1.13365 8.53125,-1.59375 3.67995,-0.4599 8.71619,-0.6874 15.15625,-0.6875 z" />
    <text
       xml:space="preserve"
       style="font-size:22.18293381000000153px;font-style:normal;font-variant:normal;font-weight:bold;font-stretch:normal;line-height:125%;letter-spacing:0px;word-spacing:0px;fill:#8c2300;fill-opacity:1;stroke:#b45b00;stroke-width:2;stroke-miterlimit:4;stroke-opacity:1;stroke-dasharray:none;font-family:Ubuntu;-inkscape-font-specification:Ubuntu Bold"
       x="38.708046"
       y="834.32544"
       id="text3155"
       sodipodi:linespacing="125%"><tspan
         sodipodi:role="line"
         id="tspan3157"
         x="38.708046"
         y="834.32544"
         style="font-size:230px;font-weight:normal;fill:#8c2300;fill-opacity:1;stroke:#b45b00;stroke-width:2;stroke-miterlimit:4;stroke-opacity:1;stroke-dasharray:none;-inkscape-font-specification:Ubuntu"
         dy="0 11.678452 -34.173401 8.8947268"
         dx="0 -17.199272 -19.982996 -18.398958">xpcc</tspan></text>
    <text
       xml:space="preserve"
       style="font-size:15.32904053px;font-style:normal;font-variant:normal;font-weight:normal;font-stretch:normal;line-height:125%;letter-spacing:0px;word-spacing:0px;fill:#000000;fill-opacity:1;fill-rule:nonzero;stroke:none;display:inline;font-family:Ubuntu;-inkscape-font-specification:Ubuntu"
       x="194.36925"
       y="887.388"
       id="text3935"
       sodipodi:linespacing="125%"><tspan
         sodipodi:role="line"
         x="194.36925"
         y="887.388"
         style="font-size:36px;font-weight:bold;letter-spacing:0px;fill:#000000;fill-rule:nonzero;-inkscape-font-specification:Ubuntu Bold"
         id="tspan2997"><tspan
   style="fill:#e5e5e5;fill-opacity:1"
   id="tspan5295">... enabling ro</tspan>bots</tspan></text>
    <flowRoot
       xml:space="preserve"
       id="flowRoot3254"
       style="font-size:14px;font-style:normal;font-variant:normal;font-weight:normal;font-stretch:normal;line-height:125%;letter-spacing:0px;word-spacing:0px;fill:#000000;fill-opacity:1;stroke:none;font-family:Ubuntu;-inkscape-font-specification:Ubuntu"><flowRegion
         id="flowRegion3256"><rect
           id="rect3258"
           width="1343.5029"
           height="672.7616"
           x="-101.01525"
           y="131.10306" /></flowRegion><flowPara
         id="flowPara3260" /></flowRoot>    <flowRoot
       xml:space="preserve"
       id="flowRoot3262"
       style="font-size:14px;font-style:normal;font-variant:normal;font-weight:normal;font-stretch:normal;line-height:125%;letter-spacing:0px;word-spacing:0px;fill:#000000;fill-opacity:1;stroke:none;font-family:Ubuntu;-inkscape-font-specification:Ubuntu"><flowRegion
         id="flowRegion3264"><rect
           id="rect3266"
           width="1044.2858"
           height="602.85712"
           x="-408.57144"
           y="-198.57143" /></flowRegion><flowPara
         id="flowPara3268" /></flowRoot>  </g>
</svg>
