P1
# CREATOR: GIMP PNM Filter Version 1.1
86 64
0000000000000000000000000000000000000000000000000000000000000000000000
0000000000000000000000000000000000000000000000000000000000000000000011
1111000000000000000000000000000000000000000000000000000000000000000000
0111111111111000000011111000000000000000000000000000000000000000000000
0000000000111111111111111111111111110001111100000000000000000000000000
0000000000000000000000111111111111111111111111111111111000111110000000
0000000000000000000000000000000000011111111111111110111111111111111111
1111100111100000000000000000000000000000000000001111111111111111110001
1111111111110111111111100111100000000000000000000000000000000011111111
1111111111111011111111111110001111111111100111000000000000000000000000
0000001111111111011111111111111111111111111101111111111111100111000000
0000000000000000000011111111111000111111111111111111111111111111111111
1111111011100000000000000000000000011111111111110111111111111111111111
1111111111111111111111110111000000000000000000000111111111111111111111
1111110011111111111111111111111101111111111110000000000000000000111111
1111111111111111111111001111111111111100111111000001111111111100000000
0000000001111111111111111111111111111100111111111111110011111110101111
1111111110000000000000001111000011001100100100110000110000011110000110
0000111111111111111111111100000000000001111001100100110010000010000001
0000001100000010000011111111111111111111111000000000001111100110010011
0010001100111001001100100111001100111111111111111111111111100000000001
1111100000010011001001110011100100110010011100110011111111111111101111
1111110000000011111110011111001100100111001110010011001001110011001111
1111111100000001111111000000001111111001111100100010011100111001001100
1001110011001111111111111100011111111110000001111111110000011000101001
1110000011000001110000011100001111111111100100111111111000001111111111
1111111111111111111111111111111111111111111111111111111101111011111111
1000001111111111111111111111111111111111111111111111111111111111111111
1111111111111111100000111111111111111111111111111111111111111111111111
1111111111111111111111111111111110000111111111111111111111111111111111
1111111111111111111111111111111111101111111111111000011111111111111111
1111011111111111111111000000111111111111111111111110011111111111100001
1111111111111111111100111111111111111000000001111111111111111111000000
0001111111100001111111111111111111110001111111111111101000000111111111
1111111111110000011111111110001111111111111111111111000011111111111110
1100000111111111111111111111011101111111111000111110001111111111111100
0001111111111110111000001111111111111111111011111011111111100011000000
1111111111111100000011111111111001100000111111111111110111111111111111
1111100011000000111111111111110000000000000000000110000011111111111110
0011111111111111111100011100000001111111111111000000000000000000111000
0011111111100000000000111111111111110001110000000111111111000000000000
0000000001010000011111111111110000011111111111111110000111100000011000
0000000000000000000000001100000001111111111110001000111111111111111000
0111100000000000000000000000000000000001111000111111111111110011111001
1111111111110000011110000001110000000000000000000000001111111111111111
1111111111111111111111111101000001111000000011111000000000000000000000
1111111111111111111111111111111111111111101000000011100000001111111100
0000000000000000011111111000000111111111111111111111111101000000001111
0000001111111111100000000000000000111111000000001111111111111111111111
1010000000001111000000111111111111000000000000000001110000000000011111
1111111111111111010000000000111100001111111111111100000000000000000011
0000000000001111111111111111111010000000000001111111111111111111110000
0000000000000001001110000000111111111111111110010000000000000111111111
1111111111100000000011110000000001111110000011111111111111110010000000
0000000111000111111111111110000000011111111000000011111000001111111111
1111001100000000000000000000001111111111111000000011111111111000000001
1100001111111111110011000000000000000000000000001111100011100000011111
1111111111000001110000111111111100111000000000000000000000000000011000
0001100000111111111111111110011111000111111110001110000000000000000000
0000000000000000000010000110011111111111111100011000111110000111100000
0000000000000000000000000000000000000000111110000001111111111100000100
0001111110000000000000000000000000000000000000000000000011111111111000
0000000000000011111111100000000000000000000000000000000001000000000000
0111111111111111111111111111111111110000000000000000000000000000000000
0011001100000000011111111111111111111111111111110000000000000000000000
0000000000000000001110111000000000000111111111111111111111110000000000
0000000000000000000000000000000000011011110000000000000000000111111000
0000000000000000000000000000000000000000000000000001110111100000000000
0000000000000000000000000000000000000000000000000000000000000000000011
0111100000000000000000000000000000000000000000000000000000000000000000
0000000000000011101111000000000000000000000000000000000000000000000000
0000000000000000000000000000000111011100000000000000000000000000000000
0000000000000000000000000000000000000000000000011110000001000000000000
0000000000000000000000000000000000000000000000000000000000000000111100
0010000000000000000000000000000000000000000000000000000000000000000000
0000000000011111110000000000000000000000000000000000000000000000000000
0000000000000000000000000000011110000000000000000000000000000000000000
0000000000000000000000000000000000000000000000000000000000000000000000
00000000000000000000000000000000000000000000