P1
# CREATOR: GIMP PNM Filter Version 1.1
16 16
0000000000000000000111111111100000100000000001000100000110000010010000
1111000010010001111110001001001111111100100101100000011010010010000001
0010010010011101001001001001110100100100100111010010010011111111001000
1000000000010000011111111110000000000000000000