P1
# CREATOR: GIMP PNM Filter Version 1.1
90 64
0000000000000000000000000000000000000000000000000000000000000000000000
0000000000000000000000000000000000000000000000000000000000000000000000
0000111111000000000000000000000000000000000000000000000000000000000000
0000000000011111111111100000001111100000000000000000000000000000000000
0000000000000000000000001111111111111111111111111100011111000000000000
0000000000000000000000000000000000000000111111111111111111111111111111
1110001111100000000000000000000000000000000000000000000001111111111111
1110111111111111111111111110011110000000000000000000000000000000000000
0000111111111111111111000111111111111101111111111001111000000000000000
0000000000000000000000111111111111111111111011111111111110001111111111
1001110000000000000000000000000000000000111111111101111111111111111111
1111111101111111111111100111000000000000000000000000000000111111111110
0011111111111111111111111111111111111111111110111000000000000000000000
0000000111111111111101111111111111111111111111111111111111111111110111
0000000000000000000000000111111111111111111111111111001111111111111111
1111111101111111111110000000000000000000000011111111111111111111111111
1100111111111111110011111100000111111111110000000000000000000001111111
1111111111111111111111001111111111111100111111101011111111111110000000
0000000000001111000011001100100100110000110000011110000110000011111111
1111111111111100000000000000000111100110010011001000001000000100000011
0000001000001111111111111111111111100000000000000011111001100100110010
0011001110010011001001110011001111111111111111111111111000000000000001
1111100000010011001001110011100100110010011100110011111111111111101111
1111110000000000001111111001111100110010011100111001001100100111001100
1111111111110000000111111100000000000011111110011111001000100111001110
0100110010011100110011111111111111000111111111100000000001111111110000
0110001010011110000011000001110000011100001111111111100100111111111000
0000001111111111111111111111111111111111111111111111111111111111111111
1101111011111111100000000011111111111111111111111111111111111111111111
1111111111111111111111111111111111111000000000111111111111111111111111
1111111111111111111111111111111111111111111111111111111110000000011111
1111111111111111111111111111111111111111111111111111111111111110111111
1111111000000001111111111111111111110111111111111111110000001111111111
1111111111111001111111111110000000011111111111111111111100111111111111
1110000000011111111111111111110000000001111111100000000111111111111111
1111110001111111111111101000000111111111111111111111000001111111111000
0000111111111111111111111100001111111111111011000001111111111111111111
1101110111111111100000001111100011111111111111000001111111111110111000
0011111111111111111110111110111111111000000011000000111111111111110000
0011111111111001100000111111111111110111111111111111111110000000110000
0011111111111111000000000000000000011000001111111111111000111111111111
1111110000000111000000011111111111110000000000000000001110000011111111
1000000000001111111111111100000001110000000111111111000000000000000000
0001010000011111111111110000011111111111111110000000011110000001100000
0000000000000000000000110000000111111111111000100011111111111111100000
0001111000000000000000000000000000000000011110001111111111111100111110
0111111111111100000000011110000001110000000000000000000000001111111111
1111111111111111111111111111111101000000000111100000001111100000000000
0000000000111111111111111111111111111111111111111110100000000000111000
0000111111110000000000000000000111111110000001111111111111111111111111
0100000000000011110000001111111111100000000000000000111111000000001111
1111111111111111111010000000000000111100000011111111111100000000000000
0001110000000000011111111111111111111101000000000000001111000011111111
1111110000000000000000001100000000000011111111111111111110100000000000
0000011111111111111111111100000000000000000001001110000000111111111111
1111100100000000000000000111111111111111111110000000001111000000000111
1110000011111111111111110010000000000000000001110001111111111111100000
0001111111100000001111100000111111111111110011000000000000000000000000
0011111111111110000000111111111110000000011100001111111111110011000000
0000000000000000000000001111100011100000011111111111111100000111000011
1111111100111000000000000000000000000000000001100000011000001111111111
1111111001111100011111111000111000000000000000000000000000000000000000
0000100001100111111111111111000110001111100001111000000000000000000000
0000000000000000000000000000111110000001111111111100000100000111111000
0000000000000000000000000000000000000000000000001111111111100000000000
0000001111111110000000000000000000000000000000000000010000000000000111
1111111111111111111111111111111100000000000000000000000000000000000000
0011001100000000011111111111111111111111111111110000000000000000000000
0000000000000000000000111011100000000000011111111111111111111111000000
0000000000000000000000000000000000000000000110111100000000000000000001
1111100000000000000000000000000000000000000000000000000000000001110111
1000000000000000000000000000000000000000000000000000000000000000000000
0000000000000011011110000000000000000000000000000000000000000000000000
0000000000000000000000000000000000111011110000000000000000000000000000
0000000000000000000000000000000000000000000000000000000111011100000000
0000000000000000000000000000000000000000000000000000000000000000000000
0000011110000001000000000000000000000000000000000000000000000000000000
0000000000000000000000000011110000100000000000000000000000000000000000
0000000000000000000000000000000000000000000000011111110000000000000000
0000000000000000000000000000000000000000000000000000000000000000000001
1110000000000000000000000000000000000000000000000000000000000000000000
0000000000000000000000000000000000000000000000000000000000000000000000
00000000000000000000