P1
# CREATOR: GIMP PNM Filter Version 1.1
64 64
0000000000000000000000000001111111111100000000000000000000000000000000
0000000000000000011111111111111111110000000000000000000000000000000000
0000000011111000000000000000111110000000000000000000000000000000000000
1111000000000000000000000111100000000000000000000000000000000001100000
0000000000000000000001110000000000000000000000000000000111000000000000
0000000000000000011000000000000000000000000000000110000000000000000000
0000000000001100000000000000000000000000001100000000000000000000000000
0000000110000000000000000000000000011000000000000000000000000000000000
0011000000000000000000000000110000000000000000000000000000000000001100
0000000000000000000000110000000000000000000000000000000000000110000000
0000000000000000100000000000000000000000000000000000000110000000000000
0000000001100000000000000000000000000000000000000011000000000000000000
0001100000000000000000000000000000000000000011000000000000000000000100
0100000000000000000000000000000000010011000000000000000000000100010000
0000000000000000000000000000010001000000000000000000000100110000000000
0000000000000000000000011001000000000000000000000100110000000000000000
0000000000000000011001000000000000000000000100010000000000000000000000
0000000000010001000000000000000000000100010000000000000000000000000000
0000010001000000000000000000000110011000000000000000000000000000000011
0011000000000000000000000110011000000000000000000000000000000011001100
0000000000000000000110001000000000000000000000000000000010001100000000
0000000000000011001000000000000000000000000000000010011000000000000000
0000000011001000011111111000000011111111000010011000000000000000000000
0001101001111111111000000011111111100010110000000000000000000000000111
1001111111111000000011111111110011110000000000000000000000000011100111
1111111000000011111111110011100000000000000000000000000001100111111111
1000000011111111110011000000000000000000000000000001100111111111000000
0011111111110011000000000000000001111000000001100011111111000000000111
1111100011000000001000000001101100000001000011111110000000000011111110
0001000000111110000001000110000001000001111100000101000001111100000100
0000110110000011000110000001000000011000001101100000110000000100000110
0010000011000011000001100000000000011101100000000000001100001100001000
0111000001110001100000000000011101110000000000001100001100001000111000
0000111100110000000000011101110000000000011000111000001100110000000000
1111111000000000011101110000000001111001100000000110100000000000001111
1111100000011101110000000111111111000000000011111111110000000011111111
0000011101110000011111111100000000000001011111111100000000011111100001
1000110000111111110000000011111111000000000111000000011001100000000000
0000101011000000001111111110000000000001111000001010110000000000000110
1011000000111000000000000000000000011110001010110000000000000110111000
0011100000000000000000000000000111101100011111000111111101011000111100
0000000000000000000000000001111101001010111010100001011011110000000000
0000000000000000000000011001011010101010100101011111000000000000000000
0000000000000000001001001110101010111101011100000000000000000000000000
0000000000011001101010111111101010011000000000000000000000000000000000
0001111100111010101010000110011100000000000000000000000000000000011100
1100001110101010111000011111000000000000000000000000000001111000110000
0001111111000000011011110000000000000000000111111111000000011000000000
0000000000110000011100000000000000001111111100000000111000000000000000
0001111000000111111111000000001000000000000011111100000000000000001111
1110000001111111100000001100000000000111000111000000000000011100011100
0000000000100000000110000000011100000011110000000001111000000111000000
0001100000000011000001110000000000111111111111100000000001110000001100
0000000011000011000000000000000001110000000000000000011000011000000000
0001000010000000000000000000000000000000000000001000010000000000000100
0110000000000000000000000000000000000000001100010000000000000110110000
0000000000000000000000000000000000000110110000000000000111100000000000
0000000000000000000000000000000011100000000000000000000000000000000000
000000000000000000000000000000000000