P1
# CREATOR: GIMP PNM Filter Version 1.1
128 64
0000000000000000000000000000000000000000000000000000000000000000000000
0000000000000000000000000000000000000000000000000000000000000000000000
0000000000000000000000000000000000000000011000110000000000000000000000
0000000000000000000000000000000000000000000000000000000000000000000000
0000000000000000111000001100011000110000000000000000000011111000000000
0000000000000000000000000000000000000000000000000000000000000000000000
0000111000001100000000110000000000000000000111111100000000000000000000
0000000000000000000000000000000000000000000000000000000000000011110000
1100000000110000000000000000000110001110000000000000000000000000000000
0000000000000000000000000000000000000000000000000011110000110011100011
0111100000011110000000000110000000000000000000000000000000000000000000
0000000000000000000000000000000000000011111000110011100011111111000111
1111100000000110000000000000000000000000000000000000000000000000000000
0000000000000000000000000011011000110001100011110011100111001110000000
1110000000000000000000000000000000000000000000000000000000000000000000
0000000000000011001100110001100011100001101110000111000000111000000000
0000000000000000000000000000000000000000000000000000000000000000000000
0011001110110001100011000001101100000011000001110000000000000000000000
0000000000000000000000000000000000000000000000000000000000001100011111
0001100011000001101100000011000011100000000000000000000000000000000000
0000000000000000000000000000000000000000000000001100001111000110001110
0001101110000111000111000000000000000000000000000000000000000000000000
0000000000000000000000000000000000001100001111000110001111001110011100
1110001110000000000000000000000000000000000000000000000000000000000000
0000000000000000000000001100000111001111001111111100011111111001111111
1000000000000000000000000000000000000000001111111111111111111111111111
1111111111101100000111001111001101111000000111100001111111101111111111
1111111111111111111111111111110000000000000000000000000000000000000000
0000000000000000000000000000000000000000000000000000000000000000000000
0000000000000000000000000000000000000000000000000000000000000000000000
0000000000001000001000000000000000000000000000000000000000000000000000
0000000000000000000000000000000000000000000000000000000000000000000000
1000001000000000000000000000000000000000000000000000000000000000000000
0000000000000000000011100001100100100100110001110011000011100000111001
0001000100010111000111001110000000000000000000000000000000000000000000
0000000010010010010101010101001001000100100100100000100101000100001010
0100101000010000000000000000000000000000000000000000000000000000001001
0010010101010101111001000111100100100000100100101000000100010010100001
0000000000000000000000000000000000000000000000000000001001001001001000
1001000001000100000100100000100100101000001010010010100001000000000000
0000000000000000000000000000000000000000001110000110001000100011100100
0011100011100000111000010000010001011100011100111000000000000000000000
0000000000000000000000000000001000000000000000000000000000000000000000
0000000000010000000000010000000000000000000000000000000000000000000000
0000000000000000001000000000000000000000000000000000000000000000000110
0000000000010000000000000000000000000000000000000000000000000000000000
0000000000000000000000000000000000000000000000000000000000000000000000
0000000000000000000000000000000000000000000000000000000000000000000000
0000000000000000000000000000000000000000000000000000000000000000000000
0000000000000000000000000000000000000000000000000000000000000000000000
0000000000000000000000000000000000000000000000000000000000000000000000
0000000000000000000000000000000000000000000000000000000000000000000000
0000000011111111111111111000000000000000000000000000000000000000000000
0000000000000000000000000000000000000000000000000000000000000000001111
1111111111111000000000000000000000000000000000000000000000000000000000
0000000000000000000000000000000000000000000000000000111111111111111111
1110000000000000000000000000000000000000000000000000000000000000000000
0000000000000000000000001000000000000000110000000000000000011000000000
0000000000000000000000000000000000000000000000000000000000000000000000
0000000000111000000000000001111011111101111110111100000000000000000000
0000000000000000000000000000000000000000000000000000000000000000011111
1000000000000010110100000010000001011010000000000000000000000000000000
0000000000000000000000000000000000000000000000000000011111100000000000
0010110000000000000000011010000000000000000000000000000000000000000000
0000000000000000000000000000000000000000011111100000000000001011000000
0000000000011010000000000000000000000000000000000000000000000000000000
0000000000000000000000000000011111100000000000001011000000000000000001
1010000000000000000000000000000000000000000000000000000000000000000000
0000000000000000011111100000000000001011000000000000000001101000000000
0000000000000000000000000000000000000000000000000000000000000000000000
0000000011100000000000001011000000000000000001101000000000000000000000
0000000000000000000000000000000000000000000000000000000000000000000010
0000000111111111111111111111111111111111100000000000000000000000000000
0000000000000000000000000000000000000000000000000000000011111000011111
1111111111111111111111111111100000000000000000000000000000000000000000
0000000000000000000000000000000000000000000000110000000011000000000000
0000000000000110000000000000000000000000000000000000000000000000000000
0000000000000000000000000000000011111100000011000000000000000000000000
0110000000000000000000000000000000000000000000000000000000000000000000
0000000000000000000010000100000011000000000000000000000000011000000000
0000000000000000000000000000000000000000000000000000000000000000000000
0000000010000100000011000000000000001111000000011000000000000000000000
0000000000000000000000000000000000000000000000000000000000000000001000
0100000011110000000000010000100000011000000000000000000000000000000000
0000000000000000000000000000000000000000000000000111111111111110001100
1000000000100000111111111000000000000000000000000000000000000000000000
0000000000000000000000000000000000000111111111111110001100011111111100
0011100000011100000000000000000000000000000000000000000000000000000000
0000000000000000000000000000001110010000001100000000000000011000000000
0110000000000000000000000000000000000000000000000000000000000000000000
0000000000000000101111110000001100111111111111110000000000001100000000
0000000000000000000000000000000000000000000000000000000000000000000000
0001010110000000001100100000000000100001111110000100000000000000000000
0000000000000000000000000000000000000000000000000000000000000101011111
1110001100100000000001100010000001000110000000000000000000000000000000
0000000000000000000000000000000000000000000011110101011100001111110010
1100000001000100000000100010000000000000000000000000000000000000000000
0000000000000000000000000000000110010111011100001010110010110000000100
0100000000100010000000000000000000000000000000000000000000000000000000
0000000000000000000011110010011100001000110010000000000100010001100010
0010000000000000000000000000000000000000000000000000000000000000000000
0000000000010111111111111000110010000000000100010001100010001000000000
0000000000000000000000000000000000000000000000000000000000000000001111
1111111111111111111111111111111100010000000010001000000000000000000000
0000000000000000000000000000000000000000000000000000001111111111111111
1111111111111111111100010000000010001000000000000000000000000000000000
0000000000000000000000000000000000000000000000000011111111111000000000
0000000110001000000100011000000000000000000000000000000000000000000000
0000000000000000000000000000000000000011111111111000000000000000001000
0111111000010000000000000000000000000000000000000000000000000000000000
0000000000000000000000000011111111111000000000000000001100000000000011
0000000000000000000000000000000000000000000000000000000000000000000000
0000000000000010000000001000000000000000000110000000000110000000000000
0000000000000000000000000000000000000000000000000000000000000000000000
0011000000011000000000000000000011100000011100000000000000000000000000
0000000000000000000000000000000000000000000000000000000000000111111111
0000000000000000000000111111110000000000000000000000000000000000000000
00