P1
# CREATOR: GIMP PNM Filter Version 1.1
25 16
0000000000000000000000000000000000000000000000000000001111111111111111
1110000010000000000000000000100001011111011111011111010001101111101111
1011111010010101111101111101111101001010111110111110111110100101011111
0111110111110100101011111011111011111010001101111101111101111101000010
1111101111101111101000010000000000000000000100000111111111111111111100
00000000000000000000000000000000000000000000000000