P1
# CREATOR: GIMP PNM Filter Version 1.1
16 16
0000000000000000000100000000000000010000000000000001000000000000000100
0100000000000100110000000000010111000000000001111111111100000111111111
1100000101110000000000010011000000000001000100000000000100000000000000
0100000000000000010000000000000000000000000000