P1
# CREATOR: GIMP PNM Filter Version 1.1
16 16
0000000000000000000011100000000000001111111000000000111111110000011111
1111111000011111111111100000001111111110000000111111111111000011111111
1111000011111111100001111111111110000111111111111000000011111111000000
0011111110000000001110000000000000000000000000