P1
# CREATOR: GIMP PNM Filter Version 1.1
25 16
0000000000000000000000000000000000000000000000000000001111111111111111
1110000010000000000000000000100001000000000000000001010001100000000000
0000001010010100000000000000001101001010000000000000000110100101000000
0000000000110100101000000000000000111010001100000000000000011101000010
0000000000000011101000010000000000000000000100000111111111111111111100
00000000000000000000000000000000000000000000000000