P1
# CREATOR: GIMP PNM Filter Version 1.1
64 64
0000000000000000000000000000000000000000000000000000000000000000000000
0000000000000000000000000000000000000000000000000000000000000000000000
0000000000000000000000000000000000000000000000000000000000000000000000
0000000000000000000000000000000000000000000000000000000000000000000000
0000000000000000000000000000000000000000000000000000000000000000000000
0000000000000000000000000000000000000000000000000000000000000000000000
0000000000000000000000000000000000000000000000000000000001111100000000
0000000000000000000000000000000000000000000000000011111110000000000000
0000000000000000000000000000000000000000000011111110000000000000000000
0000000000000000000000000000000000000111111110000000000000000000000000
0000000000000000000000000000000111111110000000000000000000000000000000
0000000000000000000000000111111100000000000000000000000000000000000000
0000000000000000001111111100000000000000000000000000000000000000000000
0000000000001111111100000000000000000000000000000000000000000000000000
0000001111111000000000000000000000000000000000000000000000000000000001
1111111000000000000000000000000000000000000000000000000000000001111111
1000000000000000000000000000000000000000000000000000000001111111000000
0000000000000000000000000000000000000000000000000011111111000000000000
0000000000000000000000000000000000000000000011111111000000000000000000
0000000000000000000000000000000000000011111110000000000000000000000000
0000000000000000000000000000000111111110000000000000000000000000000000
0000000000000000000000000111111110000000000000000000000000000000000000
0000000000000000000111111100000000000000000000000000000000000000000000
0000000000001111111100000000000000000000000000000000000000000000000000
0000001111111100000000000000000000000000000000000000000000000000000000
1111111000000000000000000000000000000000000000000000000000000001111111
1000000000000000000000000000000000000000000000000000000001111111100000
0000000000000000000000000000000000000000000000000001111111000001111110
0000000000000000000000000000000000000000000001111111000111111111110000
0000000000000000000000000000000000000011111111011111111111111000000000
0000000000000000000000000000000011111111111111111111111110000000000000
0000000000000000000000000011111111111111111111111111000000000000000000
0000000000000000000111111111111111111111111111000000000000000000000000
0000000000000111111111111110000011111111000000000000000000000000000000
0000000111111111111000000000111111100000000000000000000000000000000000
0111111111100000000000011111100000000000000000000000000000000000011111
1111000000000000011111100000000000000000000000000000000000111111110000
0000000000011111100000000000000000000000000000000000111111100000000000
0000011111100000000000000000000000000000000000111111100000000000000011
1111100000000000000000000000000000000000111111100000000000000011111100
0000000000000000000000000000000000111111100000000000000111111100000000
0000000000000000000000000000111111100000000000001111111000000000000000
0000000000000000000000111111100000000000011111111000000000000000000000
0000000000000000111111110000000000111111110000000000000000000000000000
0000000000011111110000000001111111100000000000000000000000000000000000
0000011111111000000111111111100000000000000000000000000000000000000001
1111111100111111111111000000000000000000000000000000000000000000111111
1111111111111110000000000000000000000000000000000000000000011111111111
1111111100000000000000000000000000000000000000000000011111111111111111
0000000000000000000000000000000000000000000000001111111111111110000000
0000000000000000000000000000000000000000000011111111111100000000000000
0000000000000000000000000000000000000000111111100000000000000000000000
0000000000000000000000000000000000000000000000000000000000000000000000
0000000000000000000000000000000000000000000000000000000000000000000000
0000000000000000000000000000000000000000000000000000000000000000000000
0000000000000000000000000000000000000000000000000000000000000000000000
0000000000000000000000000000000000000000000000000000000000000000000000
0000000000000000000000000000000000000000000000000000000000000000000000
000000000000000000000000000000000000