<?xml version="1.0" encoding="UTF-8"?>
<!DOCTYPE svg PUBLIC "-//W3C//DTD SVG 1.1//EN" "http://www.w3.org/Graphics/SVG/1.1/DTD/svg11.dtd">
<!-- Creator: CorelDRAW -->
<svg xmlns="http://www.w3.org/2000/svg" xml:space="preserve" width="160.054mm" height="70.73mm" style="shape-rendering:geometricPrecision; text-rendering:geometricPrecision; image-rendering:optimizeQuality; fill-rule:evenodd; clip-rule:evenodd"
viewBox="0 0 160.054 70.73"
 xmlns:xlink="http://www.w3.org/1999/xlink">
 <defs>
  <style type="text/css">
   <![CDATA[
    .fil0 {fill:black;fill-rule:nonzero}
   ]]>
  </style>
 </defs>
 <g id="Ebene_x0020_1">
  <metadata id="CorelCorpID_0Corel-Layer"/>
  <g id="_153574520">
   <path id="_153577136" class="fil0" d="M20.5068 19.0368c2.4762,0 5.3392,-0.619 8.5897,-1.8572l0 7.9705c-0.7224,0.2578 -1.754,0.5416 -3.0955,0.8514 0.4126,1.1864 0.6191,2.2956 0.6191,3.3274 0,3.3018 -0.993,6.1776 -2.9792,8.6282 -1.9863,2.4504 -4.5531,3.9084 -7.7001,4.3722 -2.0632,0.3097 -3.0951,1.419 -3.0951,3.3277 0,0.6707 0.3353,1.3414 1.006,2.0118 0.877,0.9805 2.1666,1.5998 3.869,1.8576 7.3777,1.1347 11.066,4.2044 11.066,9.2085 0,7.9969 -4.7719,11.9951 -14.3159,11.9951 -3.9209,0 -7.1455,-0.6964 -9.673,-2.0895 -3.1989,-1.754 -4.7979,-4.5141 -4.7979,-8.2805 0,-4.3334 2.3989,-7.2997 7.1964,-8.8988l0 -0.1548c-1.7538,-1.0833 -2.6307,-2.7342 -2.6307,-4.9528 0,-2.8891 0.8254,-4.695 2.4763,-5.4166l0 -0.155c-1.6509,-0.5674 -3.1214,-1.8576 -4.4111,-3.8694 -1.4445,-2.1666 -2.1667,-4.4882 -2.1667,-6.9646 0,-3.7146 1.3157,-6.8097 3.9465,-9.2861 2.5281,-2.3216 5.5461,-3.4823 9.0542,-3.4823 2.5279,0 4.875,0.6191 7.042,1.8572zm0.3094 40.7043l0 0c0,-2.6312 -2.1666,-3.9466 -6.5004,-3.9466 -4.1788,0 -6.2681,1.3671 -6.2681,4.1015 0,2.6823 2.2701,4.0237 6.8098,4.0237 3.9725,0 5.9587,-1.3925 5.9587,-4.1786zm-11.9171 -29.7158l0 0c0,3.5599 1.6252,5.3398 4.8751,5.3398 3.147,0 4.7204,-1.8059 4.7204,-5.4171 0,-1.4961 -0.3611,-2.7857 -1.0833,-3.8694 -0.877,-1.1864 -2.0893,-1.7799 -3.6371,-1.7799 -3.2499,0 -4.8751,1.9091 -4.8751,5.7266z"/>
   <path id="_153577064" class="fil0" d="M37.3021 11.5302c-1.4961,0 -2.7727,-0.5672 -3.8305,-1.7024 -1.0575,-1.1349 -1.5864,-2.476 -1.5864,-4.0238 0,-1.5994 0.5289,-2.9663 1.5864,-4.1015 1.0578,-1.1349 2.3344,-1.7025 3.8305,-1.7025 1.4446,0 2.6957,0.5676 3.7532,1.7025 1.0577,1.1352 1.5864,2.5021 1.5864,4.1015 0,1.5478 -0.5287,2.8889 -1.5864,4.0238 -1.0575,1.1352 -2.3086,1.7024 -3.7532,1.7024z"/>
   <path id="_153576992" class="fil0" d="M32.8914 51.9251c0.1031,-1.0314 0.1544,-2.7853 0.1544,-5.2619l0 -24.067c0,-2.4244 -0.0513,-4.1013 -0.1544,-5.0298l8.7445 0c-0.1034,0.9803 -0.155,2.6054 -0.155,4.8754l0 23.7569c0,2.6313 0.0516,4.5401 0.155,5.7264l-8.7445 0z"/>
   <path id="_153576920" class="fil0" d="M57.6485 17.5664l6.7322 0 0 7.5062c-0.2578,0 -0.735,-0.0256 -1.4316,-0.0773 -0.6964,-0.0515 -1.3541,-0.0775 -1.9733,-0.0775l-3.3273 0 0 14.3935c0,3.4567 1.1348,5.1848 3.4048,5.1848 1.5994,0 3.0436,-0.4381 4.3338,-1.3154l0 7.7382c-1.9089,1.0322 -4.2048,1.5479 -6.8876,1.5479 -3.766,0 -6.371,-1.3412 -7.8156,-4.0237 -1.0833,-2.0123 -1.6253,-5.1846 -1.6253,-9.5187l0 -13.8518 0.0775 0 0 -0.1548 -1.1608 -0.0771c-0.6707,0 -1.5477,0.0771 -2.631,0.2319l0 -7.5062 3.7918 0 0 -3.018c0,-1.4446 -0.0775,-2.6054 -0.2321,-3.4824l8.9765 0c-0.1546,0.9803 -0.232,2.0895 -0.232,3.3274l0 3.173z"/>
   <path id="_153576848" class="fil0" d="M84.8301 17.3342c-2.2181,0 -4.5397,0.7739 -6.9645,2.3213l0 -13.542c0,-2.9405 0.0517,-4.8752 0.1547,-5.8037l-8.8219 0c0.155,0.8254 0.2323,2.7598 0.2323,5.8037l0 40.9366c0,2.3727 -0.0773,3.9984 -0.2323,4.875l8.9767 0c0,-0.1548 -0.0513,-0.7865 -0.1548,-1.8957 -0.103,-1.1093 -0.1547,-2.1027 -0.1547,-2.9793l0 -19.0368c1.8057,-1.7024 3.5596,-2.5534 5.2621,-2.5534 1.9606,0 3.4566,0.9798 4.4885,2.9401 0.7736,1.548 1.1608,3.4827 1.1608,5.8043l-0.0775 10.4465c0,1.7546 -0.1288,4.1792 -0.3868,7.2743l9.3632 0c-0.206,-1.2894 -0.3094,-3.6627 -0.3094,-7.1195l0 -10.6013c0,-4.4885 -1.0058,-8.3062 -3.018,-11.4531 -2.2701,-3.6114 -5.4427,-5.417 -9.5184,-5.417z"/>
   <path id="_153576776" class="fil0" d="M112.227 52.2349c-4.0758,0 -7.0936,-1.8059 -9.0542,-5.4175 -1.5475,-2.9401 -2.3214,-6.7838 -2.3214,-11.5298l0 -10.6017c0,-3.5083 -0.1031,-5.8814 -0.3096,-7.1195l9.2863 0c-0.155,1.1349 -0.2579,3.5597 -0.3098,7.2743l-0.0771 10.4469c0,2.9403 0.3354,5.0558 1.0058,6.3452 0.7742,1.5998 2.1928,2.3993 4.2563,2.3993 1.4446,0 3.0698,-0.8514 4.8754,-2.5535l0 -19.0368c0,-0.8773 -0.0519,-1.8833 -0.1549,-3.0182 -0.1037,-1.1352 -0.1548,-1.7539 -0.1548,-1.8572l8.9763 0c-0.1028,0.877 -0.1547,2.502 -0.1547,4.8754l0 23.6798c0,3.0434 0.0519,4.9781 0.1547,5.8035l-8.4347 0 0 -2.7853c-2.3733,2.0629 -4.901,3.0951 -7.5836,3.0951z"/>
   <path id="_153576704" class="fil0" d="M147.053 52.1572c-2.7854,0 -5.107,-1.0058 -6.9646,-3.0174l0 2.7853 -8.2028 0c0.155,-0.8766 0.2327,-2.5023 0.2327,-4.875l0 -40.9366c0,-3.0439 -0.0777,-4.9783 -0.2327,-5.8037l8.8221 0c-0.1036,0.9285 -0.1547,2.8632 -0.1547,5.8037l0 13.4649c2.3727,-1.4959 4.6948,-2.2442 6.9645,-2.2442 4.0755,0 7.2745,1.8056 9.5959,5.417 1.9601,3.1469 2.9403,6.9646 2.9403,11.4531 0,4.5913 -1.0316,8.5895 -3.0951,11.9944 -2.4764,3.9725 -5.7782,5.9585 -9.9056,5.9585zm-1.1605 -26.6973l0 0c-1.7028,0 -3.4825,0.851 -5.3395,2.5534l0 13.3876c1.6509,1.599 3.2758,2.3993 4.875,2.3993 2.0118,0 3.5339,-1.1093 4.5659,-3.328 0.8256,-1.7538 1.2382,-3.8434 1.2382,-6.2679 0,-5.8297 -1.7799,-8.7444 -5.3396,-8.7444z"/>
   <g>
    <path id="_153576632" class="fil0" d="M38.9201 59.3427c-0.4908,-0.6661 -1.1222,-1.0872 -1.9813,-1.0872 -0.8243,0 -1.6131,0.6317 -1.6131,1.4908 0,2.227 5.2427,1.2972 5.2427,5.7336 0,2.6481 -1.6483,4.5238 -4.3486,4.5238 -1.8236,0 -3.1563,-1.0516 -4.0681,-2.5776l1.666 -1.6308c0.3504,1.0173 1.2798,1.9289 2.3846,1.9289 1.0519,0 1.7009,-0.8941 1.7009,-1.9114 0,-1.3676 -1.2625,-1.7532 -2.2969,-2.1562 -1.7011,-0.7017 -2.9462,-1.5609 -2.9462,-3.6122 0,-2.192 1.6308,-3.9629 3.8578,-3.9629 1.1747,0 2.8055,0.5787 3.6121,1.4728l-1.2099 1.7884z"/>
    <path id="_153576560" class="fil0" d="M47.826 70.0037c-4.0333,0 -6.5407,-3.0861 -6.5407,-6.9789 0,-3.9277 2.5953,-6.9433 6.5407,-6.9433 3.945,0 6.5404,3.0156 6.5404,6.9433 0,3.8928 -2.5074,6.9789 -6.5404,6.9789zm0 -11.3796l0 0c-2.4373,0 -3.8755,2.1563 -3.8755,4.2958 0,2.0338 1.0171,4.5414 3.8755,4.5414 2.8579,0 3.8748,-2.5076 3.8748,-4.5414 0,-2.1395 -1.4378,-4.2958 -3.8748,-4.2958z"/>
    <path id="_153576488" class="fil0" d="M64.4637 59.9387c-0.7189,-0.8766 -1.8061,-1.4028 -2.9109,-1.4028 -2.4724,0 -3.8927,2.2794 -3.8927,4.5596 0,2.2268 1.473,4.4532 3.8753,4.4532 1.1047,0 2.2094,-0.5787 2.9283,-1.4022l0 3.068c-0.9645,0.4563 -1.9289,0.7892 -2.9987,0.7892 -3.7171,0 -6.4701,-3.2086 -6.4701,-6.8557 0,-3.7528 2.6477,-7.0665 6.523,-7.0665 1.0344,0 2.0513,0.2807 2.9458,0.7711l0 3.0861z"/>
    <polygon id="_153576416" class="fil0" points="68.7404,69.6531 66.1629,69.6531 66.1629,56.4321 68.7404,56.4321 "/>
    <path id="_153576344" class="fil0" d="M73.3161 66.8651l-1.0873 2.788 -2.7178 0 5.1554 -13.5716 1.9989 0 5.015 13.5716 -2.7533 0 -1.0169 -2.788 -4.594 0zm2.2269 -6.9089l0 0 -0.0349 0 -1.4557 4.8051 3.1389 0 -1.6483 -4.8051z"/>
    <polygon id="_153576272" class="fil0" points="85.0445,67.4088 88.6918,67.4088 88.6918,69.6531 82.4671,69.6531 82.4671,56.4321 85.0445,56.4321 "/>
    <path id="_153576200" class="fil0" d="M103.418 59.9387c-0.7188,-0.8766 -1.8061,-1.4028 -2.9108,-1.4028 -2.4724,0 -3.8927,2.2794 -3.8927,4.5596 0,2.2268 1.4729,4.4532 3.8752,4.4532 1.1047,0 2.2095,-0.5787 2.9283,-1.4022l0 3.068c-0.9644,0.4563 -1.9289,0.7892 -2.9985,0.7892 -3.7172,0 -6.4702,-3.2086 -6.4702,-6.8557 0,-3.7528 2.6477,-7.0665 6.5229,-7.0665 1.0344,0 2.0515,0.2807 2.9458,0.7711l0 3.0861z"/>
    <path id="_153576128" class="fil0" d="M111.027 70.0037c-4.033,0 -6.5406,-3.0861 -6.5406,-6.9789 0,-3.9277 2.5952,-6.9433 6.5406,-6.9433 3.9452,0 6.5401,3.0156 6.5401,6.9433 0,3.8928 -2.5074,6.9789 -6.5401,6.9789zm0 -11.3796l0 0c-2.4376,0 -3.8752,2.1563 -3.8752,4.2958 0,2.0338 1.0171,4.5414 3.8752,4.5414 2.858,0 3.8753,-2.5076 3.8753,-4.5414 0,-2.1395 -1.4382,-4.2958 -3.8753,-4.2958z"/>
    <path id="_153576056" class="fil0" d="M118.827 56.4321l3.6828 0c3.8222,0 6.3821,2.858 6.3821,6.6277 0,3.7178 -2.6298,6.5933 -6.4001,6.5933l-3.6648 0 0 -13.221zm2.5781 10.9767l0 0 0.4205 0c3.1735,0 4.4015,-1.7534 4.4015,-4.3665 0,-2.8754 -1.4728,-4.3657 -4.4015,-4.3657l-0.4205 0 0 8.7322z"/>
    <polygon id="_153575504" class="fil0" points="132.73,69.6531 130.152,69.6531 130.152,56.4321 132.73,56.4321 "/>
    <polygon id="_153574688" class="fil0" points="134.605,56.0815 136.464,56.0815 143.425,65.3223 143.46,65.3223 143.46,56.4321 146.038,56.4321 146.038,69.9162 144.179,69.9162 137.218,60.6754 137.183,60.6754 137.183,69.6531 134.605,69.6531 "/>
    <path id="_153575624" class="fil0" d="M159.59 62.6218l0 0.3331c0,3.7347 -1.9114,7.0488 -6.0141,7.0488 -3.8579,0 -6.2953,-3.261 -6.2953,-6.9082 0,-3.7703 2.5075,-7.014 6.4528,-7.014 2.2444,0 4.2083,1.1398 5.2256,3.1561l-2.2795 1.2274c-0.5262,-1.1922 -1.6484,-2.104 -3.0161,-2.104 -2.4901,0 -3.7173,2.5426 -3.7173,4.7345 0,2.1913 1.2447,4.6287 3.7348,4.6287 1.6133,0 2.9636,-1.4026 3.0161,-2.9986l-2.8057 0 0 -2.1038 5.6987 0z"/>
   </g>
  </g>
 </g>
</svg>
