P1
# CREATOR: GIMP PNM Filter Version 1.1
11 13
0000111000100001110001000001000100001111110000101110000001011100000010
1110000001011100000000101000000001010000000010100000000101000000011011
000