P1
# CREATOR: GIMP PNM Filter Version 1.1
11 13
1000111000010001110000010001000000011111100000001110100000011101000000
1110100000011101000000101000000001010000000010100000000101000000011011
000