P1
# CREATOR: GIMP PNM Filter Version 1.1
11 13
0000111000000001110000000001000000001111100000101110100001011101000010
1110100001011101000000101000000001010000000010100000000101000000011011
000