P1
# CREATOR: GIMP PNM Filter Version 1.1
11 13
1000111000110001110001010001000100011111110000001110000000011100000000
1110000000011100000000101000000001010000000010100000000101000000011011
000