P1
# CREATOR: GIMP PNM Filter Version 1.1
12 20
0001111100000011111110100011010110110011111110110001101100110000111000
1101111111111111111111111011011111000011011111000011011111000011011111
0000110111110000010110110000000110110000000110110000000110110000000110
110000001110111000011110111100