P1
# CREATOR: GIMP PNM Filter Version 1.1
14 20
0001111100000000111111100000001101011000100011111110001100011011000111
0000111000111001111111111100111111111110001101111100000011011111000000
1101111100000011011111000000110111110000000101101100000000011011000000
0001101100000000011011000000000110110000000011101110000001111011110000