P1
# CREATOR: GIMP PNM Filter Version 1.1
11 20
0001111100000111111100001101011000011111110000011011000000011100000111
1111110111111111111101111101111011111011110111110111101111101111011111
0110101101101000011011000000110110000001101100000011011000001110111000
1111011110