P1
# CREATOR: GIMP PNM Filter Version 1.1
28 20
0000000011111111111100000000000000011111111111111000000000000011111111
1111111100000000011011111111111111110110000001111001111001111001111000
0001111001111001111001111000000110111111111111111101100000000011111111
1111111100000000000001111111111111100000000000000011000000001100000000
0000000111111111111110000000000000011111111111111000000000000001111111
1111111000000000000111111101101111111000000000111111110110111111110000
0001110111110110111110111000001110011111011011111001110001110000000001
1000000000111011110000000011110000000011111111000000001111000000001111