P1
# CREATOR: GIMP PNM Filter Version 1.1
16 16
0000001111000000000001111110000000001111111100000001111111111000001111
1111111100011111111111111011111001100111111111100110011111111111111111
1111111111111111111100001100001100000001110000111000001100000000110000
1100000000110000011100001110000000110000110000