P1
# CREATOR: GIMP PNM Filter Version 1.1
16 19
0110000000000110011100000000111000111000000111000001110000111000000011
1111110000000111111111100000011001100110000011100110011100111111111111
1111111111111111111111111111111111111110110000110111110011000011001111
0011000011001111001100001100110110110000110110000011000011000000001110
011100000000011001100000