P1
# CREATOR: GIMP PNM Filter Version 1.1
36 20
0000000000000111100111100000000000000000000000000111100111100000000000
0000000000000000110000110000000000000000000000000111111111111110000000
0000000000000111100011110001111000000000000000011111100011110001111110
0000000000011111111111111111111111111000000001111111111111111111111111
1111100001111111111111111111111111111111111011111110110110110110110110
1101111111011111100000000000000000000001111110000111111111111111111111
1111111110000011111111111111111111111111111111000111110000000011000011
0000000011111011111100000000011001100000000011111111111111111110000000
0001111111111111111111111111110000000011111111111111011111100000000000
0000000000011111100011111111111100000000111111111111000001111111111000
00000001111111111000