P1
# CREATOR: GIMP PNM Filter Version 1.1
14 15
0011000000110000110000001100011111111111100111001100111000110011001100
0001111111100000111100111100011011001101101100111111001110000111100001
0000011110000000000000000000000111111110000111111111111001100000000110