P1
# CREATOR: GIMP PNM Filter Version 1.1
14 6
1110000000000001110000000110011111111111110111111111111101110000000110
11100000000000