P1
# CREATOR: GIMP PNM Filter Version 1.1
90 64
0000111111111111111111111111111111111111111111111111111111111111111111
1111111111111111000000111111111111111111111111111111111111111111111111
1111111111111111111111111111111111111100011110000000000000000000000000
0000000000000000000000000000000000000000000000000000000111100110000000
0001111111111100000000000000001111111111000000000000011111111110000000
0000000110111000000000011111111111111000000000001111111111111100000000
0001111111111000000000000001111100000000000111111111111111000000000111
1111111111111000000000011111111110000000000000001111000000000001111111
1111111110000000011111111111111110000000001111111111110000000000000011
1100000000000111111100111111100000000111111100111111100000000011111111
1111000000000000001111000000000001111111001111111000000001111111001111
1110000000001111111111110000000000000011110000000000011111110011111110
0000000111111100111111100000000011111111111100000000000000111100000000
0001111111001111111000000001111111001111111000000001111111111111100000
0000000011110000000000011111110011111110000000011111110011111110000000
0111111111111110000000000000111100000000000111111100111111100000000111
1111001111111000000001111111111111100000000000001111000000000001111111
0011111110000000011111110011111110000000011111100111111000000000000011
1100000000000111111111111111000000000111111100000000000000000111111001
1111100000000000001111000000000001111111111111100000000001111111000000
0000000000011111100111111000000000000011110000000000011111111111111100
0000000111111100000000000000000111111001111110000000000000111100000000
0001111111111111111000000001111111001111111000000011111110011111110000
0000000011110000000000011111110011111110000000011111110011111110000000
1111111111111111000000000000111100000000000111111100111111100000000111
1111001111111000000011111111111111110000000000001111000000000001111111
0011111110000000011111110011111110000000111111111111111100000000000011
1100000000000111111100111111100000000111111100111111100000001111111111
1111110000000000001111000000000001111111001111111000000001111111111111
1110000000111111100111111100000000000011110000000000011111110011111110
0000000111111111111111100000001111111001111111000000000000111100000000
0001111111001111111000000000111111111111110000000011111110011111110000
0000000011110000000000011111110011111110000000000011111111110000000000
1111111001111111000000000000111100000000000000000000000000000000000000
0000000000000000000000000000000000000000000000001111111111111111111111
1111111111111111111111111111111111111111111111111111111111111111111111
1100000000000000000000000000000000000000000000000000000000000000000000
0000000000000000001111000110000001000000010000000000000100000010000001
0000000000100000000000000000010100000011110001010000010000000100000000
0000010000001000001010000000001000000000000000000101000000111100010100
1001100010011001001000110100101011000010101110011011000100010000010001
0100000011110001100101010101010100101011010001001010101000111000101000
1010101010100010100101000000111100010101010101010101001110100100010010
1010100010101110100010101100101000110001010000001111000101010101010101
0100100010010001001010101000101010101000101010001010001000010100000011
1100010100100110001000100100100011001001101100001010111001101010010010
1000010100100100001111000000000000000000000000000000000000000000000000
0000000000000000000000000000000000000011111111111111111111111111111111
1111111111111111111111111111111111111111111111111111111111111100000000
0000000000000000000100000000000000000000000000000010000000000000000000
0000000011110000000000000000000000000001000000000000000000000000000000
1001111111111111111111111100111100000000000000000011110000010000000000
0000000000000000000010010000000000000000000001001111000000000000000000
1000100001000000000011111000000000000000100100110111001001100111010011
1100000000000000000010000100010000000000111111000000000000001001010000
1001010101001001001111111111111111111111100001000100000000000111111000
0000000000100100100010010101100010010011110000000000000000001000010001
0000000000001111110000000000001001000100100111010100100100111100111111
1000000000100001111100000000000001111100000000000010010110001001010101
0010010011110010000010001110001000010001000000000000001111000000000000
1001000000000000000000000100111111100000111111111110000100010000000000
0000111100000000000010011111111111111111111111001111001000001000111000
1000010001000000000000001111000000000000100000000000001000000000000011
1100111111100001000010001000010011000000000011110000000000001000000000
0000100000000000001111000000000000010000111100000100111000000000111110
0000000000100000000000110110000000000011110000000000000100000000000001
0011110000000011111100000000001000000000110000011000000000111100000000
0011111110000000000100111110000001111111100000000010000000110000000001
1000000011110000000000000000000000000001001111111111111111111100000000
1000001100100000010001100000111100000000001111111000000000010001111111
1111111111111000000010001100000001101010000110001111000000000000010000
0000000001000011111111111111111111000000101100000010000010100000011111
1100000000000001000000000000010000011111111111100111111000001000110000
1001101010000110001111000000000000010000000000000100000000000111111000
1111110000100000110001000001000110000011110000000000001110000000000001
0000000000001111110001111110001000000011000000000110000000111111111111
1111111111111111111100000000000001111110001111110010000000001100000110
0000000111011000000000001110000000000001000000000000001111110001111110
1000000000001101100000000001100111100000000000000000000000010000000000
0000011111100011111110000000000000100000000001111000111111111111111111
1111111111111111111111111111111111111111111111111111111111111111111100
0000111111111111111111111111111111111111111111111111111111111111111111
11111111111111110000