P1
# CREATOR: GIMP PNM Filter Version 1.1
64 64
0000000000000000000000000000000000000000000000000000000000000000000000
0000000000000000000000000000000000000000000000000000000000000000000000
0000000000000000000000000000000000000000000000000000000000000000000000
0000000000000000000000000000000000000000000000000000000000000000000000
0000000000000000000000000000000000000000000000000000000000000000000000
0000000000000000000000000000000000000000000000000000000000000000000000
0000000000000000000000000000000000000000000000000000000000000000001111
1100000000000000000000000000000000000000000000000000000001111111111100
0000000000000000000000000000000000000000000000001111111111111110000000
0000000000000000000000000000000000000000111111111111111111000000000000
0000000000000000000000000000000111111111111111111111000000000000000000
0000000000000000000000001111111111111111111111000000000000000000000000
0000000000000000111111111100000001111111000000000000000000000000000000
0000000001111111110000000001111111000000000000000000000000000000000000
0111111111000000000001111111000000000000000000000000000000000000111111
1100000000000011111110000000000000000000000000000000000001111111100000
0000000011111110000000000000000000000000000000000001111111000000000000
0111111100000000000000000000000000000000000011111110000000000000011111
1100000000000000000000000000000000000111111100000000000000111111110000
0000000000000000000000000000000111111100000000000001111111100000000000
0000000000000000000000001111111000000000000011111111100000000000000000
0000000000000000001111111000000000000111111111000000000000000000000000
0000000000011111110000000000001111111111000000000000000000000000000000
0000011111110000000000111111111111000000000000000000000000000000000001
1111110000000001111111111110000000000000000000000000000000000001111111
1000001111111111111110000000000000000000000000000000000001111111111111
1111111111111110000000000000000000000000000000000000111111111111111111
1111111100000000000000000000000000000000000000111111111111111111011111
1100000000000000000000000000000000000000011111111111111110011111110000
0000000000000000000000000000000000011111111111111000011111100000000000
0000000000000000000000000000000111111111000000011111100000000000000000
0000000000000000000000000000000000000000111111100000000000000000000000
0000000000000000000000000000000000111111000000000000000000000000000000
0000000000000000000000000000111111000000000000000000000000000000000000
0000000000000000000000111111000000000000000000000000000000000000000000
0000000000000001111111000000000000000000000000000000000000000000000000
0000000001111110000000000000000000000000000000000000000000000000000000
0001111110000000000000000000000000000000000000000000000000000000000111
1110000000000000000000000000000000000000000000000000000000001111111000
0000000000000000000000000000000000000000000000000000001111110000000000
0000000000000000000000000000000000000000000000001111110000000000000000
0000000000000000000000000000000000000000001111110000000000000000000000
0000000000000000000000000000000000011111110000000000000000000000000000
0000000000000000000000000000011111110000000000000000000000000000000000
0000000000000000000000011111100000000000000000000000000000000000000000
0000000000000000011111100000000000000000000000000000000000000000000000
0000000000011111100000000000000000000000000000000000000000000000000000
0000111111100000000000000000000000000000000000000000000000000000000011
1111100000000000000000000000000000000000000000000000000000000011111110
0000000000000000000000000000000000000000000000000000000011111110000000
0000000000000000000000000000000000000000000000000011111100000000000000
0000000000000000000000000000000000000000000011111100000000000000000000
0000000000000000000000000000000000000001111000000000000000000000000000
0000000000000000000000000000000000000000000000000000000000000000000000
0000000000000000000000000000000000000000000000000000000000000000000000
0000000000000000000000000000000000000000000000000000000000000000000000
0000000000000000000000000000000000000000000000000000000000000000000000
0000000000000000000000000000000000000000000000000000000000000000000000
000000000000000000000000000000000000