P1
# CREATOR: GIMP PNM Filter Version 1.1
64 64
0000000000000000000000000000000000000000000000000000000000000000000000
0000000000000000000000000000000000000000000000000000000000000000000000
0000000000000000000000000000000000000000000000000000000000000000000000
0000000000000000000000000000000000000000000000000000000000000000000000
0000000000000000000000000000000000000000000000000000000000000000000000
0000000000000000000000000000000000000000000000000000000000000000000000
0000000000000000000000000000000000000000000000000000000000001111000000
0000000000000000000000000000000000000000000000000000011111100000000000
0000000000000000000000000000000000000000000000111111100000000000000000
0000000000000000000000000000000000000000111111100000000000000000000000
0000000000000000000000000000000001111111110000000000000000000000000000
0000000000000000000000000011111111110000000000000000000000000000000000
0000000000000000000011111111110000000000000000000000000000000000000000
0000000000000111111111110000000000000000000000000000000000000000000000
0000001111111111110000000000000000000000000000000000000000000000000000
1111111111110000000000000000000000000000000000000000000000000001111111
1111110000000000000000000000000000000000000000000000000011111111111111
0000000000000000000000000000000000000000000000000111111110111111000000
0000000000000000000000000000000000000000001111111100111111000000000000
0000000000000000000000000000000000001111111100111111000000000000000000
0000000000000000000000000000011111111000111111000000000000000000000000
0000000000000000000000111111110000111111000000000000000000000000000000
0000000000000001111111100000111111000000000000000000000000000000000000
0000000001111111000000111111000000000000000000000000000000000000000000
0001111110000000111111000000000000000000000000000000000000000000000011
1100000000111111000000000000000000000000000000000000000000000000000000
0000111111000000000000000000000000000000000000000000000000000000000011
1111100000000000000000000000000000000000000000000000000000000011111110
0000000000000000000000000000000000000000000000000000000011111110000000
0000000000000000000000000000000000000000000000000011111110000000000000
0000000000000000000000000000000000000000000011111110000000000000000000
0000000000000000000000000000000000000011111110000000000000000000000000
0000000000000000000000000000000011111110000000000000000000000000000000
0000000000000000000000000011111110000000000000000000000000000000000000
0000000000000000000011111110000000000000000000000000000000000000000000
0000000000000011111110000000000000000000000000000000000000000000000000
0000000011111110000000000000000000000000000000000000000000000000000000
0011111110000000000000000000000000000000000000000000000000000000001111
1110000000000000000000000000000000000000000000000000000000001111111000
0000000000000000000000000000000000000000000000000000001111111000000000
0000000000000000000000000000000000000000000000001111111000000000000000
0000000000000000000000000000000000000000001111111000000000000000000000
0000000000000000000000000000000000000111111000000000000000000000000000
0000000000000000000000000000000111111000000000000000000000000000000000
0000000000000000000000000111111000000000000000000000000000000000000000
0000000000000000000111111000000000000000000000000000000000000000000000
0000000000000111111000000000000000000000000000000000000000000000000000
0000000111111000000000000000000000000000000000000000000000000000000000
0111111000000000000000000000000000000000000000000000000000000000001111
1000000000000000000000000000000000000000000000000000000000001111100000
0000000000000000000000000000000000000000000000000000001111100000000000
0000000000000000000000000000000000000000000000000111000000000000000000
0000000000000000000000000000000000000000000000000000000000000000000000
0000000000000000000000000000000000000000000000000000000000000000000000
0000000000000000000000000000000000000000000000000000000000000000000000
0000000000000000000000000000000000000000000000000000000000000000000000
0000000000000000000000000000000000000000000000000000000000000000000000
0000000000000000000000000000000000000000000000000000000000000000000000
000000000000000000000000000000000000