P1
# CREATOR: GIMP PNM Filter Version 1.1
64 64
0000000000000000000000000000000000000000000000000000000000000000000000
0000000000000000000000000000000000000000000000000000000000000000000000
0000000000000000000000000000000000000000000000000000000000000000000000
0000000000000000000000000000000000000000000000000000000000000000000000
0000000000000000000000000000000000000000000000000000000000000000000000
0000000000000000000000000000000000000000000000000000000000000000000000
0000000000000000000000000000000000000000000000000000000000000001111111
0000000000000000000000000000000000000000000000000001111111111111100000
0000000000000000000000000000000000000001111111111111111111110000000000
0000000000000000000000000000111111111111111111111111110000000000000000
0000000000000000000000111111111111111111111111110000000000000000000000
0000000000000000111111111111111111111111110000000000000000000000000000
0000000000111111111111111111111111110000000000000000000000000000000000
0000111111111111111111111111110000000000000000000000000000000000000011
1111000000000000001111110000000000000000000000000000000000000011111100
0000000000011111110000000000000000000000000000000000000011111100000000
0000011111110000000000000000000000000000000000000011111100000000000001
1111100000000000000000000000000000000000000011111100000000000001111110
0000000000000000000000000000000000000011111100000000000001111110000000
0000000000000000000000000000000011111100000000000001111110000000000000
0000000000000000000000000011111100000000000011111110000000000000000000
0000000000000000000011111100000000000011111110000000000000000000000000
0000000000000011111100000000000011111100000000000000000000000000000000
0000000011111100000000000011111100000000000000000000000000000000000000
0011111100000000000011111100000000000000000000000000000000000000001111
1000000000000111111100000000000000000000000000000000000000000111100000
0000000111111100000000000000000000000000000000000000000111000000000000
0111111100000000000000000000000000000000000000000000000000000000011111
1000000000000000000000000000000000000000000000000000000000011111100000
0000000000000000000000000000000000000000000000000000111111100000000000
0000000000000000000000000000000000000000000000111111100000000000000000
0000000000000000000000000000000000000000111111100000000000000000000000
0000000000000000000000000000000000111111100000000000000000000000000000
0000000000000000000000000001111111000000000000000000000000000000000000
0000000000000000000001111111000000000000000000000000000000000000000000
0000000000000001111111000000000000000000000000000000000000000000000000
0000000011111111000000000000000000000000000000000000000000000000000000
0011111111000000000000000000000000000000000000000000000000000000001111
1110000000000000000000000000000000000000000000000000000000001111111000
0000000000000000000000000000000000000000000000000000011111111000000000
0000000000000000000000000000000000000000000000011111111000000000000000
0000000000000000000000000000000000000000011111111000000000000000000000
0000000000000000000000000000000000111111110000000000000000000000000000
0000000000000000000000000000111111110000000000000000000000000000000000
0000000000000000000000111111110000000000000000000000000000000000000000
0000000000000000111111110000000000000000000000000000000000000000000000
0000000001111111110000000000000000000000000000000000000000000000000000
0001111111100000000000000000000000000000000000000000000000000000000111
1111100000000000000000000000000000000000000000000000000000000111111110
0000000000000000000000000000000000000000000000000000000111111110000000
0000000000000000000000000000000000000000000000000111111100000000000000
0000000000000000000000000000000000000000000011111000000000000000000000
0000000000000000000000000000000000000000000000000000000000000000000000
0000000000000000000000000000000000000000000000000000000000000000000000
0000000000000000000000000000000000000000000000000000000000000000000000
0000000000000000000000000000000000000000000000000000000000000000000000
0000000000000000000000000000000000000000000000000000000000000000000000
0000000000000000000000000000000000000000000000000000000000000000000000
000000000000000000000000000000000000