P1
# CREATOR: GIMP PNM Filter Version 1.1
64 64
0000000000000000000000000000000000000000000000000000000000000000000000
0000000000000000000000000000000000000000000000000000000000000000000000
0000000000000000000000000000000000000000000000000000000000000000000000
0000000000000000000000000000000000000000000000000000000000000000000000
0000000000000000000000000000000000000000000000000000000000000000000000
0000000000000000000000000000000000000000000000000000000000000000000000
0000000000000000000000000000000000000000000000000000000000000000000000
0011111100000000000000000000000000000000000000000000111111111111111111
1110000000000000000000000000000000000111111111111111111111111111111000
0000000000000000000000000000001111111111111111111111111111110000000000
0000000000000000000000001111111111111111111111111110000000000000000000
0000000000000000011111111111111111111111100000000000000000000000000000
0000000000011111111111111111110000000000000000000000000000000000000000
0000011111111000000000000000000000000000000000000000000000000000000001
1111110000000000000000000000000000000000000000000000000000000001111110
0000000000000000000000000000000000000000000000000000000001111110000000
0000000000000000000000000000000000000000000000000001111110000000000000
0000000000000000000000000000000000000000000001111111000000000000000000
0000000000000000000000000000000000000001111111000000000000000000000000
0000000000000000000000000000000001111111000000011111111000000000000000
0000000000000000000000000001111111000011111111111110000000000000000000
0000000000000000000001111111001111111111111111000000000000000000000000
0000000000000001111111111111111111111111000000000000000000000000000000
0000000001111111111111111111111111100000000000000000000000000000000000
0001111111111111111111111111100000000000000000000000000000000000000111
1111111111111000111111110000000000000000000000000000000000000111111111
1111000000011111110000000000000000000000000000000000000011111111110000
0000011111110000000000000000000000000000000000000011111111100000000000
1111111000000000000000000000000000000000000011111110000000000000111111
1000000000000000000000000000000000000001111100000000000000111111100000
0000000000000000000000000000000000111000000000000000111111100000000000
0000000000000000000000000000000000000000000000111111100000000000000000
0000000000000000000000000000000000000000111111100000000000000000000000
0000000000000000000000000000000000111111100000000000000000000000000000
0000000000000000000000000000111111100000000000000000000000000000000000
0000000000000000000000111111100000000000000000000000000000000000000000
0000000000000001111111000000000000000000000000000000000000000000000000
0000000001111111000000000000000000000000000000000000000000000000000000
0001111111000000000000000000000000000000000000000000000000000000001111
1111000000000000000000000000000000000111000000000000000000001111111000
0000000000000000000000000000000111100000000000000000001111111000000000
0000000000000000000000000111100000000000000000011111111000000000000000
0000000000000000000111110000000000000000111111110000000000000000000000
0000000000000111110000000000000000111111110000000000000000000000000000
0000000011111100000000000001111111100000000000000000000000000000000000
0011111111000000000111111111000000000000000000000000000000000000000111
1111111111111111111110000000000000000000000000000000000000000111111111
1111111111111100000000000000000000000000000000000000000011111111111111
1111111000000000000000000000000000000000000000000001111111111111111111
0000000000000000000000000000000000000000000000111111111111111000000000
0000000000000000000000000000000000000000001111111111000000000000000000
0000000000000000000000000000000000000000000000000000000000000000000000
0000000000000000000000000000000000000000000000000000000000000000000000
0000000000000000000000000000000000000000000000000000000000000000000000
0000000000000000000000000000000000000000000000000000000000000000000000
0000000000000000000000000000000000000000000000000000000000000000000000
0000000000000000000000000000000000000000000000000000000000000000000000
0000000000000000000000000000000000000000000000000000000000000000000000
000000000000000000000000000000000000