<?xml version="1.0" encoding="UTF-8" standalone="no"?>
<svg
   xmlns:dc="http://purl.org/dc/elements/1.1/"
   xmlns:cc="http://creativecommons.org/ns#"
   xmlns:rdf="http://www.w3.org/1999/02/22-rdf-syntax-ns#"
   xmlns:svg="http://www.w3.org/2000/svg"
   xmlns="http://www.w3.org/2000/svg"
   width="100.94992mm"
   height="139.55182mm"
   viewBox="0 0 357.69657 494.4749"
   id="svg2"
   version="1.1">
  <defs
     id="defs4" />
  <metadata
     id="metadata7">
    <rdf:RDF>
      <cc:Work
         rdf:about="">
        <dc:format>image/svg+xml</dc:format>
        <dc:type
           rdf:resource="http://purl.org/dc/dcmitype/StillImage" />
        <dc:title></dc:title>
      </cc:Work>
    </rdf:RDF>
  </metadata>
  <path
     id="path4461"
     d="m 236.42552,361.13214 20.18941,54.12627"
     style="display:inline;fill:none;fill-rule:evenodd;stroke:#000000;stroke-width:6;stroke-linecap:butt;stroke-linejoin:miter;stroke-miterlimit:4;stroke-dasharray:none;stroke-opacity:1" />
  <path
     id="path4146"
     d="m 161.61493,193.25838 -0.35279,18.51526 65.35279,48.48481 v 109.99998 l 15,59.99998 35,35"
     style="display:inline;fill:none;fill-rule:evenodd;stroke:#000000;stroke-width:6;stroke-linecap:butt;stroke-linejoin:miter;stroke-miterlimit:4;stroke-dasharray:none;stroke-opacity:1" />
  <path
     id="path4150"
     d="m 264.61493,243.25837 -28,22.00008 v 95 l 50,44.99996 10,35"
     style="display:inline;fill:none;fill-rule:evenodd;stroke:#000000;stroke-width:6;stroke-linecap:butt;stroke-linejoin:miter;stroke-miterlimit:4;stroke-dasharray:none;stroke-opacity:1" />
  <path
     id="path4152"
     d="m 151.61493,189.25838 -0.35279,27.51526 65.35279,48.48481 v 114.99998 l -14.99999,30.00002 -30.00001,29.99996 -40,-4e-5 -34.999999,20.00004"
     style="display:inline;fill:none;fill-rule:evenodd;stroke:#000000;stroke-width:6;stroke-linecap:butt;stroke-linejoin:miter;stroke-miterlimit:4;stroke-dasharray:none;stroke-opacity:1" />
  <path
     id="path4457"
     d="m 286.61493,405.25841 h 20"
     style="display:inline;fill:none;fill-rule:evenodd;stroke:#000000;stroke-width:6;stroke-linecap:butt;stroke-linejoin:miter;stroke-miterlimit:4;stroke-dasharray:none;stroke-opacity:1" />
  <path
     id="path4459"
     d="m 241.61493,430.25841 -20,35"
     style="display:inline;fill:none;fill-rule:evenodd;stroke:#000000;stroke-width:6;stroke-linecap:butt;stroke-linejoin:miter;stroke-miterlimit:4;stroke-dasharray:none;stroke-opacity:1" />
  <path
     id="path4463"
     d="m 171.11493,440.75841 -5,25"
     style="display:inline;fill:none;fill-rule:evenodd;stroke:#000000;stroke-width:6;stroke-linecap:butt;stroke-linejoin:miter;stroke-miterlimit:4;stroke-dasharray:none;stroke-opacity:1" />
  <path
     id="path4465"
     d="m 82.614931,377.25841 23.999999,13"
     style="display:inline;fill:none;fill-rule:evenodd;stroke:#000000;stroke-width:6;stroke-linecap:butt;stroke-linejoin:miter;stroke-miterlimit:4;stroke-dasharray:none;stroke-opacity:1" />
  <ellipse
     transform="scale(-1,1)"
     ry="4.5000062"
     rx="4.5"
     cy="405.75839"
     cx="-311.6149"
     id="path4469"
     style="display:inline;fill:none;fill-opacity:1;stroke:#000000;stroke-width:6;stroke-linecap:round;stroke-miterlimit:4;stroke-dasharray:none;stroke-dashoffset:0;stroke-opacity:1" />
  <ellipse
     transform="scale(-1,1)"
     style="display:inline;fill:none;fill-opacity:1;stroke:#000000;stroke-width:6;stroke-linecap:round;stroke-miterlimit:4;stroke-dasharray:none;stroke-dashoffset:0;stroke-opacity:1"
     id="ellipse4471"
     cx="-297.85727"
     cy="443.75839"
     rx="4.5"
     ry="4.5000062" />
  <ellipse
     transform="scale(-1,1)"
     ry="4.5000062"
     rx="4.5"
     cy="467.25845"
     cx="-277.61493"
     id="ellipse4473"
     style="display:inline;fill:none;fill-opacity:1;stroke:#000000;stroke-width:6;stroke-linecap:round;stroke-miterlimit:4;stroke-dasharray:none;stroke-dashoffset:0;stroke-opacity:1" />
  <ellipse
     transform="scale(-1,1)"
     style="display:inline;fill:none;fill-opacity:1;stroke:#000000;stroke-width:6;stroke-linecap:round;stroke-miterlimit:4;stroke-dasharray:none;stroke-dashoffset:0;stroke-opacity:1"
     id="ellipse4475"
     cx="-258.1149"
     cy="418.25842"
     rx="4.5"
     ry="4.5000062" />
  <ellipse
     transform="scale(-1,1)"
     ry="4.5000062"
     rx="4.5"
     cy="468.25842"
     cx="-220.11491"
     id="ellipse4477"
     style="display:inline;fill:none;fill-opacity:1;stroke:#000000;stroke-width:6;stroke-linecap:round;stroke-miterlimit:4;stroke-dasharray:none;stroke-dashoffset:0;stroke-opacity:1" />
  <ellipse
     transform="scale(-1,1)"
     style="display:inline;fill:none;fill-opacity:1;stroke:#000000;stroke-width:6;stroke-linecap:round;stroke-miterlimit:4;stroke-dasharray:none;stroke-dashoffset:0;stroke-opacity:1"
     id="ellipse4479"
     cx="-165.11493"
     cy="469.25839"
     rx="4.5"
     ry="4.5000062" />
  <ellipse
     transform="scale(-1,1)"
     ry="4.5000062"
     rx="4.5"
     cy="462.75839"
     cx="-94.614929"
     id="ellipse4481"
     style="display:inline;fill:none;fill-opacity:1;stroke:#000000;stroke-width:6;stroke-linecap:round;stroke-miterlimit:4;stroke-dasharray:none;stroke-dashoffset:0;stroke-opacity:1" />
  <ellipse
     transform="scale(-1,1)"
     style="display:inline;fill:none;fill-opacity:1;stroke:#000000;stroke-width:6;stroke-linecap:round;stroke-miterlimit:4;stroke-dasharray:none;stroke-dashoffset:0;stroke-opacity:1"
     id="ellipse4483"
     cx="-172.11491"
     cy="410.25839"
     rx="4.5"
     ry="4.5000062" />
  <ellipse
     transform="scale(-1,1)"
     ry="4.5000062"
     rx="4.5"
     cy="427.52484"
     cx="-64.191071"
     id="ellipse4485"
     style="display:inline;fill:none;fill-opacity:1;stroke:#000000;stroke-width:6;stroke-linecap:round;stroke-miterlimit:4;stroke-dasharray:none;stroke-dashoffset:0;stroke-opacity:1" />
  <path
     id="path4465-3"
     d="m 201.61494,410.25845 14.99999,14.99996"
     style="display:inline;fill:none;fill-rule:evenodd;stroke:#000000;stroke-width:6;stroke-linecap:butt;stroke-linejoin:miter;stroke-miterlimit:4;stroke-dasharray:none;stroke-opacity:1" />
  <ellipse
     transform="scale(-1,1)"
     style="display:inline;fill:none;fill-opacity:1;stroke:#000000;stroke-width:6;stroke-linecap:round;stroke-miterlimit:4;stroke-dasharray:none;stroke-dashoffset:0;stroke-opacity:1"
     id="ellipse4483-6"
     cx="-219.61491"
     cy="428.75839"
     rx="4.5"
     ry="4.5000062" />
  <g
     transform="translate(-34.298371,60.821995)"
     id="g4211">
    <g
       id="text4498"
       style="font-style:normal;font-weight:normal;font-size:37.16729736px;line-height:125%;font-family:Sans;letter-spacing:0px;word-spacing:0px;fill:#000000;fill-opacity:1;stroke:none;stroke-width:1px;stroke-linecap:butt;stroke-linejoin:miter;stroke-opacity:1"
       transform="scale(1.0038729,0.99614204)"
       aria-label="mod">
      <path
         id="path158"
         style="font-style:normal;font-variant:normal;font-weight:normal;font-stretch:normal;font-size:92.91824341px;font-family:Ubuntu;-inkscape-font-specification:Ubuntu"
         d="m 51.814235,245.95419 q 2.973384,-0.74335 7.805132,-1.57961 4.924667,-0.83627 11.336026,-0.83627 4.645912,0 7.805133,1.30086 3.15922,1.20793 5.296339,3.62381 0.650428,-0.46459 2.044202,-1.30086 1.393773,-0.83626 3.437975,-1.57961 2.044201,-0.83626 4.552994,-1.39377 2.508792,-0.65043 5.389258,-0.65043 5.575096,0 9.105986,1.67253 3.53089,1.57961 5.48218,4.55299 2.0442,2.97339 2.69463,7.06179 0.74334,4.0884 0.74334,8.92015 v 27.13213 h -8.64139 v -25.27376 q 0,-4.27424 -0.46459,-7.34054 -0.37168,-3.06631 -1.57961,-5.11051 -1.11502,-2.0442 -3.15923,-2.97338 -1.95128,-1.0221 -5.110499,-1.0221 -4.367157,0 -7.247623,1.20794 -2.787547,1.11501 -3.809648,2.0442 0.743346,2.41587 1.115019,5.29634 0.371673,2.88046 0.371673,6.03968 v 27.13213 h -8.641396 v -25.27376 q 0,-4.27424 -0.464592,-7.34054 -0.464591,-3.06631 -1.672528,-5.11051 -1.115019,-2.0442 -3.15922,-2.97338 -1.951283,-1.0221 -5.017585,-1.0221 -1.300856,0 -2.787548,0.0929 -1.486692,0.0929 -2.880465,0.27875 -1.300856,0.0929 -2.415875,0.27876 -1.115018,0.18583 -1.486691,0.27875 v 40.79111 h -8.641397 z" />
      <path
         id="path160"
         style="font-style:normal;font-variant:normal;font-weight:normal;font-stretch:normal;font-size:92.91824341px;font-family:Ubuntu;-inkscape-font-specification:Ubuntu"
         d="m 174.4968,268.71916 q 0,5.76093 -1.67252,10.40684 -1.67253,4.64591 -4.73883,7.99097 -2.97339,3.34505 -7.15471,5.20342 -4.18132,1.76545 -9.10599,1.76545 -4.92466,0 -9.10598,-1.76545 -4.18133,-1.85837 -7.24763,-5.20342 -2.97338,-3.34506 -4.64591,-7.99097 -1.67253,-4.64591 -1.67253,-10.40684 0,-5.66802 1.67253,-10.31393 1.67253,-4.73883 4.64591,-8.08389 3.0663,-3.34505 7.24763,-5.1105 4.18132,-1.85836 9.10598,-1.85836 4.92467,0 9.10599,1.85836 4.18132,1.76545 7.15471,5.1105 3.0663,3.34506 4.73883,8.08389 1.67252,4.64591 1.67252,10.31393 z m -9.01306,0 q 0,-8.17681 -3.71673,-12.91564 -3.62382,-4.83175 -9.94226,-4.83175 -6.31844,0 -10.03517,4.83175 -3.62381,4.73883 -3.62381,12.91564 0,8.1768 3.62381,13.00855 3.71673,4.73883 10.03517,4.73883 6.31844,0 9.94226,-4.73883 3.71673,-4.83175 3.71673,-13.00855 z" />
      <path
         id="path162"
         style="font-style:normal;font-variant:normal;font-weight:normal;font-stretch:normal;font-size:92.91824341px;font-family:Ubuntu;-inkscape-font-specification:Ubuntu"
         d="m 217.8751,254.78142 q -1.57961,-1.30086 -4.553,-2.50879 -2.97338,-1.20794 -6.50427,-1.20794 -3.71673,0 -6.41136,1.39377 -2.60171,1.30086 -4.27424,3.71673 -1.67253,2.32296 -2.41588,5.5751 -0.74334,3.25214 -0.74334,6.96887 0,8.45556 4.18132,13.10147 4.18132,4.55299 11.15019,4.55299 3.53089,0 5.85385,-0.27875 2.41587,-0.37168 3.71673,-0.74335 z m 0,-32.52139 8.64139,-1.48669 v 70.71079 q -2.97338,0.83626 -7.61929,1.67252 -4.64591,0.83627 -10.6856,0.83627 -5.5751,0 -10.03517,-1.76545 -4.46008,-1.76545 -7.6193,-5.01758 -3.15922,-3.25214 -4.92466,-7.89805 -1.67253,-4.73883 -1.67253,-10.59268 0,-5.5751 1.39377,-10.22101 1.48669,-4.64591 4.27424,-7.99097 2.78755,-3.34506 6.78303,-5.20342 4.08841,-1.85837 9.29183,-1.85837 4.18132,0 7.34054,1.11502 3.25214,1.11502 4.83175,2.13712 z" />
    </g>
  </g>
  <path
     style="display:inline;fill:none;fill-rule:evenodd;stroke:#000000;stroke-width:6;stroke-linecap:butt;stroke-linejoin:miter;stroke-miterlimit:4;stroke-dasharray:none;stroke-opacity:1"
     d="m 141.61493,185.25838 -0.35279,36.51526 65.35279,48.48481 v 90.04462 l -45,34.95534 -55,-5 -39.999999,34.99996"
     id="path4305" />
  <path
     style="display:inline;fill:none;fill-rule:evenodd;stroke:#000000;stroke-width:6;stroke-linecap:butt;stroke-linejoin:miter;stroke-miterlimit:4;stroke-dasharray:none;stroke-opacity:1"
     d="m 226.61493,260.25845 34,-28.00008"
     id="path4480" />
  <g
     id="g4502"
     transform="translate(246.70164,60.821995)">
    <g
       id="text4508"
       style="font-style:normal;font-weight:normal;font-size:37.16729736px;line-height:125%;font-family:Sans;letter-spacing:0px;word-spacing:0px;fill:#000000;fill-opacity:1;stroke:none;stroke-width:1px;stroke-linecap:butt;stroke-linejoin:miter;stroke-opacity:1"
       transform="scale(1.0038729,0.99614204)"
       aria-label="m">
      <path
         id="path155"
         style="font-style:normal;font-variant:normal;font-weight:normal;font-stretch:normal;font-size:92.91824341px;font-family:Ubuntu;-inkscape-font-specification:Ubuntu"
         d="m 4.4029035,244.78735 q 2.9733838,-0.74335 7.8051325,-1.57961 4.924667,-0.83627 11.336026,-0.83627 4.645912,0 7.805132,1.30086 3.15922,1.20793 5.29634,3.62381 0.650428,-0.46459 2.044201,-1.30086 1.393774,-0.83626 3.437975,-1.57961 2.044202,-0.83626 4.552994,-1.39377 2.508793,-0.65043 5.389258,-0.65043 5.575095,0 9.105988,1.67253 3.530893,1.57961 5.482177,4.55299 2.044201,2.97339 2.694629,7.06179 0.743346,4.0884 0.743346,8.92015 v 27.13213 H 61.454705 V 266.4373 q 0,-4.27424 -0.464591,-7.34054 -0.371673,-3.06631 -1.57961,-5.11051 -1.115019,-2.0442 -3.159221,-2.97338 -1.951283,-1.0221 -5.110503,-1.0221 -4.367157,0 -7.247623,1.20794 -2.787547,1.11501 -3.809648,2.0442 0.743346,2.41587 1.115019,5.29634 0.371673,2.88046 0.371673,6.03968 v 27.13213 H 32.928804 V 266.4373 q 0,-4.27424 -0.464591,-7.34054 -0.464591,-3.06631 -1.672528,-5.11051 -1.115019,-2.0442 -3.159221,-2.97338 -1.951283,-1.0221 -5.017585,-1.0221 -1.300855,0 -2.787547,0.0929 -1.486692,0.0929 -2.880466,0.27875 -1.300855,0.0929 -2.415874,0.27876 -1.115019,0.18583 -1.486692,0.27875 v 40.79111 H 4.4029035 Z" />
    </g>
  </g>
  <path
     style="display:inline;fill:none;fill-rule:evenodd;stroke:#000000;stroke-width:6;stroke-linecap:butt;stroke-linejoin:miter;stroke-miterlimit:4;stroke-dasharray:none;stroke-opacity:1"
     d="m 161.61493,395.25842 8,10.99999"
     id="path4257" />
  <ellipse
     ry="4.5000062"
     rx="4.5"
     cy="375.25839"
     cx="-78.114929"
     id="ellipse4259"
     style="display:inline;fill:none;fill-opacity:1;stroke:#000000;stroke-width:6;stroke-linecap:round;stroke-miterlimit:4;stroke-dasharray:none;stroke-dashoffset:0;stroke-opacity:1"
     transform="scale(-1,1)" />
  <path
     style="display:inline;fill:none;fill-rule:evenodd;stroke:#000000;stroke-width:6;stroke-linecap:butt;stroke-linejoin:miter;stroke-miterlimit:4;stroke-dasharray:none;stroke-opacity:1"
     d="m 131.61493,440.25837 -10,-8.49999"
     id="path4261" />
  <ellipse
     ry="4.5000062"
     rx="4.5"
     cy="-428.75836"
     cx="-117.11493"
     id="ellipse4263"
     style="display:inline;fill:none;fill-opacity:1;stroke:#000000;stroke-width:6;stroke-linecap:round;stroke-miterlimit:4;stroke-dasharray:none;stroke-dashoffset:0;stroke-opacity:1"
     transform="scale(-1)" />
  <g
     id="layer2"
     style="display:none"
     transform="translate(6.8983923,73.401556)">
    <path
       id="path4427"
       d="m 258.72826,171.60682 -5.37238,2.3707"
       style="display:inline;fill:none;fill-rule:evenodd;stroke:#000000;stroke-width:4;stroke-linecap:round;stroke-linejoin:miter;stroke-miterlimit:4;stroke-dasharray:none;stroke-opacity:1" />
    <path
       style="display:inline;fill:none;fill-rule:evenodd;stroke:#000000;stroke-width:4;stroke-linecap:round;stroke-linejoin:miter;stroke-miterlimit:4;stroke-dasharray:none;stroke-opacity:1"
       d="m 255.8307,165.04591 -5.37239,2.3707"
       id="path4429" />
    <path
       id="path4431"
       d="m 252.93314,158.48501 -5.37238,2.3707"
       style="display:inline;fill:none;fill-rule:evenodd;stroke:#000000;stroke-width:4;stroke-linecap:round;stroke-linejoin:miter;stroke-miterlimit:4;stroke-dasharray:none;stroke-opacity:1" />
    <path
       id="path4216"
       d="m 157.68936,124.11377 -4.54354,9.19133"
       style="display:inline;fill:none;fill-rule:evenodd;stroke:#000000;stroke-width:5.00000048;stroke-linecap:round;stroke-linejoin:miter;stroke-miterlimit:4;stroke-dasharray:none;stroke-opacity:1" />
    <path
       style="display:inline;fill:none;fill-rule:evenodd;stroke:#000000;stroke-width:5.00000048;stroke-linecap:round;stroke-linejoin:miter;stroke-miterlimit:4;stroke-dasharray:none;stroke-opacity:1"
       d="m 146.46224,118.56728 -4.54352,9.19134"
       id="path4218" />
    <path
       id="path4220"
       d="m 135.23513,113.0208 -4.54353,9.19134"
       style="display:inline;fill:none;fill-rule:evenodd;stroke:#000000;stroke-width:5.00000048;stroke-linecap:round;stroke-linejoin:miter;stroke-miterlimit:4;stroke-dasharray:none;stroke-opacity:1" />
  </g>
  <g
     id="layer3"
     style="display:inline">
    <g
       style="display:inline;fill:none;stroke:#000000"
       id="g4257"
       transform="matrix(0.74847412,0.36976559,-0.36994684,0.74838455,94.61631,-37.321364)">
      <path
         id="path4156"
         d="m 140,37.220811 0,12.424349"
         style="fill:none;fill-rule:evenodd;stroke:#000000;stroke-width:5.9892478;stroke-linecap:round;stroke-linejoin:miter;stroke-miterlimit:4;stroke-dasharray:none;stroke-opacity:1" />
      <path
         style="fill:none;fill-rule:evenodd;stroke:#000000;stroke-width:5.9892478;stroke-linecap:round;stroke-linejoin:miter;stroke-miterlimit:4;stroke-dasharray:none;stroke-opacity:1"
         d="m 125,37.398322 0,12.424348"
         id="path4158" />
      <path
         id="path4160"
         d="m 110,37.398322 0,12.424348"
         style="fill:none;fill-rule:evenodd;stroke:#000000;stroke-width:5.9892478;stroke-linecap:round;stroke-linejoin:miter;stroke-miterlimit:4;stroke-dasharray:none;stroke-opacity:1" />
      <path
         style="fill:none;fill-rule:evenodd;stroke:#000000;stroke-width:5.9892478;stroke-linecap:round;stroke-linejoin:miter;stroke-miterlimit:4;stroke-dasharray:none;stroke-opacity:1"
         d="M 95,37.398322 95,49.82267"
         id="path4162" />
      <path
         id="path4164"
         d="M 80,37.398322 80,49.82267"
         style="fill:none;fill-rule:evenodd;stroke:#000000;stroke-width:5.9892478;stroke-linecap:round;stroke-linejoin:miter;stroke-miterlimit:4;stroke-dasharray:none;stroke-opacity:1" />
      <path
         id="path4166"
         d="m 200,37.398322 0,12.424348"
         style="fill:none;fill-rule:evenodd;stroke:#000000;stroke-width:5.9892478;stroke-linecap:round;stroke-linejoin:miter;stroke-miterlimit:4;stroke-dasharray:none;stroke-opacity:1" />
      <path
         style="fill:none;fill-rule:evenodd;stroke:#000000;stroke-width:5.9892478;stroke-linecap:round;stroke-linejoin:miter;stroke-miterlimit:4;stroke-dasharray:none;stroke-opacity:1"
         d="m 185,37.398322 0,12.424348"
         id="path4168" />
      <path
         id="path4170"
         d="m 170,37.398322 0,12.424348"
         style="fill:none;fill-rule:evenodd;stroke:#000000;stroke-width:5.9892478;stroke-linecap:round;stroke-linejoin:miter;stroke-miterlimit:4;stroke-dasharray:none;stroke-opacity:1" />
      <path
         style="fill:none;fill-rule:evenodd;stroke:#000000;stroke-width:5.9892478;stroke-linecap:round;stroke-linejoin:miter;stroke-miterlimit:4;stroke-dasharray:none;stroke-opacity:1"
         d="m 155,37.398322 0,12.424348"
         id="path4172" />
    </g>
    <path
       transform="translate(6.8983923,73.401556)"
       id="path4206"
       d="m 112.84582,101.79651 -4.54351,9.19133"
       style="display:inline;fill:none;fill-rule:evenodd;stroke:#000000;stroke-width:5.00000048;stroke-linecap:round;stroke-linejoin:miter;stroke-miterlimit:4;stroke-dasharray:none;stroke-opacity:1" />
    <path
       transform="translate(6.8983923,73.401556)"
       style="display:inline;fill:none;fill-rule:evenodd;stroke:#000000;stroke-width:5.00000048;stroke-linecap:round;stroke-linejoin:miter;stroke-miterlimit:4;stroke-dasharray:none;stroke-opacity:1"
       d="m 101.55379,96.381347 -4.543519,9.191333"
       id="path4208" />
    <path
       transform="translate(6.8983923,73.401556)"
       id="path4210"
       d="M 90.326687,90.834862 85.783154,100.0262"
       style="display:inline;fill:none;fill-rule:evenodd;stroke:#000000;stroke-width:5.00000048;stroke-linecap:round;stroke-linejoin:miter;stroke-miterlimit:4;stroke-dasharray:none;stroke-opacity:1" />
    <path
       transform="translate(6.8983923,73.401556)"
       style="display:inline;fill:none;fill-rule:evenodd;stroke:#000000;stroke-width:5.00000048;stroke-linecap:round;stroke-linejoin:miter;stroke-miterlimit:4;stroke-dasharray:none;stroke-opacity:1"
       d="m 79.09957,85.288381 -4.543523,9.191336"
       id="path4212" />
    <path
       transform="translate(6.8983923,73.401556)"
       style="display:inline;fill:none;fill-rule:evenodd;stroke:#000000;stroke-width:5.00000048;stroke-linecap:round;stroke-linejoin:miter;stroke-miterlimit:4;stroke-dasharray:none;stroke-opacity:1"
       d="m 124.00802,107.47431 -4.54353,9.19134"
       id="path4222" />
    <g
       style="display:inline;stroke:#000000"
       id="g4318"
       transform="matrix(0.32065429,0.9471963,-0.9471963,0.32065429,245.85833,-67.242434)">
      <path
         style="fill:none;fill-rule:evenodd;stroke:#000000;stroke-width:5;stroke-linecap:round;stroke-linejoin:miter;stroke-miterlimit:4;stroke-dasharray:none;stroke-opacity:1"
         d="m 84.531343,204.42753 7.333373,-7.33515"
         id="path4290" />
      <path
         id="path4292"
         d="m 93.489748,213.17851 7.333372,-7.33515"
         style="fill:none;fill-rule:evenodd;stroke:#000000;stroke-width:5;stroke-linecap:round;stroke-linejoin:miter;stroke-miterlimit:4;stroke-dasharray:none;stroke-opacity:1" />
      <path
         style="fill:none;fill-rule:evenodd;stroke:#000000;stroke-width:5;stroke-linecap:round;stroke-linejoin:miter;stroke-miterlimit:4;stroke-dasharray:none;stroke-opacity:1"
         d="m 102.34338,222.03428 7.33337,-7.33515"
         id="path4294" />
      <path
         id="path4296"
         d="m 111.19701,230.89006 7.33337,-7.33515"
         style="fill:none;fill-rule:evenodd;stroke:#000000;stroke-width:5;stroke-linecap:round;stroke-linejoin:miter;stroke-miterlimit:4;stroke-dasharray:none;stroke-opacity:1" />
      <path
         style="fill:none;fill-rule:evenodd;stroke:#000000;stroke-width:5;stroke-linecap:round;stroke-linejoin:miter;stroke-miterlimit:4;stroke-dasharray:none;stroke-opacity:1"
         d="m 49.221595,168.89963 7.333373,-7.33514"
         id="path4300" />
      <path
         id="path4302"
         d="m 58.075226,177.75541 7.333372,-7.33515"
         style="fill:none;fill-rule:evenodd;stroke:#000000;stroke-width:5;stroke-linecap:round;stroke-linejoin:miter;stroke-miterlimit:4;stroke-dasharray:none;stroke-opacity:1" />
      <path
         style="fill:none;fill-rule:evenodd;stroke:#000000;stroke-width:5;stroke-linecap:round;stroke-linejoin:miter;stroke-miterlimit:4;stroke-dasharray:none;stroke-opacity:1"
         d="m 66.928856,186.61118 7.333373,-7.33514"
         id="path4304" />
      <path
         id="path4306"
         d="m 75.782487,195.46696 7.333372,-7.33515"
         style="fill:none;fill-rule:evenodd;stroke:#000000;stroke-width:5;stroke-linecap:round;stroke-linejoin:miter;stroke-miterlimit:4;stroke-dasharray:none;stroke-opacity:1" />
    </g>
    <g
       style="display:inline;fill:none;stroke:#000000"
       transform="matrix(0.36994684,-0.74838455,0.74847412,0.36976559,132.45719,234.98245)"
       id="g4308">
      <path
         id="path4310"
         d="m 140,37.220811 0,12.424349"
         style="fill:none;fill-rule:evenodd;stroke:#000000;stroke-width:5.9892478;stroke-linecap:round;stroke-linejoin:miter;stroke-miterlimit:4;stroke-dasharray:none;stroke-opacity:1" />
      <path
         style="fill:none;fill-rule:evenodd;stroke:#000000;stroke-width:5.9892478;stroke-linecap:round;stroke-linejoin:miter;stroke-miterlimit:4;stroke-dasharray:none;stroke-opacity:1"
         d="m 125,37.398322 0,12.424348"
         id="path4312" />
      <path
         id="path4314"
         d="m 110,37.398322 0,12.424348"
         style="fill:none;fill-rule:evenodd;stroke:#000000;stroke-width:5.9892478;stroke-linecap:round;stroke-linejoin:miter;stroke-miterlimit:4;stroke-dasharray:none;stroke-opacity:1" />
      <path
         style="fill:none;fill-rule:evenodd;stroke:#000000;stroke-width:5.9892478;stroke-linecap:round;stroke-linejoin:miter;stroke-miterlimit:4;stroke-dasharray:none;stroke-opacity:1"
         d="M 95,37.398322 95,49.82267"
         id="path4316" />
      <path
         id="path4318"
         d="M 80,37.398322 80,49.82267"
         style="fill:none;fill-rule:evenodd;stroke:#000000;stroke-width:5.9892478;stroke-linecap:round;stroke-linejoin:miter;stroke-miterlimit:4;stroke-dasharray:none;stroke-opacity:1" />
      <path
         id="path4320"
         d="m 200,37.398322 0,12.424348"
         style="fill:none;fill-rule:evenodd;stroke:#000000;stroke-width:5.9892478;stroke-linecap:round;stroke-linejoin:miter;stroke-miterlimit:4;stroke-dasharray:none;stroke-opacity:1" />
      <path
         style="fill:none;fill-rule:evenodd;stroke:#000000;stroke-width:5.9892478;stroke-linecap:round;stroke-linejoin:miter;stroke-miterlimit:4;stroke-dasharray:none;stroke-opacity:1"
         d="m 185,37.398322 0,12.424348"
         id="path4322" />
      <path
         id="path4324"
         d="m 170,37.398322 0,12.424348"
         style="fill:none;fill-rule:evenodd;stroke:#000000;stroke-width:5.9892478;stroke-linecap:round;stroke-linejoin:miter;stroke-miterlimit:4;stroke-dasharray:none;stroke-opacity:1" />
      <path
         style="fill:none;fill-rule:evenodd;stroke:#000000;stroke-width:5.9892478;stroke-linecap:round;stroke-linejoin:miter;stroke-miterlimit:4;stroke-dasharray:none;stroke-opacity:1"
         d="m 155,37.398322 0,12.424348"
         id="path4326" />
    </g>
    <path
       transform="translate(6.8983923,73.401556)"
       style="display:inline;fill:none;fill-opacity:1;stroke:#000000;stroke-width:8;stroke-linecap:round;stroke-miterlimit:4;stroke-dasharray:none;stroke-dashoffset:0;stroke-opacity:1"
       d="m 109.55568,-41.866074 11.1842,-3.786188 L 233.01098,9.8125348 173.81947,129.55405 54.063599,70.391589 Z"
       id="rect4140" />
    <path
       transform="translate(6.8983923,73.401556)"
       id="path4984"
       d="M 122.53687,-21.886685 205.4029,19.130887 164.47042,101.93709 81.65501,61.023252 Z"
       style="display:inline;fill:none;fill-opacity:1;stroke:#000000;stroke-width:8;stroke-linecap:round;stroke-miterlimit:4;stroke-dasharray:none;stroke-dashoffset:0;stroke-opacity:1" />
    <path
       transform="translate(6.8983923,73.401556)"
       id="path4298"
       d="m 50.368325,49.943024 9.299191,4.594322"
       style="display:inline;fill:none;fill-rule:evenodd;stroke:#000000;stroke-width:5;stroke-linecap:round;stroke-linejoin:miter;stroke-miterlimit:4;stroke-dasharray:none;stroke-opacity:1" />
    <path
       transform="translate(6.8983923,73.401556)"
       id="path4214"
       d="m 67.872446,79.741872 -4.543317,9.191447"
       style="display:inline;fill:none;fill-rule:evenodd;stroke:#000000;stroke-width:5.00000048;stroke-linecap:round;stroke-linejoin:miter;stroke-miterlimit:4;stroke-dasharray:none;stroke-opacity:1" />
    <g
       transform="matrix(0.19317067,0.43739383,-0.43743449,0.19302908,324.0127,122.66554)"
       id="g4395"
       style="display:inline;fill:none;stroke:#000000;stroke-width:8.36573505;stroke-miterlimit:4;stroke-dasharray:none">
      <path
         style="fill:none;fill-rule:evenodd;stroke:#000000;stroke-width:8.36573505;stroke-linecap:round;stroke-linejoin:miter;stroke-miterlimit:4;stroke-dasharray:none;stroke-opacity:1"
         d="m 140,37.220811 0,12.424349"
         id="path4397" />
      <path
         id="path4399"
         d="m 125,37.398322 0,12.424348"
         style="fill:none;fill-rule:evenodd;stroke:#000000;stroke-width:8.36573505;stroke-linecap:round;stroke-linejoin:miter;stroke-miterlimit:4;stroke-dasharray:none;stroke-opacity:1" />
      <path
         style="fill:none;fill-rule:evenodd;stroke:#000000;stroke-width:8.36573505;stroke-linecap:round;stroke-linejoin:miter;stroke-miterlimit:4;stroke-dasharray:none;stroke-opacity:1"
         d="m 110,37.398322 0,12.424348"
         id="path4401" />
      <path
         id="path4403"
         d="M 95,37.398322 95,49.82267"
         style="fill:none;fill-rule:evenodd;stroke:#000000;stroke-width:8.36573505;stroke-linecap:round;stroke-linejoin:miter;stroke-miterlimit:4;stroke-dasharray:none;stroke-opacity:1" />
      <path
         style="fill:none;fill-rule:evenodd;stroke:#000000;stroke-width:8.36573505;stroke-linecap:round;stroke-linejoin:miter;stroke-miterlimit:4;stroke-dasharray:none;stroke-opacity:1"
         d="M 80,37.398322 80,49.82267"
         id="path4405" />
      <path
         style="fill:none;fill-rule:evenodd;stroke:#000000;stroke-width:8.36573505;stroke-linecap:round;stroke-linejoin:miter;stroke-miterlimit:4;stroke-dasharray:none;stroke-opacity:1"
         d="m 200,37.398322 0,12.424348"
         id="path4407" />
      <path
         id="path4409"
         d="m 185,37.398322 0,12.424348"
         style="fill:none;fill-rule:evenodd;stroke:#000000;stroke-width:8.36573505;stroke-linecap:round;stroke-linejoin:miter;stroke-miterlimit:4;stroke-dasharray:none;stroke-opacity:1" />
      <path
         style="fill:none;fill-rule:evenodd;stroke:#000000;stroke-width:8.36573505;stroke-linecap:round;stroke-linejoin:miter;stroke-miterlimit:4;stroke-dasharray:none;stroke-opacity:1"
         d="m 170,37.398322 0,12.424348"
         id="path4411" />
      <path
         id="path4413"
         d="m 155,37.398322 0,12.424348"
         style="fill:none;fill-rule:evenodd;stroke:#000000;stroke-width:8.36573505;stroke-linecap:round;stroke-linejoin:miter;stroke-miterlimit:4;stroke-dasharray:none;stroke-opacity:1" />
    </g>
    <g
       id="g4451"
       transform="matrix(0.43743449,-0.19302908,0.19317067,0.43739383,240.64292,256.23476)"
       style="display:inline;fill:none;stroke:#000000;stroke-width:8.36573505;stroke-miterlimit:4;stroke-dasharray:none">
      <path
         style="fill:none;fill-rule:evenodd;stroke:#000000;stroke-width:8.36573505;stroke-linecap:round;stroke-linejoin:miter;stroke-miterlimit:4;stroke-dasharray:none;stroke-opacity:1"
         d="m 140,37.220811 0,12.424349"
         id="path4453" />
      <path
         id="path4455"
         d="m 125,37.398322 0,12.424348"
         style="fill:none;fill-rule:evenodd;stroke:#000000;stroke-width:8.36573505;stroke-linecap:round;stroke-linejoin:miter;stroke-miterlimit:4;stroke-dasharray:none;stroke-opacity:1" />
      <path
         style="fill:none;fill-rule:evenodd;stroke:#000000;stroke-width:8.36573505;stroke-linecap:round;stroke-linejoin:miter;stroke-miterlimit:4;stroke-dasharray:none;stroke-opacity:1"
         d="m 110,37.398322 0,12.424348"
         id="path4458" />
      <path
         id="path4460"
         d="M 95,37.398322 95,49.82267"
         style="fill:none;fill-rule:evenodd;stroke:#000000;stroke-width:8.36573505;stroke-linecap:round;stroke-linejoin:miter;stroke-miterlimit:4;stroke-dasharray:none;stroke-opacity:1" />
      <path
         style="fill:none;fill-rule:evenodd;stroke:#000000;stroke-width:8.36573505;stroke-linecap:round;stroke-linejoin:miter;stroke-miterlimit:4;stroke-dasharray:none;stroke-opacity:1"
         d="M 80,37.398322 80,49.82267"
         id="path4462" />
      <path
         style="fill:none;fill-rule:evenodd;stroke:#000000;stroke-width:8.36573505;stroke-linecap:round;stroke-linejoin:miter;stroke-miterlimit:4;stroke-dasharray:none;stroke-opacity:1"
         d="m 200,37.398322 0,12.424348"
         id="path4464" />
      <path
         id="path4466"
         d="m 185,37.398322 0,12.424348"
         style="fill:none;fill-rule:evenodd;stroke:#000000;stroke-width:8.36573505;stroke-linecap:round;stroke-linejoin:miter;stroke-miterlimit:4;stroke-dasharray:none;stroke-opacity:1" />
      <path
         style="fill:none;fill-rule:evenodd;stroke:#000000;stroke-width:8.36573505;stroke-linecap:round;stroke-linejoin:miter;stroke-miterlimit:4;stroke-dasharray:none;stroke-opacity:1"
         d="m 170,37.398322 0,12.424348"
         id="path4468" />
      <path
         id="path4470"
         d="m 155,37.398322 0,12.424348"
         style="fill:none;fill-rule:evenodd;stroke:#000000;stroke-width:8.36573505;stroke-linecap:round;stroke-linejoin:miter;stroke-miterlimit:4;stroke-dasharray:none;stroke-opacity:1" />
    </g>
    <path
       id="path4472"
       d="m 308.32357,160.94689 6.30605,2.44365 28.97561,65.60905 -69.98953,30.88464 -30.90732,-69.983 z"
       style="display:inline;fill:none;fill-opacity:1;stroke:#000000;stroke-width:6;stroke-linecap:round;stroke-miterlimit:4;stroke-dasharray:none;stroke-dashoffset:0;stroke-opacity:1" />
    <path
       style="display:inline;fill:none;fill-opacity:1;stroke:#000000;stroke-width:6;stroke-linecap:round;stroke-miterlimit:4;stroke-dasharray:none;stroke-dashoffset:0;stroke-opacity:1"
       d="m 306.69171,174.49496 21.35732,48.4603 -48.40025,21.35833 -21.37317,-48.39612 z"
       id="path4474" />
    <g
       id="g4297"
       style="stroke-width:4;stroke-miterlimit:4;stroke-dasharray:none"
       transform="translate(-7.2570955,77.510966)">
      <g
         style="display:inline;stroke:#000000;stroke-width:6.98396158;stroke-miterlimit:4;stroke-dasharray:none"
         id="g4433"
         transform="matrix(-0.20691836,0.53403763,-0.53406266,-0.20695373,408.73088,87.551168)">
        <path
           style="fill:none;fill-rule:evenodd;stroke:#000000;stroke-width:6.98396158;stroke-linecap:round;stroke-linejoin:miter;stroke-miterlimit:4;stroke-dasharray:none;stroke-opacity:1"
           d="m 84.531343,204.42753 7.333373,-7.33515"
           id="path4435" />
        <path
           id="path4437"
           d="m 93.489748,213.17851 7.333372,-7.33515"
           style="fill:none;fill-rule:evenodd;stroke:#000000;stroke-width:6.98396158;stroke-linecap:round;stroke-linejoin:miter;stroke-miterlimit:4;stroke-dasharray:none;stroke-opacity:1" />
        <path
           style="fill:none;fill-rule:evenodd;stroke:#000000;stroke-width:6.98396158;stroke-linecap:round;stroke-linejoin:miter;stroke-miterlimit:4;stroke-dasharray:none;stroke-opacity:1"
           d="m 102.34338,222.03428 7.33337,-7.33515"
           id="path4439" />
        <path
           id="path4441"
           d="m 111.19701,230.89006 7.33337,-7.33515"
           style="fill:none;fill-rule:evenodd;stroke:#000000;stroke-width:6.98396158;stroke-linecap:round;stroke-linejoin:miter;stroke-miterlimit:4;stroke-dasharray:none;stroke-opacity:1" />
        <path
           style="fill:none;fill-rule:evenodd;stroke:#000000;stroke-width:6.98396158;stroke-linecap:round;stroke-linejoin:miter;stroke-miterlimit:4;stroke-dasharray:none;stroke-opacity:1"
           d="m 49.221595,168.89963 7.333373,-7.33514"
           id="path4443" />
        <path
           id="path4445"
           d="m 58.075226,177.75541 7.333372,-7.33515"
           style="fill:none;fill-rule:evenodd;stroke:#000000;stroke-width:6.98396158;stroke-linecap:round;stroke-linejoin:miter;stroke-miterlimit:4;stroke-dasharray:none;stroke-opacity:1" />
        <path
           style="fill:none;fill-rule:evenodd;stroke:#000000;stroke-width:6.98396158;stroke-linecap:round;stroke-linejoin:miter;stroke-miterlimit:4;stroke-dasharray:none;stroke-opacity:1"
           d="m 66.928856,186.61118 7.333373,-7.33514"
           id="path4447" />
        <path
           id="path4449"
           d="m 75.782487,195.46696 7.333372,-7.33515"
           style="fill:none;fill-rule:evenodd;stroke:#000000;stroke-width:6.98396158;stroke-linecap:round;stroke-linejoin:miter;stroke-miterlimit:4;stroke-dasharray:none;stroke-opacity:1" />
      </g>
      <path
         id="path4476"
         d="m 255.85092,102.04641 2.39988,5.43439"
         style="fill:none;fill-rule:evenodd;stroke:#000000;stroke-width:4;stroke-linecap:round;stroke-linejoin:miter;stroke-miterlimit:4;stroke-dasharray:none;stroke-opacity:1" />
    </g>
    <path
       style="fill:none;fill-rule:evenodd;stroke:#000000;stroke-width:4;stroke-linecap:round;stroke-linejoin:miter;stroke-miterlimit:4;stroke-dasharray:none;stroke-opacity:1"
       d="m 257.01072,225.29178 -5.37237,2.3707"
       id="path4417" />
    <path
       id="path4419"
       d="m 254.03641,218.76474 -5.37238,2.3707"
       style="fill:none;fill-rule:evenodd;stroke:#000000;stroke-width:4;stroke-linecap:round;stroke-linejoin:miter;stroke-miterlimit:4;stroke-dasharray:none;stroke-opacity:1" />
    <path
       style="fill:none;fill-rule:evenodd;stroke:#000000;stroke-width:4;stroke-linecap:round;stroke-linejoin:miter;stroke-miterlimit:4;stroke-dasharray:none;stroke-opacity:1"
       d="m 251.13885,212.20383 -5.37239,2.3707"
       id="path4421" />
    <path
       id="path4423"
       d="m 248.24129,205.64293 -5.37238,2.3707"
       style="fill:none;fill-rule:evenodd;stroke:#000000;stroke-width:4;stroke-linecap:round;stroke-linejoin:miter;stroke-miterlimit:4;stroke-dasharray:none;stroke-opacity:1" />
    <path
       style="fill:none;fill-rule:evenodd;stroke:#000000;stroke-width:4;stroke-linecap:round;stroke-linejoin:miter;stroke-miterlimit:4;stroke-dasharray:none;stroke-opacity:1"
       d="m 245.34373,199.08201 -5.37233,2.37082"
       id="path4478" />
    <path
       style="display:inline;fill:none;fill-rule:evenodd;stroke:#000000;stroke-width:4;stroke-linecap:round;stroke-linejoin:miter;stroke-miterlimit:4;stroke-dasharray:none;stroke-opacity:1"
       d="m 268.52421,251.56928 -5.37239,2.3707"
       id="path4425" />
  </g>
</svg>
