<?xml version="1.0" encoding="UTF-8" standalone="no"?>
<!DOCTYPE svg PUBLIC "-//W3C//DTD SVG 1.1//EN"
 "http://www.w3.org/Graphics/SVG/1.1/DTD/svg11.dtd">
<!-- Generated by graphviz version 7.1.0 (20230121.1956)
 -->
<!-- Title: dependencies Pages: 1 -->
<svg width="450pt" height="152pt"
 viewBox="0.00 0.00 450.00 152.00" xmlns="http://www.w3.org/2000/svg" xmlns:xlink="http://www.w3.org/1999/xlink">
<g id="graph0" class="graph" transform="scale(1 1) rotate(0) translate(4 148)">
<title>dependencies</title>
<!-- modm_config -->
<g id="node1" class="node">
<title>modm_config</title>
<polygon fill="lightsalmon" stroke="black" points="60,-144 6,-144 6,-108 60,-108 60,-144"/>
<text text-anchor="middle" x="33" y="-122.3" font-family="Times,serif" font-size="14.00">Config</text>
</g>
<!-- modm_lbuild -->
<g id="node3" class="node">
<title>modm_lbuild</title>
<polygon fill="lightblue" stroke="black" points="60,-90 6,-90 6,-54 60,-54 60,-90"/>
<text text-anchor="middle" x="33" y="-68.3" font-family="Times,serif" font-size="14.00">lbuild</text>
</g>
<!-- modm_config&#45;&gt;modm_lbuild -->
<g id="edge1" class="edge">
<title>modm_config&#45;&gt;modm_lbuild</title>
<path fill="none" stroke="black" d="M33,-107.51C33,-105.52 33,-103.53 33,-101.54"/>
<polygon fill="black" stroke="black" points="36.5,-101.65 33,-91.65 29.5,-101.65 36.5,-101.65"/>
</g>
<!-- modm_application -->
<g id="node2" class="node">
<title>modm_application</title>
<polygon fill="lightsalmon" stroke="black" points="182,-144 102,-144 102,-108 182,-108 182,-144"/>
<text text-anchor="middle" x="142" y="-122.3" font-family="Times,serif" font-size="14.00">Application</text>
</g>
<!-- modm_build_system -->
<g id="node6" class="node">
<title>modm_build_system</title>
<polygon fill="lightgreen" stroke="black" points="309,-144 218,-144 218,-108 309,-108 309,-144"/>
<text text-anchor="middle" x="263.5" y="-122.3" font-family="Times,serif" font-size="14.00">Build System</text>
</g>
<!-- modm_application&#45;&gt;modm_build_system -->
<g id="edge6" class="edge">
<title>modm_application&#45;&gt;modm_build_system</title>
<path fill="none" stroke="black" d="M182.46,-126C190.13,-126 198.31,-126 206.39,-126"/>
<polygon fill="black" stroke="black" points="206.19,-129.5 216.19,-126 206.19,-122.5 206.19,-129.5"/>
</g>
<!-- modm_modules -->
<g id="node4" class="node">
<title>modm_modules</title>
<polygon fill="lightblue" stroke="black" stroke-width="2" points="169,-90 115,-90 115,-54 169,-54 169,-90"/>
<text text-anchor="middle" x="142" y="-68.3" font-family="Times,serif" font-size="14.00">modm</text>
</g>
<!-- modm_lbuild&#45;&gt;modm_modules -->
<g id="edge2" class="edge">
<title>modm_lbuild&#45;&gt;modm_modules</title>
<path fill="none" stroke="black" d="M60.45,-72C73.41,-72 89.24,-72 103.42,-72"/>
<polygon fill="black" stroke="black" points="103.34,-75.5 113.34,-72 103.34,-68.5 103.34,-75.5"/>
</g>
<!-- modm_modules&#45;&gt;modm_build_system -->
<g id="edge4" class="edge">
<title>modm_modules&#45;&gt;modm_build_system</title>
<path fill="none" stroke="black" d="M169.22,-83.85C181.61,-89.45 196.83,-96.33 211.36,-102.89"/>
<polygon fill="black" stroke="black" points="209.84,-106.04 220.39,-106.97 212.72,-99.66 209.84,-106.04"/>
</g>
<!-- modm_custom_library -->
<g id="node7" class="node">
<title>modm_custom_library</title>
<polygon fill="lightgreen" stroke="black" points="306.5,-90 220.5,-90 220.5,-54 306.5,-54 306.5,-90"/>
<text text-anchor="middle" x="263.5" y="-68.3" font-family="Times,serif" font-size="14.00">C++ Library</text>
</g>
<!-- modm_modules&#45;&gt;modm_custom_library -->
<g id="edge5" class="edge">
<title>modm_modules&#45;&gt;modm_custom_library</title>
<path fill="none" stroke="black" d="M169.22,-72C180.93,-72 195.16,-72 208.96,-72"/>
<polygon fill="black" stroke="black" points="208.86,-75.5 218.86,-72 208.86,-68.5 208.86,-75.5"/>
</g>
<!-- modm_devices -->
<g id="node5" class="node">
<title>modm_devices</title>
<polygon fill="lightblue" stroke="black" points="66,-36 0,-36 0,0 66,0 66,-36"/>
<text text-anchor="middle" x="33" y="-14.3" font-family="Times,serif" font-size="14.00">Database</text>
</g>
<!-- modm_devices&#45;&gt;modm_modules -->
<g id="edge3" class="edge">
<title>modm_devices&#45;&gt;modm_modules</title>
<path fill="none" stroke="black" d="M66.39,-34.35C78.5,-40.46 92.33,-47.44 104.77,-53.71"/>
<polygon fill="black" stroke="black" points="102.96,-56.72 113.46,-58.1 106.11,-50.47 102.96,-56.72"/>
</g>
<!-- modm_build_artifacts -->
<g id="node8" class="node">
<title>modm_build_artifacts</title>
<polygon fill="lightgreen" stroke="black" points="442,-144 345,-144 345,-108 442,-108 442,-144"/>
<text text-anchor="middle" x="393.5" y="-122.3" font-family="Times,serif" font-size="14.00">Build Artifacts</text>
</g>
<!-- modm_build_system&#45;&gt;modm_build_artifacts -->
<g id="edge8" class="edge">
<title>modm_build_system&#45;&gt;modm_build_artifacts</title>
<path fill="none" stroke="black" d="M309.27,-126C317.11,-126 325.37,-126 333.53,-126"/>
<polygon fill="black" stroke="black" points="333.41,-129.5 343.41,-126 333.41,-122.5 333.41,-129.5"/>
</g>
<!-- modm_custom_library&#45;&gt;modm_build_system -->
<g id="edge7" class="edge">
<title>modm_custom_library&#45;&gt;modm_build_system</title>
<path fill="none" stroke="black" d="M263.5,-90.14C263.5,-92.13 263.5,-94.12 263.5,-96.11"/>
<polygon fill="black" stroke="black" points="260,-96 263.5,-106 267,-96 260,-96"/>
</g>
</g>
</svg>
