<?xml version="1.0" encoding="UTF-8" standalone="no"?>
<!DOCTYPE svg PUBLIC "-//W3C//DTD SVG 1.1//EN"
 "http://www.w3.org/Graphics/SVG/1.1/DTD/svg11.dtd">
<!-- Generated by graphviz version 2.40.1 (20161225.0304)
 -->
<!-- Title: dependencies Pages: 1 -->
<svg width="646pt" height="474pt"
 viewBox="0.00 0.00 645.95 474.00" xmlns="http://www.w3.org/2000/svg" xmlns:xlink="http://www.w3.org/1999/xlink">
<g id="graph0" class="graph" transform="scale(1 1) rotate(0) translate(4 470)">
<title>dependencies</title>
<polygon fill="#ffffff" stroke="transparent" points="-4,4 -4,-470 641.9521,-470 641.9521,4 -4,4"/>
<!-- modm_architecture -->
<g id="node1" class="node">
<title>modm_architecture</title>
<polygon fill="#d3d3d3" stroke="#000000" points="247.0386,-466 164.9136,-466 164.9136,-430 247.0386,-430 247.0386,-466"/>
<text text-anchor="middle" x="205.9761" y="-450.8" font-family="Times,serif" font-size="14.00" fill="#000000">modm:</text>
<text text-anchor="middle" x="205.9761" y="-436.8" font-family="Times,serif" font-size="14.00" fill="#000000">architecture</text>
</g>
<!-- modm_architecture_accessor -->
<g id="node2" class="node">
<title>modm_architecture_accessor</title>
<polygon fill="#d3d3d3" stroke="#000000" points="127.9282,-222 42.0239,-222 42.0239,-172 127.9282,-172 127.9282,-222"/>
<text text-anchor="middle" x="84.9761" y="-206.8" font-family="Times,serif" font-size="14.00" fill="#000000">modm:</text>
<text text-anchor="middle" x="84.9761" y="-192.8" font-family="Times,serif" font-size="14.00" fill="#000000">architecture:</text>
<text text-anchor="middle" x="84.9761" y="-178.8" font-family="Times,serif" font-size="14.00" fill="#000000">accessor</text>
</g>
<!-- modm_architecture_accessor&#45;&gt;modm_architecture -->
<g id="edge1" class="edge">
<title>modm_architecture_accessor&#45;&gt;modm_architecture</title>
<path fill="none" stroke="#000000" d="M73.1737,-222.2804C56.3363,-262.4654 31.1912,-341.7076 66.9761,-394 77.467,-409.3304 119.8763,-424.4424 155.1218,-434.7633"/>
<polygon fill="#000000" stroke="#000000" points="154.2634,-438.1581 164.8404,-437.5435 156.1887,-431.4281 154.2634,-438.1581"/>
</g>
<!-- modm_io -->
<g id="node8" class="node">
<title>modm_io</title>
<polygon fill="#d3d3d3" stroke="#000000" points="131.646,-301 76.3062,-301 76.3062,-265 131.646,-265 131.646,-301"/>
<text text-anchor="middle" x="103.9761" y="-285.8" font-family="Times,serif" font-size="14.00" fill="#000000">modm:</text>
<text text-anchor="middle" x="103.9761" y="-271.8" font-family="Times,serif" font-size="14.00" fill="#000000">io</text>
</g>
<!-- modm_architecture_accessor&#45;&gt;modm_io -->
<g id="edge2" class="edge">
<title>modm_architecture_accessor&#45;&gt;modm_io</title>
<path fill="none" stroke="#000000" d="M84.3579,-222.3377C85.9849,-232.7007 88.5944,-244.7202 91.5051,-255.3135"/>
<polygon fill="#000000" stroke="#000000" points="88.1603,-256.345 94.3659,-264.9323 94.8698,-254.3494 88.1603,-256.345"/>
</g>
<!-- modm_architecture_atomic -->
<g id="node3" class="node">
<title>modm_architecture_atomic</title>
<polygon fill="#d3d3d3" stroke="#000000" points="85.9282,-136 .0239,-136 .0239,-86 85.9282,-86 85.9282,-136"/>
<text text-anchor="middle" x="42.9761" y="-120.8" font-family="Times,serif" font-size="14.00" fill="#000000">modm:</text>
<text text-anchor="middle" x="42.9761" y="-106.8" font-family="Times,serif" font-size="14.00" fill="#000000">architecture:</text>
<text text-anchor="middle" x="42.9761" y="-92.8" font-family="Times,serif" font-size="14.00" fill="#000000">atomic</text>
</g>
<!-- modm_architecture_atomic&#45;&gt;modm_architecture -->
<g id="edge3" class="edge">
<title>modm_architecture_atomic&#45;&gt;modm_architecture</title>
<path fill="none" stroke="#000000" d="M33.9754,-136.3262C16.5426,-190.3653 -15.0199,-318.2096 45.9761,-394 59.9004,-411.3017 113.3847,-427.0381 154.7265,-437.002"/>
<polygon fill="#000000" stroke="#000000" points="154.1398,-440.4596 164.676,-439.3466 155.7454,-433.6462 154.1398,-440.4596"/>
</g>
<!-- modm_architecture_atomic&#45;&gt;modm_architecture_accessor -->
<g id="edge4" class="edge">
<title>modm_architecture_atomic&#45;&gt;modm_architecture_accessor</title>
<path fill="none" stroke="#000000" d="M55.3503,-136.3377C59.3663,-144.5609 63.8917,-153.8271 68.1742,-162.5962"/>
<polygon fill="#000000" stroke="#000000" points="65.1569,-164.3937 72.6903,-171.8434 71.4469,-161.3218 65.1569,-164.3937"/>
</g>
<!-- modm_utils -->
<g id="node14" class="node">
<title>modm_utils</title>
<polygon fill="#d3d3d3" stroke="#000000" points="131.646,-387 76.3062,-387 76.3062,-351 131.646,-351 131.646,-387"/>
<text text-anchor="middle" x="103.9761" y="-371.8" font-family="Times,serif" font-size="14.00" fill="#000000">modm:</text>
<text text-anchor="middle" x="103.9761" y="-357.8" font-family="Times,serif" font-size="14.00" fill="#000000">utils</text>
</g>
<!-- modm_architecture_atomic&#45;&gt;modm_utils -->
<g id="edge5" class="edge">
<title>modm_architecture_atomic&#45;&gt;modm_utils</title>
<path fill="none" stroke="#000000" d="M36.7319,-136.3241C32.0901,-158.9506 27.4362,-192.9192 32.9761,-222 41.5426,-266.9687 67.563,-313.7104 85.6025,-342.0867"/>
<polygon fill="#000000" stroke="#000000" points="82.7666,-344.1463 91.1468,-350.6289 88.6383,-340.3353 82.7666,-344.1463"/>
</g>
<!-- modm_architecture_gpio -->
<g id="node4" class="node">
<title>modm_architecture_gpio</title>
<polygon fill="#d3d3d3" stroke="#000000" points="353.9282,-394 268.0239,-394 268.0239,-344 353.9282,-344 353.9282,-394"/>
<text text-anchor="middle" x="310.9761" y="-378.8" font-family="Times,serif" font-size="14.00" fill="#000000">modm:</text>
<text text-anchor="middle" x="310.9761" y="-364.8" font-family="Times,serif" font-size="14.00" fill="#000000">architecture:</text>
<text text-anchor="middle" x="310.9761" y="-350.8" font-family="Times,serif" font-size="14.00" fill="#000000">gpio</text>
</g>
<!-- modm_architecture_gpio&#45;&gt;modm_architecture -->
<g id="edge6" class="edge">
<title>modm_architecture_gpio&#45;&gt;modm_architecture</title>
<path fill="none" stroke="#000000" d="M277.4647,-394.2133C264.9811,-403.6058 250.842,-414.2437 238.4528,-423.5652"/>
<polygon fill="#000000" stroke="#000000" points="236.0836,-420.9676 230.197,-429.7766 240.2922,-426.5612 236.0836,-420.9676"/>
</g>
<!-- modm_architecture_interrupt -->
<g id="node5" class="node">
<title>modm_architecture_interrupt</title>
<polygon fill="#d3d3d3" stroke="#000000" points="575.9282,-308 490.0239,-308 490.0239,-258 575.9282,-258 575.9282,-308"/>
<text text-anchor="middle" x="532.9761" y="-292.8" font-family="Times,serif" font-size="14.00" fill="#000000">modm:</text>
<text text-anchor="middle" x="532.9761" y="-278.8" font-family="Times,serif" font-size="14.00" fill="#000000">architecture:</text>
<text text-anchor="middle" x="532.9761" y="-264.8" font-family="Times,serif" font-size="14.00" fill="#000000">interrupt</text>
</g>
<!-- modm_architecture_interrupt&#45;&gt;modm_architecture -->
<g id="edge7" class="edge">
<title>modm_architecture_interrupt&#45;&gt;modm_architecture</title>
<path fill="none" stroke="#000000" d="M524.3136,-308.3829C514.1923,-334.0738 494.9139,-372.9262 464.9761,-394 432.0867,-417.1515 322.985,-433.8989 257.3376,-442.1694"/>
<polygon fill="#000000" stroke="#000000" points="256.688,-438.723 247.1931,-443.4237 257.547,-445.6701 256.688,-438.723"/>
</g>
<!-- modm_architecture_register -->
<g id="node6" class="node">
<title>modm_architecture_register</title>
<polygon fill="#d3d3d3" stroke="#000000" points="234.9282,-222 149.0239,-222 149.0239,-172 234.9282,-172 234.9282,-222"/>
<text text-anchor="middle" x="191.9761" y="-206.8" font-family="Times,serif" font-size="14.00" fill="#000000">modm:</text>
<text text-anchor="middle" x="191.9761" y="-192.8" font-family="Times,serif" font-size="14.00" fill="#000000">architecture:</text>
<text text-anchor="middle" x="191.9761" y="-178.8" font-family="Times,serif" font-size="14.00" fill="#000000">register</text>
</g>
<!-- modm_architecture_register&#45;&gt;modm_architecture -->
<g id="edge8" class="edge">
<title>modm_architecture_register&#45;&gt;modm_architecture</title>
<path fill="none" stroke="#000000" d="M198.1353,-222.135C206.5657,-259.5288 220.1025,-332.059 214.9761,-394 214.2816,-402.3915 212.9899,-411.4422 211.5975,-419.6908"/>
<polygon fill="#000000" stroke="#000000" points="208.1407,-419.1388 209.8174,-429.6001 215.0305,-420.3765 208.1407,-419.1388"/>
</g>
<!-- modm_architecture_register&#45;&gt;modm_io -->
<g id="edge9" class="edge">
<title>modm_architecture_register&#45;&gt;modm_io</title>
<path fill="none" stroke="#000000" d="M166.0491,-222.3377C154.5706,-233.5554 141.1059,-246.7141 129.6561,-257.9037"/>
<polygon fill="#000000" stroke="#000000" points="127.1696,-255.4397 122.464,-264.9323 132.0622,-260.4461 127.1696,-255.4397"/>
</g>
<!-- modm_math_utils -->
<g id="node9" class="node">
<title>modm_math_utils</title>
<polygon fill="#d3d3d3" stroke="#000000" points="205.646,-394 150.3062,-394 150.3062,-344 205.646,-344 205.646,-394"/>
<text text-anchor="middle" x="177.9761" y="-378.8" font-family="Times,serif" font-size="14.00" fill="#000000">modm:</text>
<text text-anchor="middle" x="177.9761" y="-364.8" font-family="Times,serif" font-size="14.00" fill="#000000">math:</text>
<text text-anchor="middle" x="177.9761" y="-350.8" font-family="Times,serif" font-size="14.00" fill="#000000">utils</text>
</g>
<!-- modm_architecture_register&#45;&gt;modm_math_utils -->
<g id="edge10" class="edge">
<title>modm_architecture_register&#45;&gt;modm_math_utils</title>
<path fill="none" stroke="#000000" d="M188.2345,-222.1783C186.7167,-233.1584 185.0677,-246.1945 183.9761,-258 181.6397,-283.2673 180.1206,-311.8609 179.1955,-333.6985"/>
<polygon fill="#000000" stroke="#000000" points="175.6927,-333.6993 178.7881,-343.8318 182.687,-333.9805 175.6927,-333.6993"/>
</g>
<!-- modm_architecture_uart -->
<g id="node7" class="node">
<title>modm_architecture_uart</title>
<polygon fill="#d3d3d3" stroke="#000000" points="637.9282,-136 552.0239,-136 552.0239,-86 637.9282,-86 637.9282,-136"/>
<text text-anchor="middle" x="594.9761" y="-120.8" font-family="Times,serif" font-size="14.00" fill="#000000">modm:</text>
<text text-anchor="middle" x="594.9761" y="-106.8" font-family="Times,serif" font-size="14.00" fill="#000000">architecture:</text>
<text text-anchor="middle" x="594.9761" y="-92.8" font-family="Times,serif" font-size="14.00" fill="#000000">uart</text>
</g>
<!-- modm_architecture_uart&#45;&gt;modm_architecture -->
<g id="edge11" class="edge">
<title>modm_architecture_uart&#45;&gt;modm_architecture</title>
<path fill="none" stroke="#000000" d="M599.2098,-136.2497C604.5321,-175.0428 610.1823,-250.8105 584.9761,-308 563.3016,-357.1764 547.4831,-368.8767 499.9761,-394 458.7105,-415.8226 330.2517,-433.6417 257.5276,-442.307"/>
<polygon fill="#000000" stroke="#000000" points="256.7423,-438.8751 247.2192,-443.5185 257.5594,-445.8273 256.7423,-438.8751"/>
</g>
<!-- modm_io&#45;&gt;modm_architecture_accessor -->
<g id="edge12" class="edge">
<title>modm_io&#45;&gt;modm_architecture_accessor</title>
<path fill="none" stroke="#000000" d="M105.6029,-264.9323C104.4864,-255.4689 102.1969,-243.5441 99.4369,-232.337"/>
<polygon fill="#000000" stroke="#000000" points="102.7325,-231.1091 96.79,-222.3377 95.9656,-232.9004 102.7325,-231.1091"/>
</g>
<!-- modm_io&#45;&gt;modm_math_utils -->
<g id="edge13" class="edge">
<title>modm_io&#45;&gt;modm_math_utils</title>
<path fill="none" stroke="#000000" d="M119.6696,-301.2384C128.4398,-311.4308 139.6328,-324.4389 149.8625,-336.3274"/>
<polygon fill="#000000" stroke="#000000" points="147.2351,-338.6402 156.4106,-343.9374 152.5412,-334.0745 147.2351,-338.6402"/>
</g>
<!-- modm_io&#45;&gt;modm_utils -->
<g id="edge14" class="edge">
<title>modm_io&#45;&gt;modm_utils</title>
<path fill="none" stroke="#000000" d="M103.9761,-301.2384C103.9761,-312.6403 103.9761,-327.5658 103.9761,-340.506"/>
<polygon fill="#000000" stroke="#000000" points="100.4762,-340.7879 103.9761,-350.7879 107.4762,-340.7879 100.4762,-340.7879"/>
</g>
<!-- modm_math_utils&#45;&gt;modm_architecture -->
<g id="edge15" class="edge">
<title>modm_math_utils&#45;&gt;modm_architecture</title>
<path fill="none" stroke="#000000" d="M186.9896,-394.4309C189.9312,-402.7304 193.2106,-411.9831 196.2051,-420.432"/>
<polygon fill="#000000" stroke="#000000" points="192.9126,-421.6196 199.5523,-429.8758 199.5105,-419.281 192.9126,-421.6196"/>
</g>
<!-- modm_platform -->
<g id="node10" class="node">
<title>modm_platform</title>
<polygon fill="#d3d3d3" stroke="#000000" points="456.1834,-387 391.7687,-387 391.7687,-351 456.1834,-351 456.1834,-387"/>
<text text-anchor="middle" x="423.9761" y="-371.8" font-family="Times,serif" font-size="14.00" fill="#000000">modm:</text>
<text text-anchor="middle" x="423.9761" y="-357.8" font-family="Times,serif" font-size="14.00" fill="#000000">platform</text>
</g>
<!-- modm_platform_gpio -->
<g id="node11" class="node">
<title>modm_platform_gpio</title>
<polygon fill="#d3d3d3" stroke="#000000" points="420.0728,-222 351.8793,-222 351.8793,-172 420.0728,-172 420.0728,-222"/>
<text text-anchor="middle" x="385.9761" y="-206.8" font-family="Times,serif" font-size="14.00" fill="#000000">modm:</text>
<text text-anchor="middle" x="385.9761" y="-192.8" font-family="Times,serif" font-size="14.00" fill="#000000">platform:</text>
<text text-anchor="middle" x="385.9761" y="-178.8" font-family="Times,serif" font-size="14.00" fill="#000000">gpio</text>
</g>
<!-- modm_platform_gpio&#45;&gt;modm_architecture_gpio -->
<g id="edge16" class="edge">
<title>modm_platform_gpio&#45;&gt;modm_architecture_gpio</title>
<path fill="none" stroke="#000000" d="M385.6931,-222.0451C384.5267,-245.3894 380.4099,-280.6182 366.9761,-308 361.9826,-318.1781 354.7516,-327.8739 347.1355,-336.4188"/>
<polygon fill="#000000" stroke="#000000" points="344.3816,-334.2385 340.086,-343.9234 349.4836,-339.0311 344.3816,-334.2385"/>
</g>
<!-- modm_platform_gpio&#45;&gt;modm_math_utils -->
<g id="edge17" class="edge">
<title>modm_platform_gpio&#45;&gt;modm_math_utils</title>
<path fill="none" stroke="#000000" d="M351.7173,-207.3417C323.519,-217.0917 283.6612,-233.8362 254.9761,-258 229.6863,-279.3036 208.8977,-310.8092 195.3229,-334.8181"/>
<polygon fill="#000000" stroke="#000000" points="192.2362,-333.1676 190.4791,-343.6158 198.3682,-336.5438 192.2362,-333.1676"/>
</g>
<!-- modm_platform_gpio&#45;&gt;modm_platform -->
<g id="edge18" class="edge">
<title>modm_platform_gpio&#45;&gt;modm_platform</title>
<path fill="none" stroke="#000000" d="M391.8375,-222.2105C394.3722,-233.1963 397.3526,-246.2279 399.9761,-258 406.2699,-286.2422 413.235,-318.5826 418.0333,-341.0409"/>
<polygon fill="#000000" stroke="#000000" points="414.6296,-341.8622 420.1387,-350.9121 421.4756,-340.4019 414.6296,-341.8622"/>
</g>
<!-- modm_platform_gpio_common -->
<g id="node12" class="node">
<title>modm_platform_gpio_common</title>
<polygon fill="#d3d3d3" stroke="#000000" points="357.8597,-308 264.0925,-308 264.0925,-258 357.8597,-258 357.8597,-308"/>
<text text-anchor="middle" x="310.9761" y="-292.8" font-family="Times,serif" font-size="14.00" fill="#000000">modm:</text>
<text text-anchor="middle" x="310.9761" y="-278.8" font-family="Times,serif" font-size="14.00" fill="#000000">platform:</text>
<text text-anchor="middle" x="310.9761" y="-264.8" font-family="Times,serif" font-size="14.00" fill="#000000">gpio.common</text>
</g>
<!-- modm_platform_gpio&#45;&gt;modm_platform_gpio_common -->
<g id="edge19" class="edge">
<title>modm_platform_gpio&#45;&gt;modm_platform_gpio_common</title>
<path fill="none" stroke="#000000" d="M363.8792,-222.3377C356.2501,-231.0858 347.5915,-241.0143 339.5207,-250.2688"/>
<polygon fill="#000000" stroke="#000000" points="336.8498,-248.0063 332.915,-257.8434 342.1255,-252.6072 336.8498,-248.0063"/>
</g>
<!-- modm_platform_gpio_common&#45;&gt;modm_architecture_gpio -->
<g id="edge20" class="edge">
<title>modm_platform_gpio_common&#45;&gt;modm_architecture_gpio</title>
<path fill="none" stroke="#000000" d="M310.9761,-308.3377C310.9761,-316.2984 310.9761,-325.2367 310.9761,-333.7551"/>
<polygon fill="#000000" stroke="#000000" points="307.4762,-333.8434 310.9761,-343.8434 314.4762,-333.8434 307.4762,-333.8434"/>
</g>
<!-- modm_platform_gpio_common&#45;&gt;modm_platform -->
<g id="edge21" class="edge">
<title>modm_platform_gpio_common&#45;&gt;modm_platform</title>
<path fill="none" stroke="#000000" d="M343.9641,-308.1059C359.1344,-319.6515 377.0572,-333.2918 392.0902,-344.7329"/>
<polygon fill="#000000" stroke="#000000" points="390.0315,-347.5644 400.1088,-350.8355 394.2709,-341.9941 390.0315,-347.5644"/>
</g>
<!-- modm_platform_gpio_common&#45;&gt;modm_utils -->
<g id="edge22" class="edge">
<title>modm_platform_gpio_common&#45;&gt;modm_utils</title>
<path fill="none" stroke="#000000" d="M264.2243,-296.3081C229.3248,-307.0613 180.9666,-323.7182 140.9761,-344 139.8482,-344.572 138.7139,-345.1726 137.5784,-345.7959"/>
<polygon fill="#000000" stroke="#000000" points="135.7576,-342.8064 128.9422,-350.9182 139.3287,-348.8271 135.7576,-342.8064"/>
</g>
<!-- modm_platform_uart -->
<g id="node13" class="node">
<title>modm_platform_uart</title>
<polygon fill="#d3d3d3" stroke="#000000" stroke-width="2" points="477.0728,-50 408.8793,-50 408.8793,0 477.0728,0 477.0728,-50"/>
<text text-anchor="middle" x="442.9761" y="-34.8" font-family="Times,serif" font-size="14.00" fill="#000000">modm:</text>
<text text-anchor="middle" x="442.9761" y="-20.8" font-family="Times,serif" font-size="14.00" fill="#000000">platform:</text>
<text text-anchor="middle" x="442.9761" y="-6.8" font-family="Times,serif" font-size="14.00" fill="#000000">uart</text>
</g>
<!-- modm_platform_uart&#45;&gt;modm_architecture_atomic -->
<g id="edge23" class="edge">
<title>modm_platform_uart&#45;&gt;modm_architecture_atomic</title>
<path fill="none" stroke="#000000" d="M408.8723,-32.3323C339.0671,-47.3404 179.464,-81.6551 96.0191,-99.5958"/>
<polygon fill="#000000" stroke="#000000" points="95.2724,-96.1762 86.2316,-101.7001 96.7439,-103.0198 95.2724,-96.1762"/>
</g>
<!-- modm_platform_uart&#45;&gt;modm_architecture_interrupt -->
<g id="edge24" class="edge">
<title>modm_platform_uart&#45;&gt;modm_architecture_interrupt</title>
<path fill="none" stroke="#000000" d="M458.2019,-50.2276C464.2803,-60.9937 471.0013,-73.8551 475.9761,-86 498.5095,-141.0107 515.8965,-208.0638 525.2648,-248.0506"/>
<polygon fill="#000000" stroke="#000000" points="521.8677,-248.8954 527.5272,-257.852 528.6884,-247.321 521.8677,-248.8954"/>
</g>
<!-- modm_platform_uart&#45;&gt;modm_architecture_register -->
<g id="edge25" class="edge">
<title>modm_platform_uart&#45;&gt;modm_architecture_register</title>
<path fill="none" stroke="#000000" d="M408.8639,-48.3757C364.3891,-78.8525 286.4708,-132.2467 237.1339,-166.0552"/>
<polygon fill="#000000" stroke="#000000" points="235.1409,-163.178 228.8703,-171.7179 239.0978,-168.9523 235.1409,-163.178"/>
</g>
<!-- modm_platform_uart&#45;&gt;modm_architecture_uart -->
<g id="edge26" class="edge">
<title>modm_platform_uart&#45;&gt;modm_architecture_uart</title>
<path fill="none" stroke="#000000" d="M477.0878,-44.3001C496.551,-55.3121 521.3443,-69.3399 543.1669,-81.6869"/>
<polygon fill="#000000" stroke="#000000" points="541.5689,-84.8041 551.996,-86.6823 545.016,-78.7117 541.5689,-84.8041"/>
</g>
<!-- modm_platform_uart&#45;&gt;modm_platform -->
<g id="edge27" class="edge">
<title>modm_platform_uart&#45;&gt;modm_platform</title>
<path fill="none" stroke="#000000" d="M441.5943,-50.0167C438.1483,-112.4073 429.1901,-274.5995 425.5492,-340.5189"/>
<polygon fill="#000000" stroke="#000000" points="422.0493,-340.4213 424.9924,-350.5992 429.0387,-340.8074 422.0493,-340.4213"/>
</g>
<!-- modm_platform_uart&#45;&gt;modm_platform_gpio -->
<g id="edge28" class="edge">
<title>modm_platform_uart&#45;&gt;modm_platform_gpio</title>
<path fill="none" stroke="#000000" d="M434.6878,-50.0103C424.8941,-79.5631 408.5399,-128.9126 397.5125,-162.1883"/>
<polygon fill="#000000" stroke="#000000" points="394.0978,-161.3662 394.2744,-171.9595 400.7425,-163.5682 394.0978,-161.3662"/>
</g>
<!-- modm_utils&#45;&gt;modm_architecture -->
<g id="edge29" class="edge">
<title>modm_utils&#45;&gt;modm_architecture</title>
<path fill="none" stroke="#000000" d="M127.3769,-387.1242C141.3715,-397.9631 159.3337,-411.875 174.5534,-423.6629"/>
<polygon fill="#000000" stroke="#000000" points="172.6349,-426.6039 182.6841,-429.9601 176.9212,-421.0697 172.6349,-426.6039"/>
</g>
</g>
</svg>
