P1
# CREATOR: GIMP PNM Filter Version 1.1
64 64
0000000000000000000000000000000000000000000000000000000000000000000000
0000000000000000000000000000000000000000000000000000000000000000000000
0000000000000000000000000000000000000000000000000000000000000000000000
0000000000000000000000000000000000000000000000000000000000000000000000
0000000000000000000000000000000000000000000000000000000000000000000000
0000000000000000000000000000000000000000000000000000000000000000000000
0000000000000000000000000000000000000000000000000000000000000000111100
0000000000000000000000000000000000000000000000000000000000111110000000
0000000000000000000000000000000000000000000000000011111110000000000000
0000000000000000000000000000000000000000000111111110000000000000000000
0000000000000000000000000000000000001111111110000000000000000000000000
0000000000000000000000000000011111111100000000000000000000000000000000
0000000000000000000000111111111100000000000000000000000000000000000000
0000000000000001111111111000000000000000000000000000000000000000000000
0000000011111111110000000000000000000000000000000000000000000000000000
0111111111110000000000000000000000000000000000000000000000000000111111
1111110000000000000000000000000000000000000000000000000001111111111111
0000000000000000000000000000000000000000000000000011111111111111000000
0000000000000000000000000000000000000000000011111111111111000000000000
0000000000000000000000000000000000000111111111111111000000000000000000
0000000000000000000000000000001111111111111111000000000000000000000000
0000000000000000000000011111111101111111000000000000000000000000000000
0000000000000000111111111001111111000000000000000000000000000000000000
0000000000111111110000111111000000000000000000000000000000000000000000
0001111111100000111111000000000000000000000000000000000000000000001111
1111000000111111000000000000000000000000000000000000000000011111111000
0000111111000000000000000000000000000000000000000000111111111000000011
1111000000111110000000000000000000000000000000111111110000000011111100
0011111111000000000000000000000000000001111111100000000011111111111111
1111100000000000000000000000000011111111000000000111111111111111111110
0000000000000000000000000111111110000001111111111111111111111110000000
0000000000000000000111111111111111111111111111111111111000000000000000
0000000000001111111111111111111111111111111110000000000000000000000000
0000001111111111111111111111111111100000000000000000000000000000000001
1111111111111111111111111110000000000000000000000000000000000001111111
1111111111111111111110000000000000000000000000000000000001111111111111
1110000011111110000000000000000000000000000000000000111111111000000000
0011111110000000000000000000000000000000000000000000000000000000001111
1110000000000000000000000000000000000000000000000000000000001111111000
0000000000000000000000000000000000000000000000000000001111111000000000
0000000000000000000000000000000000000000000000000111111000000000000000
0000000000000000000000000000000000000000000111111000000000000000000000
0000000000000000000000000000000000000111111000000000000000000000000000
0000000000000000000000000000000111111100000000000000000000000000000000
0000000000000000000000000111111100000000000000000000000000000000000000
0000000000000000000111111100000000000000000000000000000000000000000000
0000000000000011111100000000000000000000000000000000000000000000000000
0000000011111110000000000000000000000000000000000000000000000000000000
0011111110000000000000000000000000000000000000000000000000000000001111
1110000000000000000000000000000000000000000000000000000000000111110000
0000000000000000000000000000000000000000000000000000000011100000000000
0000000000000000000000000000000000000000000000000000000000000000000000
0000000000000000000000000000000000000000000000000000000000000000000000
0000000000000000000000000000000000000000000000000000000000000000000000
0000000000000000000000000000000000000000000000000000000000000000000000
0000000000000000000000000000000000000000000000000000000000000000000000
0000000000000000000000000000000000000000000000000000000000000000000000
0000000000000000000000000000000000000000000000000000000000000000000000
000000000000000000000000000000000000